<?xml version="1.0" encoding="utf-8"?>
<!-- Generator: Adobe Illustrator 19.1.0, SVG Export Plug-In . SVG Version: 6.00 Build 0)  -->
<svg version="1.1" id="Layer_1" xmlns="http://www.w3.org/2000/svg" xmlns:xlink="http://www.w3.org/1999/xlink" x="0px" y="0px"
	 viewBox="0 0 612 792" style="enable-background:new 0 0 612 792;" xml:space="preserve">
<style type="text/css">
	.st0{fill:none;stroke:#000000;stroke-width:1.0001;stroke-miterlimit:10;}
</style>
<g>
	<g>
		<path d="M491.1,450.9c-0.2,0.1-0.3,0.3-0.3,0.5c0,0.1,0,0.2,0,0.3l0.2,1l-0.2,1l0.1,0.4l-0.1,0.4l0.1,1.2l-0.1,0.2v0.9l-0.1,0.7
			l0.1,0.3l-0.1,1.7l0.1,0.3l-0.1,0.2l0.1,0.5l-0.1,0.1l0.1,0.4h-0.1l-0.1,0.2v0.4l-0.1,0.3l0.1,0.2l-0.6,1l-0.1,0.5l-0.1,0
			l-0.2,0.3c-0.2,0.2-0.4,0.5-0.5,0.7l-0.5,0.3c-0.1,0.4-0.4,0.6-0.8,0.6c0,0,0,0,0,0.1c0,0.1,0,0.1-0.1,0.1l-0.1,0.1
			c-0.3,0.1-0.4,0.2-0.4,0.3H487l-0.1,0.1l-0.3-0.1l-0.5,0.3l-0.3-0.1l-0.8,0.1l-0.2,0l-0.1,0l-0.8-0.1h-0.2l-0.3-0.2l-0.1,0
			l-0.9-0.3l-0.7-0.1l-0.2-0.3l-0.4,0l-0.2-0.5l-0.2-0.1l-0.4-0.5l-0.4-0.2l-0.3-0.5c-0.1-0.1-0.1-0.1-0.2-0.2l-0.4-0.2l0.1-0.3
			l-0.2-0.3l0-0.2c0-0.2-0.1-0.4-0.2-0.7c0-0.1-0.1-0.3-0.1-0.4c0-0.1,0-0.3,0.1-0.5l0.1-0.3v-0.1l0.2-0.1l0.1-0.1l0.1,0l0.1-0.3
			c0-0.1,0.2-0.4,0.6-0.7l0.4-0.1l0.6-0.6l0.7,0.1c0.1-0.2,0.2-0.3,0.3-0.3c0.1,0,0.2,0.1,0.2,0.2c0,0.1,0,0.1,0,0.1l-0.3,0.2
			l-0.2,0.2c-0.1,0.1-0.3,0.1-0.6,0.2l-0.2,0.4h-0.4c-0.2,0.3-0.4,0.6-0.7,0.9l0,0.5c-0.1,0.2-0.2,0.4-0.2,0.7l-0.1,0.1l0.6,1.4
			l0.5,0.2l0.1,0.3l0.8,0.8l0.3,0.1c0.1,0,0.2,0.1,0.3,0.2l0.4,0.3h0.4l0.3,0.3l0.4-0.1l0.2,0.2l1.5-0.1l0.2-0.1v0.1
			c0,0.1,0,0.1,0.1,0.1c0,0,0,0,0.1-0.1c0.2-0.2,0.4-0.3,0.7-0.3h0.1l0.8-0.3v0.1c0.1-0.1,0.2-0.1,0.2-0.2h-0.1c0,0,0.1-0.1,0.2-0.1
			c0,0,0.1,0,0.1,0c0-0.2,0.1-0.2,0.2-0.2h0.1l0.1-0.2c0.1,0,0.2-0.1,0.2-0.2h0c0.1,0,0.2-0.1,0.2-0.2c0-0.1,0.1-0.2,0.2-0.2
			l0.1,0.1c0-0.2,0.2-0.4,0.4-0.6c0.2-0.2,0.3-0.4,0.3-0.7h0.1c0.3-0.6,0.5-1,0.6-1.3l-0.1-0.1l0.1-0.7l0.1-0.1v-0.6l0.1-0.2
			l-0.2-0.3c0.2-0.2,0.2-0.2,0.2-0.3c0,0,0-0.1-0.1-0.2c0-0.1-0.1-0.2-0.1-0.4v-0.1l0.1-1.1v-1.5l-0.1-0.3l0.1-0.5l-0.1-0.6V453
			l0-0.3l0.1-0.3l-0.1-0.2l0.1-0.2l-0.1-1l-0.2-0.2l0.2-0.2l0-0.2l0-0.4l-0.1-0.2l0.1-0.3l-0.2-0.3c-0.1,0.1-0.2,0.2-0.3,0.2
			l-0.1,0.3l-0.2,0.1l0,0.3l-0.4,0.3l0.1,0.1l-0.2,0.3l-0.2,0.1l-0.1,0.1l-0.4,0.1v0.3h-0.2l-0.1,0.3l-0.9,0.8l-0.6,0.7l-0.3,0.1
			l-0.2,0.2l-0.6,0.5l-0.2,0.1c0,0-0.2,0.2-0.5,0.4l-0.1,0.2L484,455h-0.2l-0.1,0.2l-0.3,0l-0.5,0.5l-0.5,0.1l-0.2,0.2
			c-0.1,0-0.3,0.1-0.5,0.2l-0.1,0.2c-0.1,0.1-0.3,0.1-0.6,0.1c-0.4,0-0.6-0.1-0.7-0.2l-0.5-0.9l-0.1-0.4l-0.3-1v-0.8l-0.1-0.3
			l0.2-0.6l-0.1-0.4l0.1-0.1l0-0.3l0.2-0.4l0-0.6l0.1-0.3l-0.1-0.2l0.3-1.2l-0.1-0.8l0.1-0.7l-0.2-1l0.1-0.2l-0.1-0.2l0.2-0.5
			l-0.1-0.2l0.2-0.2v-0.3l0.3,0c0.1,0.2,0.2,0.4,0.3,0.5l-0.1,0.2l0.2,0l-0.1,0.3l0.2,0.4l-0.1,0.2l0.1,0.4l0.1,0.1l-0.2,0.4
			l0.2,0.7l-0.3,0.4l0.2,0.2l-0.2,1v0.9l-0.1,0.1l-0.1,1.4l-0.3,0.4l0.1,0.2v0.6l0.1,0.4l-0.1,0.3l0,0.4l-0.1,0.2l0.1,0.2v0.3
			l0.3,0.3l0.1,0.3l0.2,0l0.1,0.2l0.2-0.1l0.6,0l0.2-0.4l0.7-0.3l0,0.1c0-0.1,0.1-0.3,0.2-0.3c0.1-0.1,0.3-0.2,0.4-0.3
			c0.2-0.2,0.4-0.3,0.6-0.3l0,0.1c0.1,0,0.1-0.1,0.1-0.1c0,0,0-0.1-0.1-0.1c0.2,0,0.5-0.2,0.9-0.6c0.4-0.4,0.8-0.6,1.2-0.7l0.3-0.5
			l0.1,0.2v-0.2c0.3-0.1,0.4-0.2,0.4-0.4l0.3-0.2c0.2-0.1,0.3-0.2,0.3-0.4v-0.1c0.2-0.2,0.5-0.3,0.7-0.3l0.1-0.2
			c0.3-0.4,0.5-0.7,0.7-0.9c0.3-0.1,0.5-0.3,0.6-0.5l0.5-1l0-0.6l0.2-0.1v-0.5l-0.1-0.4l0.1-0.4l-0.2-0.1l0-0.1c0-0.1,0-0.2,0.1-0.3
			c0.1-0.1,0.1-0.2,0.2-0.3l0.1-0.1l0-0.2c0.1-0.1,0.2-0.1,0.3-0.1l0.6,0.6l0,0.3l0,0.3c0,0.1,0.1,0.2,0.2,0.5l-0.2,0.2l0.1,0.4
			l-0.1,0.3l0.2,0.2l-0.2,0v0.4l-0.1,0.5l0.1,0.7l0,0.5l0.1,0.2l-0.1,0.5L491.1,450.9z M477.1,451.9c0,0.1-0.1,0.3-0.3,0.4l0,0.1
			c0,0.1-0.1,0.3-0.3,0.5c-0.2,0.3-0.3,0.5-0.3,0.6l-0.3,0.1c0,0.4-0.2,0.6-0.5,0.6c0,0.1-0.1,0.2-0.1,0.2h-0.1
			c0,0.1-0.1,0.2-0.3,0.2l-0.2,0.3l-0.4,0.1l-0.3,0.2c0,0-0.1,0-0.2,0.1l-0.6,0.1l-0.2,0l-0.2,0l-0.1-0.1l-0.2,0l-0.3-0.4h-0.1
			c-0.1-0.1-0.1-0.2-0.1-0.3c-0.3-0.3-0.4-0.5-0.4-0.7v-0.2l-0.2-0.3v-0.2l0.1-0.1l-0.1-0.4l-0.2-0.5l0-0.7l-0.3-0.4v-0.7
			c-0.3-1.3-0.4-2.1-0.4-2.3V448c0-0.1-0.1-0.2-0.1-0.3c0-0.1,0-0.1,0-0.2c-0.2-0.3-0.3-0.5-0.3-0.7l-0.1-0.1l-0.6,0.6l-0.3,0.4
			l-0.9,1.1l-0.4,0.7c-0.1,0.3-0.2,0.5-0.3,0.6c-0.1,0.1-0.3,0.3-0.5,0.6l0.1,0.2l-0.2,0.5l-0.2,0v0.2h-0.1l-0.5,0.6
			c0,0.3-0.1,0.5-0.3,0.5c-0.1,0.1-0.1,0.3-0.2,0.5c-0.1,0.2-0.2,0.3-0.3,0.3l-0.1,0.1c-0.2,0.3-0.3,0.5-0.5,0.6
			c-0.1,0.1-0.3,0.3-0.6,0.5c-0.1,0.3-0.2,0.5-0.3,0.5l0,0.1c0,0.1,0,0.2-0.1,0.3c-0.1,0.1-0.3,0.2-0.6,0.3c-0.1,0-0.2-0.2-0.3-0.4
			c-0.1-0.3-0.2-0.4-0.3-0.5l-0.1-0.2l0.2-0.3l0-0.3l0.1-0.1l-0.1-0.2l0-0.3l-0.2-0.6l0.2-0.3l-0.1-0.4c0.1-0.2,0.2-0.6,0.2-1.1
			v-0.1c0,0-0.1-0.1-0.2-0.3c0.1-0.1,0.2-0.2,0.2-0.3l-0.1-0.4l0.2-1l-0.1-0.2l0-0.4l-0.1-0.2l0.1-0.8l-0.1-0.3l0.1-0.5l-0.1-0.7
			l0.2-0.3c0.3,0.1,0.5,0.2,0.5,0.2c0,0,0,0.1,0.1,0.2c0,0.1,0,0.3,0,0.6l0.2,0.3l-0.1,0.5l0.1,1.1l-0.2,0.6l0.1,0.7v0.3l-0.2,0.4
			l0.2,0.6c0,0.1-0.1,0.3-0.2,0.7l0.1,0.3c-0.1,0.5-0.2,0.8-0.2,1l0,0.9l0.1,0.1l0.3-0.2h0.3l0.1-0.6c0.2-0.1,0.3-0.2,0.4-0.3
			c0-0.2,0.2-0.3,0.4-0.3c0-0.2,0.1-0.3,0.2-0.4c0.1,0,0.1-0.1,0.2-0.4c0.2-0.2,0.3-0.4,0.4-0.6v-0.4h0c0.1,0,0.1-0.1,0.2-0.2
			c0.1-0.1,0.2-0.2,0.3-0.2c0.1-0.2,0.1-0.4,0.2-0.5l0.4-0.5l0.3-0.7c0-0.1-0.1-0.2-0.1-0.3c0-0.1,0-0.1,0.1-0.1
			c0.4-0.2,0.5-0.5,0.5-0.7v-0.3c0.3-0.1,0.4-0.2,0.4-0.3c0,0,0-0.1,0-0.1c0-0.1,0-0.1,0-0.1c0-0.1,0-0.1,0.1-0.1
			c0.1,0,0.1,0,0.2,0.1c0.1-0.5,0.3-0.7,0.6-0.7c0.1,0,0.1,0,0.2,0.1c0-0.2,0.1-0.5,0.2-0.6c0-0.1,0.2-0.2,0.6-0.4l0.1-0.2h0.1
			c0.1,0.2,0.3,0.3,0.4,0.4l0.1,0.2l0.1,0.1l0.1,0.5l0.3,0.2l-0.1,0.4l0.2,0.8v0.8l0.2,0.9l0.1,0.9l0.3,0.9l0,0.9
			c0,0,0.1,0.1,0.1,0.3c0.1,0.2,0.1,0.3,0.2,0.6l0.1,0.1v0.4l0.2,0.3l-0.1,0.2l0.2,0.1v0.1c0.2,0.1,0.3,0.2,0.4,0.2
			c0.1,0,0.3,0,0.4-0.1c0.1,0,0.1,0.1,0.1,0.1c0.1,0,0.2-0.1,0.2-0.2c0.2,0,0.4-0.1,0.4-0.2v-0.1c0-0.1,0.2-0.1,0.5-0.3
			c0.1-0.1,0.2-0.2,0.3-0.3l0-0.1c0,0,0.1-0.1,0.1-0.1c0-0.1,0.1-0.1,0.2-0.2c0.1-0.1,0.2-0.2,0.2-0.3l0.1-0.3
			c0.1-0.2,0.3-0.4,0.5-0.7l0.4-0.2h0.2L477.1,451.9z M457,446.2l-0.2-0.5l-0.4-0.1l-0.7-0.7c-0.1-0.1-0.2-0.1-0.3-0.1
			c0,0-0.1,0-0.2,0.1l-0.1-0.1h-0.4l-0.1-0.2l-0.3,0.1l-0.1-0.1l-0.2,0.1l-0.4-0.1c-0.2,0-0.5,0.1-0.9,0.3l0.1,0.1l-0.2,0.1
			l-0.1,0.1l-0.3,0v0.2c-0.2,0.1-0.4,0.4-0.6,0.8c-0.1,0.5-0.3,1-0.5,1.3l0.2,0.1l-0.3,0.3l0.1,0.2c-0.2,0.2-0.2,0.5-0.2,0.8v0.1
			l-0.2,0.3v0.4c-0.1,0.2-0.2,0.3-0.2,0.5l-0.1,0.1v0.5l-0.1,0.1c0,0.2,0,0.4-0.1,0.7l0.1,0.3c-0.1,0-0.2,0.1-0.4,0.3l0.1,0.2
			l-0.2,0.2l0.2,0.5l-0.2,0.3l0,0.6l-0.1,0.3l0.1,0.1l0.1,0.2c0.1,0.1,0.3,0.2,0.4,0.3l0.6-0.1c0.1-0.3,0.3-0.4,0.6-0.4l-0.1-0.2
			c0.3-0.1,0.4-0.1,0.4-0.1c0,0,0-0.1,0.1-0.1c0-0.1,0.1-0.2,0.2-0.3h0.1c0.1,0,0.1,0,0.1-0.1l0.5-0.6h-0.1l0.3-0.3
			c0.1-0.1,0.2-0.2,0.4-0.2l0.2-0.5c0.3-0.1,0.5-0.3,0.6-0.6h0.2l0.3-0.3l-0.1-0.2l0.2,0c0-0.1-0.1-0.1-0.1-0.1c0,0,0.1-0.1,0.2-0.3
			c0.1-0.2,0.2-0.3,0.3-0.4l0.1,0.1c0-0.2,0.1-0.4,0.3-0.5c0-0.1,0.1-0.2,0.2-0.3c0.1-0.1,0.2-0.1,0.2-0.1h0.2l0-0.3
			c0,0,0.1-0.1,0.1-0.1c0,0,0-0.1-0.1-0.2c0.2-0.3,0.3-0.4,0.4-0.5l0.1-0.3l0.2-0.1l-0.1-0.2c0.1-0.2,0.2-0.3,0.2-0.5l0.2-0.2
			L457,446.2z M458.3,455.6l-0.4,0.2l-0.1,0.2c-0.1,0-0.3,0.1-0.4,0.1l-0.1-0.1l-0.2,0.1l-0.4-0.5v-0.6l-0.2-0.2l0.1-0.8l-0.2-1.7
			l0.1-0.6l-0.2-0.3l0.2-0.1l-0.2-0.2l0-0.2l0.1-0.1l0-0.3h0.1V450l0.1-0.3c-0.1,0-0.1-0.1-0.2-0.2l-0.4,0.2
			c-0.1,0.2-0.2,0.4-0.3,0.4l0,0.3l-0.3,0.1l-0.1,0.4l-0.2,0.1v0.2c-0.2,0.1-0.3,0.3-0.4,0.5l-0.2,0.1l-0.4,0.7l-0.6,0.6l-0.2,0.3
			l-0.6,0.6l-0.1,0.3l-0.8,0.5l-0.8,1l-0.3,0.1c-0.1,0-0.2,0.1-0.4,0.3h-0.1c-0.1,0-0.3-0.1-0.3-0.4c-0.7-0.3-1-0.6-1-1.1l0.2-0.1
			c-0.1-0.3-0.2-0.7-0.2-1l-0.1-0.1l0.1-0.1c0-0.1,0.1-0.1,0.1-0.3c0-0.1,0-0.3,0.1-0.5l0.2-1c0,0,0-0.1,0-0.2c0-0.1,0-0.2,0.1-0.3
			c0-0.1-0.1-0.2-0.1-0.3c0-0.1,0-0.2,0.1-0.3l0.1,0c0.1-0.2,0.2-0.4,0.2-0.5c0-0.1,0-0.2-0.1-0.2c-0.1-0.1-0.1-0.1-0.1-0.1
			c0-0.1,0-0.1,0.1-0.1c-0.1,0-0.2-0.1-0.2-0.2c0-0.1,0.1-0.1,0.3-0.1v-0.1c0-0.2,0.1-0.4,0.2-0.5c0.1-0.2,0.2-0.3,0.2-0.3l-0.2-0.1
			l0.3-0.6v-0.1c0-0.4,0.1-0.7,0.4-1l0-0.5l0.1-0.1c-0.1-0.1-0.1-0.2-0.1-0.3c0,0,0.1-0.1,0.2-0.1v-0.4c0.1,0,0.1-0.1,0.1-0.1
			c0-0.1,0-0.1,0-0.1c0.1-0.1,0.2-0.2,0.4-0.4c0.2-0.2,0.3-0.4,0.4-0.5h0.1c0.2,0,0.3,0,0.3-0.1c0,0,0-0.1-0.1-0.1
			c0.4,0,0.5-0.1,0.6-0.2l0.5-0.2l1.4,0.1v0.1l1.1,0.2h0.1c0.2,0,0.2,0.1,0.2,0.2l0.1-0.1c0,0.2,0.1,0.2,0.3,0.2l0.1,0l0.2,0.2
			l0.6,0.1v0.2c0.2-0.2,0.6-0.3,1-0.4v0.4h-0.1l0.3,0.1l0,0.1l0.2,0.7l-0.2,0.3l-0.1,0.4c0,0.1-0.1,0.3-0.2,0.5l0.2,0.3
			c0,0-0.1,0.1-0.1,0.2c-0.1,0.1-0.1,0.3-0.1,0.6c0.1,0,0.1,0.1,0.1,0.1l-0.1,0.2l0,0.2l-0.1,0.3l0.1,0.2l-0.2,0.2l0.1,0.6l-0.1,0.1
			l0.1,0.1l-0.1,0.1c0,0,0,0.1,0,0.1c0,0.1,0,0.2-0.1,0.2l0.1,0.2l-0.1,0.2c-0.1,0-0.1,0.2-0.1,0.4l0.1,0.3l-0.2,0.3
			c0.1,0.2,0.2,0.3,0.2,0.3c-0.1,0.2-0.2,0.5-0.3,1l0.2,0.1l0,0.1c0,0,0,0.1,0,0.2c0,0.1-0.1,0.3-0.2,0.5h0.2l0.1,0.4l0.5,0l0.2,0.3
			c-0.1,0-0.1,0.1-0.1,0.1c0,0.1,0.1,0.2,0.3,0.3h0c0,0,0,0,0,0C458.1,455.4,458.2,455.5,458.3,455.6z M445.4,452.3l0-0.2l0-0.2
			l-0.1-0.5l0.1-0.3l-0.2-0.3l0-0.3l-0.2-0.4l-0.1-0.3l-0.5-0.8l-0.3-0.2l-0.2-0.6l-0.3-0.1l-0.4-0.5v-0.1l-0.3-0.1l-0.3,0l-0.3-0.5
			l-0.2,0.1l-0.1-0.2l-0.4-0.1h-0.3l-0.1-0.1l-0.2,0.1l-0.1-0.2l-0.2,0l-0.1-0.2l-0.2,0.1l-0.8-0.1c-0.2,0.1-0.2,0.2-0.2,0.3
			c0,0,0,0.1,0,0.1c0,0.1,0,0.2,0,0.4l-0.1,0.6l0.2,0.6l0.2,0.2l-0.2,0.5l0,0.4l-0.2,1l0.1,0.2l-0.1,0.3l0.2,0.3l-0.1,0.1l0,0.3
			l0.2,0.1l-0.2,0.2l0.2,0.3l-0.3,0.3l0.1,0.5l0,0.4l0.1,0.5l1-0.1l0,0.2c0.1-0.1,0.2-0.2,0.2-0.2c0,0,0.1,0.1,0.3,0.3
			c0.1,0,0.1,0,0.2-0.1c0.1,0,0.1,0,0.2,0c0.1,0,0.2,0,0.4,0.1c0.1-0.1,0.1-0.2,0.2-0.2c0,0,0.1,0,0.1,0.1h0.4l0.3,0.1l0.4-0.2
			l0,0.1c0.6-0.1,1-0.2,1.1-0.3h0.1c0.1,0,0.2-0.1,0.2-0.2l0.2,0.1l0-0.3l0.2-0.1l0.1-0.3l-0.1-0.3l0.2-0.2l-0.1-0.2L445.4,452.3z
			 M446.1,453.2l-0.2,0.3l0.2,0.1c-0.1,0.2-0.2,0.3-0.3,0.4l-0.1,0.3l-0.3,0l-0.1,0.2c0,0.1-0.2,0.2-0.4,0.3l-0.2,0
			c-0.1,0.1-0.3,0.2-0.7,0.2l-0.2-0.1l0,0.2l-0.6-0.3c0,0-0.1,0.1-0.3,0.2l-0.1-0.1l-0.8-0.1l-0.5,0.1l-0.2-0.2l-0.6,0.1l-0.3-0.2
			c-0.2,0.1-0.3,0.1-0.4,0.1c-0.1,0-0.3,0-0.4-0.1c-0.1,0.1-0.1,0.2-0.1,0.3c0,0,0,0.1,0.1,0.2c0,0.1,0,0.2,0,0.3
			c0,0.1,0,0.3-0.1,0.5l0.1,0.3l-0.2,0.3c0.1,0.4,0.1,0.7,0.1,1l-0.1,0.7l0.1,0.9l-0.2,0.3l0.2,0.5l-0.2,0.6l0.2,0.1v0.3
			c-0.1,0-0.2,0.1-0.2,0.3c0,0,0,0.1,0.1,0.3l0.1,0c-0.2,0.2-0.2,0.4-0.2,0.5l-0.1,2.1c0,0.3-0.1,0.4-0.2,0.4c0,0-0.2,0-0.4-0.1
			l0-0.5l-0.1-1.1l0.2-0.4l0.1-0.8l-0.2-0.9c0.1-0.1,0.2-0.2,0.2-0.3c0-0.1-0.1-0.2-0.2-0.6l0.2-0.3l-0.2-0.6l0.2-0.4l-0.1-0.5
			l0.2-0.2c-0.2-0.1-0.4-0.2-0.4-0.4c0-0.1,0.1-0.4,0.2-1l-0.2-0.3l0.1-0.4l-0.1-0.1l0.1-0.2l-0.1-1l0.2-1.3l-0.2-0.3l0.4-0.2
			l-0.2-0.1l-0.2-0.3l-0.2-0.1l0.1-0.1l0,0.1l0.1-0.1l-0.1-0.1l0.3,0.1l-0.1-0.2l0.1,0v-0.1c-0.1-0.1-0.2-0.1-0.2-0.2
			c0-0.1,0-0.2,0.1-0.3l-0.1-0.3c-0.1,0-0.2-0.1-0.2-0.1c0,0,0-0.1,0.1-0.1h0.1V451h0.2l-0.2-0.2l0.1-0.3v-0.3l0-0.2l-0.1-0.4
			l0.1-0.5l-0.1-0.4l0.1-0.5l-0.1-0.2l0-0.4l0-0.3l0-0.4c-0.1-0.1-0.2-0.3-0.2-0.6h-0.2l-0.2-0.1l-0.4,0.3v-0.1l-0.2,0.1h-0.4
			l-0.1,0.2l-0.3,0l-0.2,0.2l-0.3-0.1l-0.2,0.4l-0.3-0.2l-0.1,0.2c-0.4-0.2-0.5-0.4-0.5-0.6c0-0.1,0-0.1,0.1-0.2
			c0.1-0.1,0.1-0.1,0.1-0.2c0,0,0-0.1-0.1-0.3c0.3-0.2,0.6-0.2,0.9-0.2l0.1,0l0.2-0.2c0.1-0.1,0.3-0.2,0.7-0.4l0.1,0.1l0.2-0.3
			l0.6,0l0.4-0.1l0.1,0.1l0.1-0.6h0.2c0.2,0.4,0.4,0.6,0.6,0.7l0.1-0.2l0.2,0.1l0.1-0.1c0.3,0,0.5,0.1,0.8,0.2
			c0.2,0.1,0.4,0.2,0.6,0.2c0.2,0,0.3,0.1,0.4,0.2l0.2-0.1l0,0.2l0.4,0.2l0-0.1l0.2,0.1l0.2,0.3c0.1,0.1,0.2,0.2,0.3,0.2l0.4,0.3
			l0.1,0.1l0.3,0.1v0.1c0.2,0.1,0.3,0.3,0.4,0.5l0.3,0.2l0.2,0.5h0.1v0.2l0.2,0.2c0,0,0.1,0.2,0.1,0.4l0.2,0.1
			c0,0.3,0.1,0.6,0.3,0.7v0.3l0.2,0.3l0,0.3c0,0,0,0.1,0.1,0.3c0.1,0.2,0.1,0.4,0.1,0.6l-0.1,0.1l0.1,0.2v0.2l0.1,0l-0.2,0.5
			L446.1,453.2z M435.4,453.6l-0.1,0.2l-0.2,0.1c0,0.2-0.1,0.3-0.2,0.4c-0.1,0.1-0.2,0.2-0.2,0.2v0.1l-0.1,0.1
			c-0.1,0.1-0.1,0.2-0.3,0.3c-0.1,0.1-0.2,0.1-0.3,0.1l-0.2,0l0,0.3c-0.1,0.1-0.2,0.2-0.2,0.2c0,0-0.1,0-0.3-0.1
			c-0.2,0.1-0.4,0.2-0.6,0.2c-0.1,0-0.4,0-0.9-0.1c-0.1-0.1-0.1-0.1-0.2-0.1c-0.1,0-0.1,0-0.2,0.1c0-0.1-0.2-0.2-0.4-0.4l0.1-0.2
			c-0.2-0.1-0.3-0.3-0.3-0.5l0-0.2l-0.3-0.2l-0.2-0.8l-0.2-0.4v-0.2l-0.2-0.8l0-0.3l-0.2-0.9l0-0.4l0.1-0.8l-0.1-1l-0.3,0.4l-0.6,1
			l-0.2,0.6c-0.3,0.2-0.6,0.5-0.7,0.8c-0.2,0-0.3,0.2-0.3,0.6c-0.1,0.1-0.2,0.2-0.3,0.4c-0.1,0.1-0.1,0.2-0.2,0.3
			c0,0.1-0.1,0.1-0.1,0.1v0.1c-0.3,0.3-0.5,0.6-0.6,0.9c0,0-0.1,0.2-0.3,0.4c-0.1,0.2-0.4,0.5-0.7,0.9c-0.2,0.1-0.3,0.2-0.4,0.5
			c-0.1,0.2-0.2,0.3-0.3,0.3c-0.1,0-0.2,0.1-0.2,0.3v0.1c-0.1,0-0.4,0.1-0.8,0.3c-0.2,0-0.3-0.1-0.3-0.3l-0.1-0.4l-0.2-0.3v-0.3
			l-0.2-0.9c0-0.1,0-0.1,0-0.2c0-0.1,0-0.2-0.1-0.3l0.1-0.9l-0.1-0.2l0.1-0.4l-0.1-0.2v-0.2l-0.1-0.2l0.2-0.4l-0.1-0.8l0-0.2l0.1-1
			l-0.2-0.6l0.1-0.5l-0.1-0.4c-0.2-0.4-0.3-0.7-0.3-0.8c0-0.1-0.1-0.2-0.2-0.2c0,0-0.1,0-0.1,0c-0.1,0-0.3,0.1-0.7,0.4l-0.4,0.5
			l-0.3,0.3l-0.7,1l-0.1,0.3l-0.4,0.5l-0.2,0.5c-0.1,0.1-0.2,0.2-0.2,0.5c-0.1,0.2-0.1,0.3-0.2,0.3c-0.1,0-0.2,0.1-0.3,0.2l0,0.5
			c-0.1,0.1-0.2,0.3-0.2,0.4c-0.1,0.2-0.2,0.3-0.3,0.4c-0.1,0.1-0.2,0.3-0.2,0.5c-0.2,0-0.3,0.1-0.3,0.4c-0.1,0.2-0.1,0.3-0.3,0.3
			c-0.1,0.2-0.1,0.3-0.1,0.4v0.1c-0.2,0.2-0.3,0.3-0.3,0.3c0,0.1,0,0.1,0.1,0.2c-0.2,0.1-0.3,0.3-0.5,0.5c-0.1,0.2-0.2,0.4-0.3,0.4
			v0.1c0,0.1,0,0.2-0.1,0.3c-0.1,0.1-0.2,0.2-0.4,0.3c-0.2,0.2-0.3,0.3-0.4,0.3c-0.1,0-0.2-0.2-0.3-0.6c0,0,0-0.1,0-0.2
			c0-0.1-0.1-0.3-0.2-0.3v-0.4c0-0.1,0-0.3,0.1-0.4l-0.1-0.6l0-0.4l0-0.5v-0.1c0-0.2,0-0.3,0.1-0.4l0-0.2c0-0.1,0-0.2,0-0.4
			c0-0.2,0-0.3,0-0.3v-0.4c0-0.2,0.1-0.3,0.2-0.4l-0.2-0.3c0.1-0.1,0.1-0.1,0.1-0.2c0-0.1,0-0.1,0-0.1c0-0.1,0-0.2,0.1-0.3
			c0.1-0.1,0.1-0.3,0.2-0.5l-0.2-0.5l0.1-0.3l-0.2-0.9l0.1-0.4l-0.2-0.7l0-0.5l-0.2-0.4c0.2-0.4,0.4-0.6,0.5-0.6l0.1,0.1l0.1,0.4
			c0.2,0.1,0.3,0.2,0.3,0.4l-0.1,0.6c0,0.1,0.1,0.2,0.2,0.2c-0.2,0.2-0.2,0.4-0.2,0.6v0.1l0.1,1.3l-0.1,1l-0.1,0.3l0.1,0.3l-0.1,0.1
			l0.1,0.2c-0.1,0.1-0.2,0.2-0.2,0.3l0.1,0.2c0,0.1-0.1,0.2-0.2,0.3l0.1,0.7l-0.1,0.3c-0.1,0.2-0.1,0.3-0.1,0.5c0,0.1,0,0.2,0,0.3
			c0,0.1,0,0.2-0.1,0.2c0.1,0.2,0.1,0.3,0.1,0.3c0,0.1,0,0.2-0.1,0.3l0.3,0.2l0.5-0.7l0.1-0.4c0.1,0,0.2-0.1,0.2-0.2
			c0.1-0.1,0.1-0.2,0.1-0.3c0-0.1,0.1-0.3,0.3-0.5c0,0,0.1,0,0.2-0.1c0.1-0.1,0.2-0.2,0.3-0.4c0.1-0.2,0.2-0.3,0.4-0.5
			c0-0.1,0.1-0.2,0.1-0.3c0.1-0.1,0.1-0.2,0.2-0.2c0.1-0.1,0.1-0.2,0.2-0.5l0.3-0.5l0-0.2c0-0.1,0.1-0.2,0.3-0.3l0.5-0.5
			c0.1,0,0.2-0.2,0.3-0.5c0.1-0.3,0.3-0.5,0.5-0.7c0.2-0.2,0.3-0.3,0.3-0.4c0.2,0,0.2-0.1,0.2-0.2c0.2-0.1,0.3-0.2,0.3-0.4l0.1,0
			c0.1,0,0.2-0.2,0.3-0.5c0.3-0.2,0.4-0.4,0.6-0.4c0,0,0.2,0.1,0.6,0.2c0,0.1,0,0.1,0,0.2c0,0,0,0.1,0,0.2l0.2,0.1
			c0,0.1,0.1,0.3,0.4,0.7v0.4l0.2,0.3v0.3c0.2,0.4,0.3,0.8,0.3,1l-0.1,0.4l0.1,0.4l-0.2,0.3l0.1,0.8c-0.1,0.2-0.1,0.4-0.1,0.6
			l0.1,0.7l-0.1,0.2l0.1,0.3l-0.1,0.1c0.1,0.6,0.2,1,0.2,1.4l-0.1,0.2l-0.1,0.1c0.1,0.2,0.2,0.4,0.2,0.6l0.4,0.1l1.2-1.5
			c0.1,0,0.1-0.2,0.2-0.4c0.1-0.2,0.2-0.4,0.3-0.6c0.1,0,0.2-0.1,0.2-0.4c0-0.2,0.1-0.4,0.3-0.4c0-0.1,0-0.2,0.1-0.3
			c0-0.1,0.2-0.2,0.4-0.3v-0.1c0-0.2,0.2-0.5,0.5-0.8c0.1-0.3,0.2-0.5,0.3-0.7c0.2-0.2,0.4-0.4,0.5-0.6l0.3-0.5
			c0.1-0.2,0.2-0.4,0.2-0.6c0.3-0.1,0.5-0.4,0.7-1c0.2-0.1,0.3-0.2,0.4-0.6l0.4-0.2l0.4,0.2l-0.1,0.1l0.2,0.2
			c-0.1,0.1-0.2,0.1-0.2,0.2c0,0.1,0,0.1,0.1,0.2l-0.2,0.3l-0.2,1.2c0.1,0,0.1,0.1,0.2,0.2c-0.1,0.2-0.2,0.5-0.2,0.9l0,0.5l-0.1,0.2
			l0.1,0.3c0,0-0.1,0.1-0.1,0.1c0,0-0.1,0.1-0.1,0.1c0,0.1,0,0.1,0.1,0.2c0.1,0,0.2,0.1,0.2,0.3c0,0,0,0.1-0.1,0.2c0,0,0,0.1,0,0.1
			c0,0,0,0.1-0.1,0.2c0,0.3,0.1,0.7,0.2,1.1c0.1,0.2,0.1,0.5,0.2,0.9l0.3,0.2l0.1,0.6c0.2,0.1,0.3,0.2,0.4,0.3l0.3,0.1l0.4,0.1
			c0.1,0,0.2,0.1,0.3,0.1c0.1,0,0.2,0,0.4-0.1c0.2-0.1,0.3-0.1,0.4-0.2c0.1-0.1,0.3-0.2,0.5-0.3c0.1-0.2,0.3-0.4,0.4-0.6l0.3-0.2
			l0.2-0.3l0.4,0C435.3,453.5,435.3,453.6,435.4,453.6z M411.2,450.3c0.1-0.1,0.2-0.2,0.2-0.3c0-0.1,0-0.1-0.1-0.2
			c-0.1-0.1-0.1-0.1-0.1-0.1h0.2c0-0.1-0.1-0.2-0.2-0.3l0.1-0.1l-0.2-0.4l0.1-0.6l-0.2-0.4c-0.2-0.1-0.3-0.2-0.3-0.3v-0.1
			c0-0.1,0-0.1-0.1-0.1c-0.1,0-0.1-0.1-0.1-0.1v0c0,0,0-0.1,0.1-0.3l-0.2-0.1l-0.3,0l-0.1-0.2l0.1-0.2l-0.3-0.2l-0.3-0.2l-0.7-0.3
			l-0.3-0.1c-0.5,0-0.8,0.1-0.7,0.4l0,0.9l-0.5,0l-0.8,0.5l-0.1,0.3l-0.3,0.2l-0.1,0.8l-0.3,0.2c-0.1,0-0.1,0.1-0.1,0.4
			c0,0.2,0,0.4,0.1,0.5l-0.3,0.2c-0.1,0-0.1,0.2-0.1,0.5c0,0.1-0.1,0.3-0.2,0.4v0.3l-0.2,0.4v0.2l-0.1,0.2l0.1,0.4l-0.3,0.8l0.1,0.3
			v0.6l-0.1,0.4l0,0.6l0.4,0.5c0,0.1,0.2,0.2,0.5,0.3l0.1,0.1l0.2,0l0.2,0l0.3-0.1l0.6,0l0.3-0.1l0.1-0.2l0.3,0
			c0.3,0,0.4-0.1,0.4-0.3l0.4,0.1l0.1-0.2l0.2,0l0.1-0.3c0.2-0.1,0.3-0.3,0.3-0.4h0.4l0.1-0.3l0.4-0.4l0.2-0.2
			c0.1-0.1,0.1-0.2,0.2-0.2l0.4-0.2c0-0.2,0.1-0.5,0.2-0.7l-0.1-0.2l0.4-0.2l-0.1-0.1c0.1-0.1,0.2-0.3,0.3-0.4h-0.1
			c0.1-0.1,0.1-0.2,0.1-0.2c0,0,0-0.1,0-0.2c0-0.1,0-0.1,0-0.2c0-0.1,0-0.2,0.1-0.4c0.1-0.1,0.1-0.2,0.1-0.2
			C411.3,450.4,411.2,450.4,411.2,450.3z M412,449.6l-0.2,0.6l0.1,0.2l-0.1,0.6c0,0.1-0.1,0.2-0.2,0.4v0.3l-0.2,0.5l-0.2,0.2
			c0,0.1-0.1,0.3-0.3,0.7l-0.2,0.1l-0.1,0.3l-0.3,0.2l-0.2,0.5l-0.4,0.2l0,0.3l-0.3,0.1c-0.2,0.2-0.3,0.4-0.3,0.4
			c0,0.1-0.2,0.1-0.3,0.2c-0.2,0.1-0.3,0.1-0.4,0.2c0,0.3-0.3,0.4-0.7,0.5c-0.1,0.1-0.2,0.2-0.4,0.2c0,0-0.1,0-0.2-0.1
			c-0.2,0.2-0.5,0.3-0.7,0.4l-0.2,0.3l-0.3-0.2l-0.1,0.2l-0.4-0.2l-0.9-0.1c-0.2-0.3-0.4-0.6-0.7-0.9l0.1-0.3l-0.4-1l0.2-0.3
			l-0.2-0.7l0.2-0.4c0,0,0-0.2,0-0.3c0-0.2,0-0.3,0-0.4c0-0.2,0.1-0.3,0.3-0.4v-0.1c0-0.2,0.1-0.4,0.2-0.6h0.2
			c0.1-0.1,0.2-0.3,0.2-0.5l-0.1-0.2l0.1-0.4v-0.3c0.2-0.2,0.2-0.4,0.2-0.6l-0.1-0.4c0-0.1,0-0.2,0.1-0.3c0.3-0.1,0.4-0.3,0.4-0.4
			c0-0.1,0-0.2-0.1-0.3l0.3-0.4c0-0.1,0.1-0.1,0.2-0.2c0.1,0,0.1-0.1,0.1-0.1l-0.1-0.3c0.3,0,0.4-0.2,0.4-0.4c0-0.2,0-0.3-0.1-0.5
			c0.6,0,1-0.3,1.2-0.9h0.2c0.1-0.1,0.2-0.2,0.3-0.2c0,0,0.1,0,0.2,0.1c0.1,0,0.3,0.1,0.6,0.1l0.4-0.2v0.2c0.2,0,0.4,0.1,0.7,0.3
			h0.4c0.1,0.2,0.2,0.3,0.2,0.3l0.1,0c0.2,0.3,0.4,0.5,0.6,0.7l0.1,0.3l0.2,0.1l0.4,0.6l0.4,1.2v0.2L412,449.6z M402.3,451.2
			l-0.5,0.3l0.1,0.4c0,0.2-0.2,0.3-0.7,0.3l-0.2,0.6l-0.9,0.6c-0.2,0.2-0.3,0.5-0.5,0.6c-0.3,0-0.5,0.1-0.8,0.3
			c-0.3,0.2-0.5,0.3-0.5,0.4c-0.1,0.1-0.2,0.1-0.3,0.2c-0.1,0.1-0.2,0.1-0.3,0.1c-0.1,0-0.3,0.1-0.5,0.2c-0.2,0.1-0.3,0.2-0.4,0.2
			c0,0-0.1,0-0.2,0h-0.2c-0.3,0-0.7,0.2-1.3,0.6l-0.4-0.1l-0.3,0.1c-0.2,0.1-0.4,0.1-0.5,0.1c-0.1,0-0.2,0-0.4-0.1
			c-0.1,0-0.2-0.1-0.3-0.1h-0.1c-0.1,0.1-0.2,0.1-0.3,0.1c-0.1,0-0.2-0.1-0.3-0.2l-0.4-0.1c-0.1,0-0.2,0-0.3,0.1l-0.4-0.1l-0.2,0.1
			l-0.5-0.2l-0.2-0.2c-0.1-0.1-0.3-0.1-0.6-0.2l-0.1-0.3c-0.4-0.1-0.6-0.2-0.7-0.2c0,0-0.1-0.1-0.1-0.3c0-0.2-0.1-0.3-0.2-0.4
			c-0.1-0.1-0.2-0.1-0.2-0.2c-0.1-0.1-0.1-0.2-0.2-0.4c-0.1-0.2-0.1-0.3-0.2-0.4c-0.1-0.2-0.2-0.3-0.3-0.5c-0.1-0.2-0.1-0.3-0.1-0.5
			v-0.1l0.1-0.8c-0.1-0.2-0.2-0.4-0.2-0.6l0.2-0.4v-0.5l0.2-0.1l0.1-0.4l0.3-1.2l0.2-0.6l0.1,0l0.1-0.4c0.1,0,0.1-0.2,0.2-0.5
			c0-0.3,0.1-0.5,0.3-0.7c0.2-0.2,0.3-0.3,0.3-0.4c0-0.1,0-0.3-0.1-0.3l0.3-0.1c0.2-0.2,0.3-0.4,0.5-0.6l0.1-0.6l0.3-0.2l0.1-0.4
			c0.4-0.1,0.6-0.2,0.8-0.5c0.1-0.2,0.3-0.4,0.5-0.4l0.2-0.2c0,0,0.2-0.1,0.5-0.2l0.1,0l0.3-0.3l0.2,0.2l0.3,0
			c0.3-0.1,0.5-0.2,0.8-0.2l0.5,0.1c0,0,0.1,0,0.2,0.1l0.8,0.3l1.8,1.2c0.1,0.2,0.2,0.4,0.4,0.6l0.2,0.5c0.2,0.4,0.2,0.7,0.2,0.8
			l0,0.6c0,0.2-0.1,0.4-0.1,0.6c0,0,0,0,0,0.1c0,0-0.1,0.1-0.2,0.3c-0.1,0.1-0.2,0.2-0.3,0.3l-0.5,0.1l-0.2-0.1
			c-0.1-0.1-0.1-0.1-0.1-0.1l-0.1-0.1c0,0-0.1-0.1-0.1-0.2c0-0.1,0-0.2-0.1-0.3V446l-0.1-0.5v-0.6l0.1-0.5c-0.3-0.6-0.7-0.9-1.2-1
			c-0.1,0-0.2-0.1-0.2-0.1v0c0,0,0-0.1-0.1-0.1c-0.1,0-0.1-0.1-0.1-0.1h-0.6l-0.4-0.3c-0.3,0-0.4,0-0.4,0.2l-0.2-0.2l-0.3,0.2
			l-0.3-0.1l-0.3,0.2c-0.1,0-0.2,0-0.3,0c-0.1,0-0.3,0-0.4,0.1l-0.4,0.6l-0.7,0.7l-0.6,0.8l-0.2,0.1l-0.2,0.7l-0.4,0.3v0.4l-0.5,0.8
			l-0.2,0.9h-0.2l0.1,0.5l-0.3,0.5l0.1,0.2H389v0.4l-0.1,0.1l0,1l-0.1,0.8c0.2,0.3,0.3,0.5,0.3,0.7l0.2,0.2v0.3l0.2,0.3l-0.1,0.3
			l0.5,0.5l0,0.3l0.8,0.3l-0.1,0.3l1.1,0.1l0.3,0.3l0.6-0.2l0.3,0.3l0.6-0.2c0.1-0.1,0.3-0.2,0.3-0.2c0.1,0,0.1,0,0.1,0.1l0.4,0
			l0.2,0.2l0.4-0.2h0.1c0.3,0,0.5-0.1,0.6-0.2c0.1-0.1,0.3-0.2,0.5-0.2c0.1,0,0.2,0,0.4,0.1c0-0.2,0.2-0.3,0.6-0.3
			c0.1-0.2,0.3-0.3,0.7-0.4c0.1,0,0.4-0.1,0.8-0.3l0.2-0.3c0.1,0,0.3-0.1,0.7-0.3l0.3-0.4l0.4-0.2l1.4-1.5l0.5-0.3L402.3,451.2z
			 M376.1,446.2l-0.2-0.5l-0.4-0.1l-0.7-0.7c-0.1-0.1-0.2-0.1-0.3-0.1c0,0-0.1,0-0.2,0.1l-0.1-0.1h-0.4l-0.1-0.2l-0.3,0.1l-0.1-0.1
			l-0.2,0.1l-0.4-0.1c-0.2,0-0.5,0.1-0.9,0.3l0.1,0.1l-0.2,0.1l-0.1,0.1l-0.3,0v0.2c-0.2,0.1-0.4,0.4-0.6,0.8
			c-0.1,0.5-0.3,1-0.5,1.3l0.2,0.1l-0.3,0.3l0.1,0.2c-0.2,0.2-0.2,0.5-0.2,0.8v0.1l-0.2,0.3v0.4c-0.1,0.2-0.2,0.3-0.2,0.5l-0.1,0.1
			v0.5l-0.1,0.1c0,0.2,0,0.4-0.1,0.7l0.1,0.3c-0.1,0-0.2,0.1-0.4,0.3l0.1,0.2l-0.2,0.2l0.2,0.5l-0.2,0.3l0,0.6l-0.1,0.3l0.1,0.1
			l0.1,0.2c0.1,0.1,0.3,0.2,0.4,0.3l0.6-0.1c0.1-0.3,0.3-0.4,0.6-0.4l-0.1-0.2c0.3-0.1,0.4-0.1,0.4-0.1c0,0,0-0.1,0.1-0.1
			c0-0.1,0.1-0.2,0.2-0.3h0.1c0.1,0,0.1,0,0.1-0.1l0.5-0.6h-0.1l0.3-0.3c0.1-0.1,0.2-0.2,0.4-0.2l0.2-0.5c0.3-0.1,0.5-0.3,0.6-0.6
			h0.2l0.3-0.3l-0.1-0.2l0.2,0c0-0.1-0.1-0.1-0.1-0.1c0,0,0.1-0.1,0.2-0.3c0.1-0.2,0.2-0.3,0.3-0.4l0.1,0.1c0-0.2,0.1-0.4,0.3-0.5
			c0-0.1,0.1-0.2,0.2-0.3c0.1-0.1,0.2-0.1,0.2-0.1h0.2l0-0.3c0,0,0.1-0.1,0.1-0.1c0,0,0-0.1-0.1-0.2c0.2-0.3,0.3-0.4,0.4-0.5
			l0.1-0.3l0.2-0.1l-0.1-0.2c0.1-0.2,0.2-0.3,0.2-0.5l0.2-0.2L376.1,446.2z M377.4,455.6l-0.4,0.2L377,456c-0.1,0-0.3,0.1-0.4,0.1
			l-0.1-0.1l-0.2,0.1l-0.4-0.5v-0.6l-0.2-0.2l0.1-0.8l-0.2-1.7l0.1-0.6l-0.2-0.3l0.2-0.1l-0.2-0.2l0-0.2l0.1-0.1l0-0.3h0.1V450
			l0-0.3c-0.1,0-0.1-0.1-0.2-0.2l-0.4,0.2c-0.1,0.2-0.2,0.4-0.3,0.4l0,0.3l-0.3,0.1l-0.1,0.4l-0.2,0.1v0.2c-0.2,0.1-0.3,0.3-0.4,0.5
			l-0.2,0.1l-0.4,0.7l-0.6,0.6l-0.2,0.3l-0.6,0.6l-0.1,0.3l-0.8,0.5l-0.8,1L370,456c-0.1,0-0.2,0.1-0.4,0.3h-0.1
			c-0.1,0-0.3-0.1-0.3-0.4c-0.7-0.3-1-0.6-1-1.1l0.2-0.1c-0.1-0.3-0.2-0.7-0.2-1l-0.1-0.1l0.1-0.1c0-0.1,0.1-0.1,0.1-0.3
			c0-0.1,0-0.3,0.1-0.5l0.2-1c0,0,0-0.1,0-0.2c0-0.1,0-0.2,0.1-0.3c0-0.1-0.1-0.2-0.1-0.3c0-0.1,0-0.2,0.1-0.3l0.1,0
			c0.1-0.2,0.2-0.4,0.2-0.5c0-0.1,0-0.2-0.1-0.2c-0.1-0.1-0.1-0.1-0.1-0.1c0-0.1,0-0.1,0.1-0.1c-0.1,0-0.2-0.1-0.2-0.2
			c0-0.1,0.1-0.1,0.3-0.1v-0.1c0-0.2,0.1-0.4,0.2-0.5c0.1-0.2,0.2-0.3,0.2-0.3l-0.2-0.1l0.3-0.6v-0.1c0-0.4,0.1-0.7,0.4-1l0-0.5
			l0.1-0.1c-0.1-0.1-0.1-0.2-0.1-0.3c0,0,0.1-0.1,0.2-0.1v-0.4c0.1,0,0.1-0.1,0.1-0.1c0-0.1,0-0.1,0-0.1c0.1-0.1,0.2-0.2,0.4-0.4
			c0.2-0.2,0.3-0.4,0.4-0.5h0.1c0.2,0,0.3,0,0.3-0.1c0,0,0-0.1-0.1-0.1c0.4,0,0.5-0.1,0.6-0.2l0.5-0.2l1.4,0.1v0.1l1.1,0.2h0.1
			c0.2,0,0.2,0.1,0.2,0.2l0.1-0.1c0,0.2,0.1,0.2,0.3,0.2l0.1,0l0.2,0.2l0.6,0.1v0.2c0.3-0.2,0.6-0.3,1-0.4v0.4H377l0.3,0.1l0,0.1
			l0.2,0.7l-0.2,0.3l-0.1,0.4c0,0.1-0.1,0.3-0.2,0.5l0.2,0.3c0,0-0.1,0.1-0.1,0.2c-0.1,0.1-0.1,0.3-0.1,0.6c0.1,0,0.1,0.1,0.1,0.1
			l-0.1,0.2l0,0.2l-0.1,0.3l0.1,0.2l-0.2,0.2l0.1,0.6l-0.1,0.1l0.1,0.1l-0.1,0.1c0,0,0,0.1,0,0.1c0,0.1,0,0.2-0.1,0.2l0.1,0.2
			l-0.1,0.2c-0.1,0-0.1,0.2-0.1,0.4l0.1,0.3l-0.2,0.3c0.1,0.2,0.2,0.3,0.2,0.3c-0.1,0.2-0.2,0.5-0.3,1l0.2,0.1l0,0.1
			c0,0,0,0.1,0,0.2c0,0.1-0.1,0.3-0.2,0.5h0.2l0.1,0.4l0.5,0l0.2,0.3c-0.1,0-0.1,0.1-0.1,0.1c0,0.1,0.1,0.2,0.3,0.3h0c0,0,0,0,0,0
			C377.2,455.4,377.3,455.5,377.4,455.6z M367.2,445.6l-0.1,0.3l-0.8,0.1l-0.5,0.4l-0.3,0.1l-0.4,0.3l-0.4,0.2
			c-0.2,0.2-0.4,0.3-0.5,0.3v0.1l-0.4,0.2l-0.3,0.4h-0.3l-0.1,0.4l-0.3,0.2c-0.1,0.1-0.2,0.2-0.3,0.3l-0.3,0.5
			c-0.2,0.1-0.3,0.3-0.3,0.7l-0.1-0.1l0,0.2l-0.2,0.1l-0.2,0.4c-0.2,0.3-0.3,0.5-0.3,0.6l-0.2,0.1v0.6c0,0.1-0.1,0.2-0.1,0.3
			l0.1,0.1l-0.3,0.1l0.1,0.2c0,0.2-0.2,0.5-0.4,0.9l0.1,0.3l-0.3,0.4c0,0.2,0,0.3,0,0.4l0,0.4l0.1,0.5c0,0,0,0.1,0.1,0.2l0.2,0.2
			c-0.1,0.2-0.2,0.4-0.3,0.5l-0.3-0.1l0.1,0.2l-0.6-0.1v-0.3l-0.1-0.2l0.1-0.4l-0.1-0.2l0.1-0.9l-0.1-0.6c-0.1,0-0.2-0.1-0.2-0.2
			c0-0.1,0.1-0.2,0.2-0.3v-0.4c0-0.2,0-0.4,0-0.4l0.1-0.1l-0.1-0.5l0.1-0.4l-0.1-0.2l0.1-0.7l-0.1-0.2l0.1-0.2l-0.2-0.5l0.1-0.4
			c0-0.1,0-0.3-0.1-0.5l0.1-0.1l-0.2-0.9l-0.2-0.1l0.2-0.4c-0.2-0.2-0.3-0.5-0.3-0.9v-0.4c-0.1-0.1-0.1-0.2-0.2-0.2
			c0.1-0.2,0.3-0.3,0.7-0.4l0.2,0.1c0,0.2,0.1,0.4,0.3,0.6l-0.1,0.7l0.3,2c0,0.1-0.1,0.2-0.2,0.3l0.1,0.6l-0.1,0.4l0.1,0.4l-0.1,0.3
			l0.2,0.4l-0.1,0.1l0.1,0.6l0.2,0l0.1-0.5c0-0.1,0.1-0.2,0.3-0.5c0.2-0.2,0.3-0.4,0.3-0.7v-0.2l0.2-0.1c0,0,0,0,0.1-0.1
			c0-0.1,0-0.1,0.1-0.1h0.1l0.2-0.5l0.4-0.3l0-0.2h0.2l-0.1-0.3l0.4-0.2l0-0.3l0.4-0.1c0.2-0.2,0.3-0.3,0.4-0.5l0.2-0.1
			c0-0.1,0.2-0.2,0.5-0.5c0.1,0,0.1,0,0.1-0.1l0.4-0.2l0.1-0.2l0.2-0.1c0.5-0.3,0.8-0.5,0.9-0.5h0.1c0.2,0,0.3,0,0.4-0.1l0.2,0.1
			c0.1-0.1,0.2-0.1,0.3-0.1C367,445.5,367.2,445.5,367.2,445.6z M353.7,447.5c0.1,0,0.2-0.1,0.3-0.3l0.1-0.3
			c0.2-0.4,0.3-0.6,0.4-0.7c0-0.1,0.1-0.2,0.1-0.4c0-0.1-0.1-0.4-0.2-0.8l-0.5-0.2c-0.1,0-0.2,0.1-0.3,0.1l-0.2-0.1
			c-0.1,0-0.2,0.1-0.3,0.2c-0.2,0-0.4,0.1-0.7,0.2l-0.1,0.2c0,0-0.1,0-0.1,0c0,0-0.1,0-0.1,0c0,0,0,0-0.1,0c0,0,0,0,0,0.1
			c0,0,0,0,0,0.1c0,0,0,0.1,0,0.1c0,0,0,0.1,0,0.1c0,0-0.1,0.1-0.2,0.2l-0.2,0.2l-0.4,0.7l-0.2,0.2c-0.1,0.1-0.1,0.2-0.1,0.3
			c0,0.2-0.3,0.6-0.7,1.2l0.2,0.1l0.1,0.2l0.4,0.1c0.2-0.2,0.5-0.3,0.8-0.3l0.1-0.2c0.1,0,0.2,0.1,0.2,0.1c0.1,0,0.2-0.1,0.2-0.2
			l0.3-0.1l0.2-0.3h0.2l0.1-0.3c0.2,0,0.5-0.1,0.7-0.3V447.5z M355.9,453.5c0.1,0.2,0.2,0.3,0.2,0.4c0,0.1-0.1,0.2-0.2,0.4
			c-0.2,0.2-0.3,0.5-0.4,0.7l-0.2,0l-0.3,0.6l-0.3,0.1l-0.7,0.5l-0.1,0.3l-0.2,0l-0.2,0.3H353l-0.1,0.1l-0.2,0
			c-0.2,0-0.4,0.1-0.5,0.3l-0.2-0.1c-0.2,0.1-0.3,0.1-0.4,0.1c-0.2,0-0.4,0-0.5-0.1c-0.1,0-0.2,0-0.3,0l-0.2-0.1
			c-0.5,0-0.8-0.2-0.9-0.4v-0.3l-0.4-0.2l-0.1-0.3c0-0.1-0.1-0.2-0.3-0.3v-0.2l-0.3-1.2l0-0.9l0.1-0.5v-0.6l0.1-0.5l-0.1-0.3
			c0.1-0.1,0.2-0.2,0.2-0.3c0-0.1,0.1-0.2,0.2-0.4c0-0.2-0.1-0.4-0.1-0.7l0.2-0.2l-0.2-0.3c0.1-0.2,0.2-0.3,0.2-0.4l-0.1-0.8
			c0-0.2,0-0.4,0.1-0.6c0.1,0.2,0.2,0.2,0.3,0.2c0.1,0,0.2,0,0.5-0.1c0-0.1,0-0.1,0-0.2c0-0.1,0.1-0.2,0.2-0.3
			c0.1-0.4,0.3-0.8,0.6-1.2c0.2-0.1,0.2-0.3,0.2-0.5h0.1l0.1-0.3l0.2-0.1c0-0.1,0.1-0.2,0.3-0.4c0.2-0.1,0.4-0.3,0.7-0.6
			c0,0,0.1,0,0.2,0c0,0,0.1-0.1,0.2-0.3c0.3-0.1,0.5-0.2,0.5-0.2c0.1,0,0.2,0.1,0.2,0.2l0.2-0.1l0.1,0.1h0.2
			c0.1,0.3,0.3,0.4,0.5,0.4h0.1c0,0.1,0.1,0.2,0.2,0.3l-0.1,0.1c0.3,0.1,0.5,0.5,0.5,1l-0.1,0.3l0.1,0.7l-0.1,0.1l-0.3,0.8l-0.5,0.7
			l0,0.4c-0.6,0.5-1.1,0.9-1.5,1.1c0,0.1-0.1,0.2-0.2,0.2c0,0-0.1,0-0.2-0.1l-0.6,0.4h-0.4l-0.5,0.2l-0.2-0.1
			c-0.1,0-0.2-0.1-0.5-0.1c-0.3,0.2-0.4,0.6-0.4,1l-0.2,0.2c0,0.3-0.1,0.6-0.1,0.7l-0.1,0.1l0.1,1l-0.1,0.1l0,0.3l0,0.4
			c0,0.1,0,0.2,0.1,0.5c0,0.3,0.1,0.4,0.2,0.5c0,0.1,0,0.3,0.3,0.4c0.2,0.2,0.4,0.3,0.7,0.4v0.2l0.7,0.1l1,0.1l0.7-0.1
			c0.3-0.2,0.5-0.3,0.6-0.3l0.2-0.3h0.2l0-0.1c0.4-0.1,0.6-0.2,0.6-0.3c0,0,0.1-0.1,0.1-0.1c0.1-0.1,0.1-0.2,0.2-0.2l0.1-0.2
			c0.4-0.1,0.6-0.3,0.7-0.8C355.6,453.5,355.7,453.5,355.9,453.5z M345.3,452.3l0-0.2l0-0.2l-0.1-0.5l0.1-0.3l-0.2-0.3l0-0.3
			l-0.2-0.4l-0.1-0.3l-0.5-0.8l-0.3-0.2l-0.2-0.6l-0.3-0.1l-0.4-0.5v-0.1l-0.3-0.1l-0.3,0l-0.3-0.5l-0.2,0.1l-0.1-0.2l-0.4-0.1h-0.3
			l-0.1-0.1l-0.2,0.1l-0.1-0.2l-0.2,0l-0.1-0.2l-0.2,0.1l-0.8-0.1c-0.2,0.1-0.2,0.2-0.2,0.3c0,0,0,0.1,0,0.1c0,0.1,0,0.2,0,0.4
			l-0.1,0.6l0.2,0.6l0.2,0.2l-0.2,0.5l0,0.4l-0.2,1l0.1,0.2l-0.1,0.3l0.2,0.3l-0.1,0.1l0,0.3l0.2,0.1l-0.2,0.2l0.2,0.3l-0.3,0.3
			l0.1,0.5l0,0.4l0.1,0.5l1-0.1l0,0.2c0.1-0.1,0.2-0.2,0.2-0.2c0,0,0.1,0.1,0.3,0.3c0.1,0,0.1,0,0.2-0.1c0.1,0,0.1,0,0.2,0
			c0.1,0,0.2,0,0.4,0.1c0.1-0.1,0.1-0.2,0.2-0.2c0,0,0.1,0,0.1,0.1h0.4l0.3,0.1l0.4-0.2l0,0.1c0.6-0.1,1-0.2,1.1-0.3h0.1
			c0.1,0,0.2-0.1,0.2-0.2l0.2,0.1l0-0.3l0.2-0.1l0.1-0.3l-0.1-0.3l0.2-0.2l-0.1-0.2L345.3,452.3z M346,453.2l-0.2,0.3l0.2,0.1
			c-0.1,0.2-0.2,0.3-0.3,0.4l-0.1,0.3l-0.3,0l-0.1,0.2c0,0.1-0.2,0.2-0.4,0.3l-0.2,0c-0.1,0.1-0.3,0.2-0.7,0.2l-0.2-0.1l0,0.2
			l-0.6-0.3c0,0-0.1,0.1-0.3,0.2l-0.1-0.1l-0.8-0.1l-0.5,0.1l-0.2-0.2l-0.6,0.1l-0.3-0.2c-0.2,0.1-0.3,0.1-0.4,0.1
			c-0.1,0-0.3,0-0.4-0.1c-0.1,0.1-0.1,0.2-0.1,0.3c0,0,0,0.1,0.1,0.2c0,0.1,0,0.2,0,0.3c0,0.1,0,0.3-0.1,0.5l0.1,0.3l-0.2,0.3
			c0.1,0.4,0.1,0.7,0.1,1l-0.1,0.7l0.1,0.9l-0.2,0.3l0.2,0.5l-0.2,0.6l0.2,0.1v0.3c-0.1,0-0.2,0.1-0.2,0.3c0,0,0,0.1,0.1,0.3l0.1,0
			c-0.2,0.2-0.2,0.4-0.2,0.5l-0.1,2.1c0,0.3-0.1,0.4-0.2,0.4c0,0-0.2,0-0.4-0.1l0-0.5l-0.1-1.1l0.2-0.4l0.1-0.8l-0.2-0.9
			c0.1-0.1,0.2-0.2,0.2-0.3c0-0.1-0.1-0.2-0.2-0.6l0.2-0.3l-0.2-0.6l0.2-0.4l-0.1-0.5l0.2-0.2c-0.2-0.1-0.4-0.2-0.4-0.4
			c0-0.1,0.1-0.4,0.2-1l-0.2-0.3l0.1-0.4l-0.1-0.1l0.1-0.2l-0.1-1l0.2-1.3l-0.2-0.3l0.4-0.2l-0.2-0.1l-0.2-0.3l-0.2-0.1l0.1-0.1
			l0,0.1l0.1-0.1l-0.1-0.1l0.3,0.1l-0.1-0.2l0.1,0v-0.1c-0.1-0.1-0.2-0.1-0.2-0.2c0-0.1,0-0.2,0.1-0.3l-0.1-0.3
			c-0.1,0-0.2-0.1-0.2-0.1c0,0,0-0.1,0.1-0.1h0.1V451h0.2l-0.2-0.2l0.1-0.3v-0.3l0-0.2l-0.1-0.4l0.1-0.5l-0.1-0.4l0.1-0.5l-0.1-0.2
			l0-0.4l0-0.3l0-0.4c-0.1-0.1-0.2-0.3-0.2-0.6h-0.2l-0.2-0.1l-0.4,0.3v-0.1l-0.2,0.1h-0.4l-0.1,0.2l-0.3,0l-0.2,0.2l-0.3-0.1
			l-0.2,0.4l-0.3-0.2l-0.1,0.2c-0.4-0.2-0.5-0.4-0.5-0.6c0-0.1,0-0.1,0.1-0.2c0.1-0.1,0.1-0.1,0.1-0.2c0,0,0-0.1-0.1-0.3
			c0.3-0.2,0.6-0.2,0.9-0.2l0.1,0l0.2-0.2c0.1-0.1,0.3-0.2,0.7-0.4l0.1,0.1l0.2-0.3l0.6,0l0.4-0.1l0.1,0.1l0.1-0.6h0.2
			c0.2,0.4,0.4,0.6,0.6,0.7l0.1-0.2l0.2,0.1l0.1-0.1c0.3,0,0.5,0.1,0.8,0.2c0.2,0.1,0.4,0.2,0.6,0.2c0.2,0,0.3,0.1,0.4,0.2l0.2-0.1
			l0,0.2l0.4,0.2l0-0.1l0.2,0.1l0.2,0.3c0.1,0.1,0.2,0.2,0.3,0.2l0.4,0.3l0.1,0.1l0.3,0.1v0.1c0.2,0.1,0.3,0.3,0.4,0.5l0.3,0.2
			l0.2,0.5h0.1v0.2l0.2,0.2c0,0,0.1,0.2,0.1,0.4l0.2,0.1c0,0.3,0.1,0.6,0.3,0.7v0.3l0.2,0.3l0,0.3c0,0,0,0.1,0.1,0.3
			c0.1,0.2,0.1,0.4,0.1,0.6l-0.1,0.1l0.1,0.2v0.2l0.1,0l-0.2,0.5L346,453.2z M333.7,448.1l-0.2-0.6l0-0.2c0-0.1,0-0.2-0.1-0.3
			c0-0.1-0.2-0.2-0.5-0.4l-0.2-0.5l-0.2-0.1l-0.1-0.3l-0.7-0.8l-0.7-0.6l-0.2,0.1l-0.9-0.6c-0.1-0.1-0.3-0.1-0.5-0.1
			c-0.3,0-0.5-0.1-0.6-0.2c0,0,0,0-0.1,0c0,0-0.2,0-0.4-0.1l-0.1,0.1l-0.4-0.1l-0.3,0.1c-0.2-0.1-0.4-0.1-0.5-0.1
			c-0.1,0-0.1,0-0.2,0.1c-0.1,0-0.2,0.1-0.2,0.1c-0.1,0-0.1,0-0.2-0.1c-0.2,0.1-0.3,0.2-0.4,0.3c-0.1,0.1-0.3,0.2-0.5,0.3l-0.4-0.1
			l-0.4,0.2l-0.4-0.1l-0.2,0.1c-0.1,0-0.1,0.1-0.1,0.1c0,0-0.1,0.1-0.2,0.1c-0.1,0.1-0.1,0.1-0.2,0.2c-0.1,0.1-0.2,0.1-0.3,0.2
			c-0.1,0.1-0.2,0.2-0.4,0.2c-0.1,0-0.2,0.2-0.3,0.5l0,0.4l-0.5,0.2c0,0-0.2,0.1-0.3,0.3c-0.1,0.3-0.3,0.5-0.5,0.7v0.3
			c-0.2,0.1-0.3,0.2-0.4,0.3l-0.2,0.8l-0.4,0.3c-0.1,1.1-0.1,1.7-0.3,1.9c-0.1,0.2-0.2,0.3-0.3,0.5c0,0.1-0.1,0.3-0.1,0.5
			c0,0.2-0.1,0.4-0.2,0.7l0.2,0.3l0.1,0.5l0.2,0.3c0,0.1,0.1,0.1,0.1,0.2l0.1,0.3c0.3,0.4,0.7,0.6,1.2,0.8c0.5,0.2,0.8,0.2,0.9,0.2
			l0.8-0.2l0.2,0.2h0.4v0.2h0.4l0.1-0.3l0.4-0.1l1.1,0.1c0.1-0.2,0.2-0.3,0.3-0.3l0.1,0c0.4-0.3,0.7-0.4,0.8-0.4h0.1l0.5-0.3
			c0.1,0,0.3-0.1,0.6-0.1l0.3-0.3c0.6,0,1-0.1,1.1-0.1c0.1-0.1,0.2-0.1,0.2-0.2c0.1-0.1,0.2-0.1,0.5-0.2l0.2-0.5l0.1,0l0.1-0.2
			c0.2-0.1,0.4-0.2,0.5-0.3l0.2,0.1l0.1-0.3l0.4-0.3l0.7-0.8l0.4-0.2l0.2-0.4l0.3-0.2l-0.1-0.5l0.2-0.4l-0.1-0.8L333.7,448.1z
			 M334.6,448.8l-0.2,0.6l-0.1,0.8l-0.2,0.2l-0.3,0.8c0,0.1-0.1,0.2-0.1,0.2c0,0.1-0.1,0.1-0.2,0.1l-0.3,0.1l-1.6,1.2l-0.4,0.2
			c-0.1,0.1-0.3,0.2-0.5,0.4v-0.2l-1.1,0.8l-0.5,0.2l-1.1,0.6c-0.2-0.1-0.3-0.1-0.5-0.1c-0.1,0-0.2,0-0.3,0.1
			c-0.1,0.1-0.1,0.1-0.2,0.2l-0.2,0l-0.4,0.4l-0.2-0.1l-0.1,0.1h-0.4l-0.2,0.2l-0.8-0.1l-1.3,0.2c0,0-0.1,0-0.2,0l-0.4,0.1l-0.5-0.1
			l-0.1-0.1l-1.1-0.2l-0.5-0.3h-0.2v-0.5l-0.4,0.1l-0.2-0.3c-0.1-0.1-0.2-0.2-0.3-0.2l-0.4-0.2c-0.1-0.4-0.2-0.8-0.2-1.3l-0.1-0.2
			l-0.1-1.1l0.4-1.1l-0.1-0.6l0.2-0.2l-0.2-0.4l0.4-0.4v-0.4l0.2-0.3v-0.3l0.2-0.3l-0.1-0.1l0.1-0.1l0.6-1.3l1-1.6
			c0.2-0.1,0.3-0.1,0.3-0.3c0.1-0.1,0.3-0.3,0.6-0.5l-0.1-0.2h0.3l-0.1-0.2c0.2-0.2,0.5-0.4,0.8-0.5l0.2-0.2h0c0,0,0.2,0,0.5-0.1
			l1.2-0.2l0.8,0.1l0.6,0h0.7c0.2,0,0.3,0.1,0.4,0.1c0.2,0,0.4-0.1,0.6-0.2c0.1,0.1,0.2,0.1,0.3,0.1c0.1,0,0.1,0,0.1,0
			c0,0.2,0.1,0.3,0.3,0.3c0.1,0.1,0.3,0.1,0.6,0.2l0.2,0.2l0.4,0.1h0.5l0.7,0.4h-0.2l0.5,0.3c0.1,0,0.1,0.2,0.3,0.4l0.4,0.2l0.2,0.3
			l0.4,0.2l0.9,1.5c0.1,0.1,0.2,0.3,0.3,0.7l0.3,0.9c0.1,0.2,0.1,0.4,0.1,0.4V448.8z M306.9,446.2l-0.2-0.5l-0.4-0.1l-0.7-0.7
			c-0.1-0.1-0.2-0.1-0.3-0.1c0,0-0.1,0-0.2,0.1l-0.1-0.1h-0.4l-0.1-0.2l-0.3,0.1l-0.1-0.1l-0.2,0.1l-0.4-0.1c-0.2,0-0.5,0.1-0.9,0.3
			l0.1,0.1l-0.2,0.1l-0.1,0.1l-0.3,0v0.2c-0.2,0.1-0.4,0.4-0.6,0.8c-0.1,0.5-0.3,1-0.5,1.3l0.2,0.1l-0.3,0.3l0.1,0.2
			c-0.2,0.2-0.2,0.5-0.2,0.8v0.1l-0.2,0.3v0.4c-0.1,0.2-0.2,0.3-0.2,0.5l-0.1,0.1v0.5L300,451c0,0.2,0,0.4-0.1,0.7l0.1,0.3
			c-0.1,0-0.2,0.1-0.4,0.3l0.1,0.2l-0.2,0.2l0.2,0.5l-0.2,0.3l0,0.6l-0.1,0.3l0.1,0.1l0.1,0.2c0.1,0.1,0.3,0.2,0.4,0.3l0.6-0.1
			c0.1-0.3,0.3-0.4,0.6-0.4l-0.1-0.2c0.3-0.1,0.4-0.1,0.4-0.1c0,0,0-0.1,0.1-0.1c0-0.1,0.1-0.2,0.2-0.3h0.1c0.1,0,0.1,0,0.1-0.1
			l0.5-0.6h-0.1l0.3-0.3c0.1-0.1,0.2-0.2,0.4-0.2l0.2-0.5c0.3-0.1,0.5-0.3,0.6-0.6h0.2l0.3-0.3l-0.1-0.2l0.2,0
			c0-0.1-0.1-0.1-0.1-0.1c0,0,0.1-0.1,0.2-0.3c0.1-0.2,0.2-0.3,0.3-0.4l0.1,0.1c0-0.2,0.1-0.4,0.3-0.5c0-0.1,0.1-0.2,0.2-0.3
			c0.1-0.1,0.2-0.1,0.2-0.1h0.2l0-0.3c0,0,0.1-0.1,0.1-0.1c0,0,0-0.1-0.1-0.2c0.2-0.3,0.3-0.4,0.4-0.5l0.1-0.3l0.2-0.1l-0.1-0.2
			c0.1-0.2,0.2-0.3,0.2-0.5l0.2-0.2L306.9,446.2z M308.3,455.6l-0.4,0.2l-0.1,0.2c-0.1,0-0.3,0.1-0.4,0.1l-0.1-0.1l-0.2,0.1
			l-0.4-0.5v-0.6l-0.2-0.2l0.1-0.8l-0.2-1.7l0.1-0.6l-0.2-0.3l0.2-0.1l-0.2-0.2l0-0.2l0.1-0.1l0-0.3h0.1V450l0.1-0.3
			c-0.1,0-0.2-0.1-0.2-0.2l-0.4,0.2c-0.1,0.2-0.2,0.4-0.3,0.4l0,0.3l-0.3,0.1l-0.1,0.4l-0.2,0.1v0.2c-0.2,0.1-0.3,0.3-0.4,0.5
			l-0.2,0.1l-0.4,0.7l-0.6,0.6l-0.2,0.3l-0.6,0.6l-0.1,0.3l-0.8,0.5l-0.8,1l-0.3,0.1c-0.1,0-0.2,0.1-0.4,0.3h-0.1
			c-0.1,0-0.3-0.1-0.3-0.4c-0.7-0.3-1-0.6-1-1.1l0.2-0.1c-0.1-0.3-0.2-0.7-0.2-1l-0.1-0.1l0.1-0.1c0-0.1,0.1-0.1,0.1-0.3
			c0-0.1,0-0.3,0.1-0.5l0.2-1c0,0,0-0.1,0-0.2c0-0.1,0-0.2,0.1-0.3c0-0.1-0.1-0.2-0.1-0.3c0-0.1,0-0.2,0.1-0.3l0.1,0
			c0.1-0.2,0.2-0.4,0.2-0.5c0-0.1,0-0.2-0.1-0.2c-0.1-0.1-0.1-0.1-0.1-0.1c0-0.1,0-0.1,0.1-0.1c-0.1,0-0.2-0.1-0.2-0.2
			c0-0.1,0.1-0.1,0.3-0.1v-0.1c0-0.2,0.1-0.4,0.2-0.5c0.1-0.2,0.2-0.3,0.2-0.3l-0.2-0.1l0.3-0.6v-0.1c0-0.4,0.1-0.7,0.4-1l0-0.5
			l0.1-0.1c-0.1-0.1-0.1-0.2-0.1-0.3c0,0,0.1-0.1,0.2-0.1v-0.4c0.1,0,0.1-0.1,0.1-0.1c0-0.1,0-0.1,0-0.1c0.1-0.1,0.2-0.2,0.4-0.4
			c0.2-0.2,0.3-0.4,0.4-0.5h0.1c0.2,0,0.3,0,0.3-0.1c0,0,0-0.1-0.1-0.1c0.4,0,0.5-0.1,0.6-0.2l0.5-0.2l1.4,0.1v0.1l1.1,0.2h0.1
			c0.2,0,0.2,0.1,0.2,0.2l0.1-0.1c0,0.2,0.1,0.2,0.3,0.2l0.1,0l0.2,0.2l0.6,0.1v0.2c0.3-0.2,0.6-0.3,1-0.4v0.4h-0.1l0.3,0.1l0,0.1
			l0.2,0.7L308,446l-0.1,0.4c0,0.1-0.1,0.3-0.2,0.5l0.2,0.3c0,0-0.1,0.1-0.1,0.2c-0.1,0.1-0.1,0.3-0.1,0.6c0.1,0,0.1,0.1,0.1,0.1
			l-0.1,0.2l0,0.2l-0.1,0.3l0.1,0.2l-0.2,0.2l0.1,0.6l-0.1,0.1l0.1,0.1l-0.1,0.1c0,0,0,0.1,0,0.1c0,0.1,0,0.2-0.1,0.2l0.1,0.2
			l-0.1,0.2c-0.1,0-0.1,0.2-0.1,0.4l0.1,0.3l-0.2,0.3c0.1,0.2,0.2,0.3,0.2,0.3c-0.1,0.2-0.2,0.5-0.3,1l0.2,0.1l0,0.1
			c0,0,0,0.1,0,0.2c0,0.1-0.1,0.3-0.2,0.5h0.2l0.1,0.4l0.5,0l0.2,0.3c-0.1,0-0.1,0.1-0.1,0.1c0,0.1,0.1,0.2,0.3,0.3h0c0,0,0,0,0,0
			C308.1,455.4,308.1,455.5,308.3,455.6z M297.2,452.4l0,0.3l-0.2,0.2l-0.1,0.3l-0.4,0.1c-0.1,0.3-0.2,0.6-0.4,0.7l-0.3,0.1
			l-0.3,0.3c-0.1,0-0.2,0.2-0.5,0.5h-0.2c-0.1,0.2-0.3,0.3-0.6,0.3c-0.2,0.2-0.3,0.4-0.3,0.4c-0.1,0.1-0.3,0.1-0.5,0.2
			c-0.2,0-0.3,0.1-0.4,0.1l-0.1,0.2h-0.4l-0.2,0.2l-0.7-0.5l-0.4-0.8l-0.1-1.4l-0.1-0.3l0.3-2.2l0.2-0.1l-0.1-1.3
			c0-0.2,0-0.3,0.1-0.5c0-0.1,0.1-0.3,0.1-0.6l0.1-0.1c0-0.2-0.1-0.5-0.2-0.7l0.1-0.3v-0.5l0.1-0.2c0-0.1,0-0.3-0.1-0.4
			c0-0.2-0.1-0.2-0.1-0.3c0-0.1,0-0.2,0.1-0.2c0,0,0,0,0,0c-0.1-0.3-0.2-0.5-0.2-0.5c0-0.1,0.1-0.2,0.2-0.2c0,0,0.1,0,0.2,0.1
			c0.1,0,0.1,0.1,0.2,0.1c0,0,0.1,0,0.1-0.1c0-0.1,0.1-0.2,0.2-0.2c0.1,0,0.2,0,0.2,0.1c0,0,0,0.2,0.1,0.5l0.3,0.1l-0.2,0.3
			l-0.3,1.7l0.2,0.4c0,0.2-0.1,0.4-0.2,0.5l-0.1,0.3l0.1,0.3l-0.3,1.1l0,0.1l-0.1,0.9v0.6l-0.2,0.4l0.1,0.4l-0.1,0.6
			c0,0.5,0.1,0.9,0.2,1.2l0,0.1l0.2,0.2l0.3-0.1l0.3,0.1l0.4-0.2c0.1-0.1,0.2-0.1,0.4-0.2l0.2-0.2l0.1,0.1l0.2-0.2l0.3-0.1
			c0.2-0.2,0.4-0.3,0.7-0.3c0.1-0.1,0.2-0.2,0.4-0.2l0.2-0.2l0.3,0l-0.1-0.3h0.1l0.1-0.1l0.6-0.3l0.1-0.3l0.5,0
			C297.1,452.3,297.2,452.3,297.2,452.4z M294.6,439.2c-0.1,0.2-0.2,0.3-0.5,0.4v0.2l-0.2,0.3c-0.1,0.1-0.1,0.2-0.2,0.2
			c0,0-0.1,0-0.1-0.1l-0.7,0.8l-0.2,0.3l-0.6,0.2l-0.3,0.5l-0.3,0.1c-0.1,0-0.3,0.2-0.6,0.5l-0.2-0.1l0-0.3l0.6-0.3
			c0.1-0.4,0.2-0.7,0.3-0.7c0.1-0.1,0.2-0.1,0.2-0.1v-0.1l0.1-0.1l0.1,0l0.1-0.2h0.1l-0.1-0.2h0.4v-0.4l0.2,0l0.1-0.2l0.2-0.1
			l0.2-0.3c0.1,0,0.1-0.1,0.2-0.2h0.2l0-0.3c0.2-0.2,0.3-0.3,0.3-0.5C294.3,438.6,294.5,438.8,294.6,439.2z M288.9,452.7
			c0.1,0.1,0.2,0.2,0.2,0.2c0,0.2-0.1,0.3-0.2,0.4c-0.2,0.3-0.4,0.5-0.6,0.5c0,0.1-0.3,0.4-0.9,0.9c-0.2,0-0.3,0.1-0.3,0.1
			c-0.1,0.1-0.2,0.2-0.4,0.3c-0.2,0-0.4,0.1-0.5,0.3l-0.3,0.1l-0.1-0.1l-0.1,0.2h-0.1c-0.1,0-0.3,0.1-0.6,0.2
			c-0.2,0.1-0.4,0.2-0.4,0.2l-0.3,0.1h-0.2l-0.2-0.2l-0.2-0.2c-0.1-0.3-0.2-0.5-0.4-0.7l-0.1-0.6l0-0.3l-0.1-0.2l0-0.8l0-0.7l0-0.3
			c0-0.1,0.1-0.1,0.1-0.2c0-0.1-0.1-0.3-0.2-0.5c0.1-0.7,0.1-1.1,0.1-1.2c0-0.2-0.1-0.3-0.2-0.5l0.2-0.1l0.1-1l-0.1-0.4l0.2-0.5
			l-0.1-0.5c0.1-0.2,0.2-0.4,0.2-0.7v-0.9l0.1-0.2l0-1.3l0.1-1.3c-0.1-0.3-0.2-0.6-0.1-1l0.1-0.8l-0.1-0.3l0.1-1.2
			c0.1,0,0.2-0.1,0.3-0.1c0.1,0,0.2-0.1,0.2-0.1c0,0,0.1,0,0.1,0.1l0.1,0.4l0.3,0.2l-0.2,0.3v0.1c0,0.1,0,0.2,0.1,0.3
			c0,0.3-0.1,0.4-0.2,0.4l0.1,0.1c0,0.5,0.1,0.9,0.1,1.1l-0.2,0.7l0.2,0.2c-0.2,0.3-0.3,0.7-0.3,1c0,0.2,0.1,0.3,0.2,0.3l-0.2,0.5
			c0.1,0.2,0.1,0.3,0.1,0.3c0,0.1,0,0.2-0.1,0.3l0,0.3l-0.1,0.8l0,0.4c0,0.1-0.1,0.4-0.2,0.8l0.1,0.6l-0.1,1L284,450l0.2,0.3
			l-0.1,0.5l-0.1,0.8l0.1,0.2l-0.1,0.1c0.1,0.1,0.2,0.3,0.2,0.6c0,0,0,0.2-0.1,0.3l0.1,0.3l-0.1,0.4l0.1,0.3l-0.1,0.2l0.3,0.9
			l0.3,0.1c0.3-0.2,0.5-0.2,0.6-0.2l0.2,0l0.4-0.3c0,0,0.1-0.1,0.3-0.1c0.1-0.2,0.2-0.2,0.5-0.3l0.1-0.1l0.2,0l0.1-0.1l0.3-0.1
			l0.2-0.2l0.3-0.1c0,0,0.1-0.1,0.3-0.2c0.1-0.1,0.3-0.3,0.4-0.3c0-0.1,0.1-0.1,0.2-0.2c0,0,0.1,0.1,0.1,0.1
			C288.7,452.8,288.8,452.7,288.9,452.7z M277.9,446.2l-0.2-0.5l-0.4-0.1l-0.7-0.7c-0.1-0.1-0.2-0.1-0.3-0.1c0,0-0.1,0-0.2,0.1
			l-0.1-0.1h-0.4l-0.1-0.2l-0.3,0.1l-0.1-0.1l-0.2,0.1l-0.4-0.1c-0.2,0-0.5,0.1-0.9,0.3l0.1,0.1l-0.2,0.1l-0.1,0.1l-0.3,0v0.2
			c-0.2,0.1-0.4,0.4-0.6,0.8c-0.1,0.5-0.3,1-0.5,1.3l0.2,0.1l-0.3,0.3l0.1,0.2c-0.2,0.2-0.2,0.5-0.2,0.8v0.1l-0.2,0.3v0.4
			c-0.1,0.2-0.2,0.3-0.2,0.5l-0.1,0.1v0.5L271,451c0,0.2,0,0.4-0.1,0.7l0.1,0.3c-0.1,0-0.2,0.1-0.4,0.3l0.1,0.2l-0.2,0.2l0.2,0.5
			l-0.2,0.3l0,0.6l-0.1,0.3l0.1,0.1l0.1,0.2c0.1,0.1,0.3,0.2,0.4,0.3l0.6-0.1c0.1-0.3,0.3-0.4,0.6-0.4l-0.1-0.2
			c0.3-0.1,0.4-0.1,0.4-0.1c0,0,0-0.1,0.1-0.1c0-0.1,0.1-0.2,0.2-0.3h0.1c0.1,0,0.1,0,0.1-0.1l0.5-0.6h-0.1l0.3-0.3
			c0.1-0.1,0.2-0.2,0.4-0.2l0.2-0.5c0.3-0.1,0.5-0.3,0.6-0.6h0.2l0.3-0.3l-0.1-0.2l0.2,0c0-0.1-0.1-0.1-0.1-0.1c0,0,0.1-0.1,0.2-0.3
			c0.1-0.2,0.2-0.3,0.3-0.4l0.1,0.1c0-0.2,0.1-0.4,0.3-0.5c0-0.1,0.1-0.2,0.2-0.3c0.1-0.1,0.2-0.1,0.2-0.1h0.2l0-0.3
			c0,0,0.1-0.1,0.1-0.1c0,0,0-0.1-0.1-0.2c0.2-0.3,0.3-0.4,0.4-0.5l0.1-0.3l0.2-0.1l-0.1-0.2c0.1-0.2,0.2-0.3,0.2-0.5l0.2-0.2
			L277.9,446.2z M279.3,455.6l-0.4,0.2l-0.1,0.2c-0.1,0-0.3,0.1-0.4,0.1l-0.1-0.1l-0.2,0.1l-0.4-0.5v-0.6l-0.2-0.2l0.1-0.8l-0.2-1.7
			l0.1-0.6l-0.2-0.3l0.2-0.1l-0.2-0.2l0-0.2l0.1-0.1l0-0.3h0.1V450l0.1-0.3c-0.1,0-0.1-0.1-0.2-0.2l-0.4,0.2
			c-0.1,0.2-0.2,0.4-0.3,0.4l0,0.3l-0.3,0.1l-0.1,0.4l-0.2,0.1v0.2c-0.2,0.1-0.3,0.3-0.4,0.5l-0.2,0.1l-0.4,0.7l-0.6,0.6l-0.2,0.3
			l-0.6,0.6l-0.1,0.3l-0.8,0.5l-0.8,1l-0.3,0.1c-0.1,0-0.2,0.1-0.4,0.3h-0.1c-0.1,0-0.3-0.1-0.3-0.4c-0.7-0.3-1-0.6-1-1.1l0.2-0.1
			c-0.1-0.3-0.2-0.7-0.2-1l-0.1-0.1l0.1-0.1c0-0.1,0.1-0.1,0.1-0.3c0-0.1,0-0.3,0.1-0.5l0.2-1c0,0,0-0.1,0-0.2c0-0.1,0-0.2,0.1-0.3
			c0-0.1-0.1-0.2-0.1-0.3c0-0.1,0-0.2,0.1-0.3l0.1,0c0.1-0.2,0.2-0.4,0.2-0.5c0-0.1,0-0.2-0.1-0.2c-0.1-0.1-0.1-0.1-0.1-0.1
			c0-0.1,0-0.1,0.1-0.1c-0.1,0-0.2-0.1-0.2-0.2c0-0.1,0.1-0.1,0.3-0.1v-0.1c0-0.2,0.1-0.4,0.2-0.5c0.1-0.2,0.2-0.3,0.2-0.3l-0.2-0.1
			l0.3-0.6v-0.1c0-0.4,0.1-0.7,0.4-1l0-0.5l0.1-0.1c-0.1-0.1-0.1-0.2-0.1-0.3c0,0,0.1-0.1,0.2-0.1v-0.4c0.1,0,0.1-0.1,0.1-0.1
			c0-0.1,0-0.1,0-0.1c0.1-0.1,0.2-0.2,0.4-0.4c0.2-0.2,0.3-0.4,0.4-0.5h0.1c0.2,0,0.3,0,0.3-0.1c0,0,0-0.1-0.1-0.1
			c0.4,0,0.5-0.1,0.6-0.2l0.5-0.2l1.4,0.1v0.1l1.1,0.2h0.1c0.2,0,0.2,0.1,0.2,0.2l0.1-0.1c0,0.2,0.1,0.2,0.3,0.2l0.1,0l0.2,0.2
			l0.6,0.1v0.2c0.3-0.2,0.6-0.3,1-0.4v0.4h-0.1l0.3,0.1l0,0.1l0.2,0.7L279,446l-0.1,0.4c0,0.1-0.1,0.3-0.2,0.5l0.2,0.3
			c0,0-0.1,0.1-0.1,0.2c-0.1,0.1-0.1,0.3-0.1,0.6c0.1,0,0.1,0.1,0.1,0.1l-0.1,0.2l0,0.2l-0.1,0.3l0.1,0.2l-0.2,0.2l0.1,0.6l-0.1,0.1
			l0.1,0.1l-0.1,0.1c0,0,0,0.1,0,0.1c0,0.1,0,0.2-0.1,0.2l0.1,0.2l-0.1,0.2c-0.1,0-0.1,0.2-0.1,0.4l0.1,0.3L278,452
			c0.1,0.2,0.2,0.3,0.2,0.3c-0.1,0.2-0.2,0.5-0.3,1l0.2,0.1l0,0.1c0,0,0,0.1,0,0.2c0,0.1-0.1,0.3-0.2,0.5h0.2l0.1,0.4l0.5,0l0.2,0.3
			c-0.1,0-0.1,0.1-0.1,0.1c0,0.1,0.1,0.2,0.3,0.3h0c0,0,0,0,0,0C279,455.4,279.1,455.5,279.3,455.6z M267.3,453.8l-0.2,0.2
			c0,0.1-0.2,0.3-0.3,0.8l-0.4,0.3l0,0.2H266l-0.3,0.4h-0.4l-0.3,0.2c-0.1,0-0.2,0.1-0.3,0.2c-0.1-0.1-0.2-0.1-0.4-0.1
			c-0.1,0-0.2,0-0.3,0.1v0.2l-0.5-0.1l-0.4,0.1l-0.3-0.1l-0.1,0.1l-0.1-0.1l-0.2,0.1h-0.2c-0.1,0-0.3,0-0.4,0.1l-0.3-0.1l-0.2,0.1
			l-0.1-0.1l-0.2,0.1c-0.2-0.1-0.4-0.2-0.6-0.2c0,0-0.1,0-0.2,0.1c-0.1-0.1-0.3-0.1-0.5-0.1l-0.6-0.1c-0.2,0-0.3,0-0.4,0l-0.1-0.1
			l-0.2,0.2c-0.1-0.1-0.1-0.1-0.2-0.1l-0.1-0.2c-0.5,0-0.8-0.4-0.8-1.2l0.6-0.1l0-0.2l0.1-0.2l0.1,0.2h0.2v0.1l0.2-0.1
			c0.1,0,0.2,0.1,0.2,0.2c0,0.1,0,0.1-0.1,0.2l0.2,0v0.4l0.7,0.1l0.3,0.2l0.1-0.1l3.4-0.2l1.2-0.2l0.1-0.1l0.3-0.1l0.1-0.1
			c0.4-0.1,0.8-0.2,1.1-0.4l0.1,0.1l0.1-0.2l0.2-0.2l0-0.1l-0.1-0.2l0.1-0.2l-0.3-0.2l-0.1-0.2c-0.1,0-0.2-0.1-0.3-0.2l-0.1,0.1
			l-0.3-0.2h-0.1l-0.1-0.2h-0.3c-0.1-0.1-0.1-0.2-0.3-0.2l-0.2,0c-0.3,0-0.6-0.1-0.8-0.3h-0.3l-0.3-0.2l-0.2,0.1l-0.1-0.1h-0.2
			l-0.3-0.2l-0.8-0.3l-0.3-0.3l-0.9-0.2l0-0.1l-0.7-0.5l-0.3-0.9l-0.3-0.4l-0.1-1.2l0.1-0.1c0-0.3,0.1-0.6,0.3-0.9
			c0.3-0.2,0.5-0.4,0.5-0.6l0.2,0c0.1-0.2,0.2-0.4,0.5-0.6l0.3-0.3l1.5-0.7l0.8-0.1l0.8-0.2l1.2,0.1l0,0.2h0.1c0.1,0,0.3,0,0.3,0.1
			v0.2l0.3,0.2c-0.1,0.4-0.1,0.6-0.1,0.7c0,0.2-0.1,0.2-0.2,0.2c-0.1,0-0.2-0.2-0.4-0.6l-0.7-0.1l-0.2,0.1c-0.3-0.2-0.4-0.3-0.5-0.3
			c-0.1,0-0.1,0-0.1,0.1l-0.2,0.2c-0.3,0-0.5,0.1-0.7,0.2c-0.3,0.1-0.6,0.2-0.7,0.3h-0.3l-0.2,0.2c-0.1,0-0.2,0.1-0.5,0.2l-0.1,0.1
			l-0.1,0.1l-0.4,0.3l-0.2,0.4c-0.2,0.2-0.4,0.3-0.4,0.3l-0.3,1.1l0.1,0.1v0.1c0,0.3,0.1,0.5,0.4,0.7v0.1l0.7,0.4h0.2l0.4,0.4h0.5
			l0.3,0.3l0.6,0.1l0.2,0.2l1.1,0.3c0,0.1,0.1,0.2,0.2,0.2c0.2,0,0.4,0,0.6,0.2c0.2,0.1,0.4,0.2,0.5,0.2l0,0.1l0.2,0.1h0.5l0.4,0.3
			c0.1,0.2,0.2,0.3,0.3,0.5l0,0.1l0.1,0.2l0.2,0l-0.1,0.2C267.1,453.6,267.2,453.7,267.3,453.8z M256.7,452.4l0,0.3l-0.2,0.2
			l-0.1,0.3l-0.4,0.1c-0.1,0.3-0.2,0.6-0.4,0.7l-0.3,0.1l-0.3,0.3c-0.1,0-0.2,0.2-0.5,0.5h-0.2c-0.1,0.2-0.3,0.3-0.6,0.3
			c-0.2,0.2-0.3,0.4-0.3,0.4c-0.1,0.1-0.3,0.1-0.5,0.2c-0.2,0-0.3,0.1-0.4,0.1l-0.1,0.2h-0.4l-0.2,0.2l-0.7-0.5l-0.4-0.8l-0.1-1.4
			l-0.1-0.3l0.3-2.2l0.2-0.1l-0.1-1.3c0-0.2,0-0.3,0.1-0.5c0-0.1,0.1-0.3,0.1-0.6l0.1-0.1c0-0.2-0.1-0.5-0.2-0.7l0.1-0.3v-0.5
			l0.1-0.2c0-0.1,0-0.3-0.1-0.4c0-0.2-0.1-0.2-0.1-0.3c0-0.1,0-0.2,0.1-0.2c0,0,0,0,0,0c-0.1-0.3-0.2-0.5-0.2-0.5
			c0-0.1,0.1-0.2,0.2-0.2c0,0,0.1,0,0.2,0.1c0.1,0,0.1,0.1,0.2,0.1c0,0,0.1,0,0.1-0.1c0-0.1,0.1-0.2,0.2-0.2c0.1,0,0.2,0,0.2,0.1
			c0,0,0,0.2,0.1,0.5l0.3,0.1l-0.2,0.3l-0.3,1.7l0.2,0.4c0,0.2-0.1,0.4-0.2,0.5l-0.1,0.3l0.1,0.3l-0.3,1.1l0,0.1l-0.1,0.9v0.6
			l-0.2,0.4l0.1,0.4l-0.1,0.6c0,0.5,0.1,0.9,0.2,1.2l0,0.1l0.2,0.2l0.3-0.1l0.3,0.1l0.4-0.2c0.1-0.1,0.2-0.1,0.4-0.2l0.2-0.2
			l0.1,0.1l0.2-0.2l0.3-0.1c0.2-0.2,0.4-0.3,0.7-0.3c0.1-0.1,0.2-0.2,0.4-0.2l0.2-0.2l0.3,0l-0.1-0.3h0.1l0.1-0.1l0.6-0.3l0.1-0.3
			l0.5,0C256.7,452.3,256.7,452.3,256.7,452.4z M254.1,439.2c-0.1,0.2-0.2,0.3-0.5,0.4v0.2l-0.2,0.3c-0.1,0.1-0.1,0.2-0.2,0.2
			c0,0-0.1,0-0.1-0.1l-0.7,0.8l-0.2,0.3l-0.6,0.2l-0.3,0.5l-0.3,0.1c-0.1,0-0.3,0.2-0.6,0.5l-0.2-0.1l0-0.3l0.6-0.3
			c0.1-0.4,0.2-0.7,0.3-0.7c0.1-0.1,0.2-0.1,0.2-0.1v-0.1l0.1-0.1l0.1,0l0.1-0.2h0.1l-0.1-0.2h0.4v-0.4l0.2,0l0.1-0.2l0.2-0.1
			l0.2-0.3c0.1,0,0.1-0.1,0.2-0.2h0.2l0-0.3c0.2-0.2,0.3-0.3,0.3-0.5C253.8,438.6,254,438.8,254.1,439.2z M248,443.3
			c0.1,0,0.2,0.1,0.2,0.3c0,0.2,0,0.3,0,0.3l-0.1,0.4l-0.3,0.3l-0.2,0.6l-0.3,0.3l-0.3,0.5c-0.2,0.2-0.2,0.4-0.3,0.7
			c-0.1,0.2-0.2,0.4-0.3,0.6c-0.2,0.1-0.3,0.3-0.3,0.4c0,0.1-0.1,0.3-0.2,0.4c-0.1,0.1-0.2,0.2-0.3,0.3c-0.1,0.1-0.2,0.2-0.2,0.3
			c-0.1,0.1-0.1,0.1-0.1,0.1l-0.6,0.7l-0.4,0.9l-0.5,0.6l-0.3,0.6l-0.2,0.2l-0.3,0.4l-0.9,1.2l-0.4,0.7l-0.6,0.4
			c0,0.2-0.1,0.4-0.3,0.7l0.1,0.9c-0.1,0.2-0.1,0.3-0.2,0.4c-0.1,0.1-0.1,0.1-0.2,0.1c-0.1,0-0.2-0.1-0.3-0.3
			c-0.1-0.2-0.2-0.4-0.3-0.6c-0.1-0.2-0.2-0.3-0.2-0.4l-0.3-0.7c-0.3-0.4-0.5-0.7-0.6-1l-0.3-0.8l-0.3-0.5l0-0.5l-0.4-1l-0.6-1.2
			l-0.7-1.1l-0.3-0.9l-0.4-0.2l-0.3-0.7l-0.2-0.2l-0.4-0.7c-0.1-0.1-0.2-0.3-0.3-0.5c-0.1-0.2-0.2-0.2-0.3-0.2h0
			c-0.3-0.2-0.6-0.4-0.9-0.8l0-0.3c0-0.1,0.1-0.3,0.2-0.6l0.2-0.1c0.3,0,0.5,0,0.6,0.1c0,0.1,0.1,0.2,0.3,0.2l0.3,0.6l0.3,0.3
			c0.3,0.4,0.4,0.7,0.5,0.8c0.1,0.1,0.2,0.3,0.5,0.5l0.1,0.4l0.2,0.2l0,0.3l0.5,0.8l0,0.2l0.3,0.6c0.2,0.2,0.4,0.5,0.4,0.7
			c0,0.3,0.1,0.5,0.3,0.7l0.2,0.4l0.2,0.6l0.4,0.7l0,0.3l0.2,0.3l0.3,1c0.2,0.5,0.4,1,0.9,1.3c0.1,0,0.2-0.1,0.3-0.2
			c0.1-0.1,0.2-0.3,0.5-0.5l0.3-0.2l0.4-0.4c0.1-0.1,0.2-0.2,0.3-0.3c0.1-0.1,0.2-0.3,0.3-0.4c0.1-0.2,0.1-0.3,0.2-0.3
			c0.1,0,0.1-0.1,0.2-0.3c0,0,0,0,0.1,0c0,0,0.1,0,0.1-0.1c0-0.1,0.1-0.2,0.2-0.4c0.1-0.2,0.2-0.4,0.2-0.4l0.2-0.3l0.2-0.5l0.3-0.3
			l0.3-0.5c0.3-0.2,0.5-0.5,0.7-0.7c0.1,0,0.1-0.1,0.2-0.2c0-0.1,0.1-0.2,0.2-0.4c0.1-0.2,0.1-0.3,0.2-0.4c0.1-0.1,0.1-0.1,0.1-0.2
			c0,0,0-0.1,0-0.1c0-0.1,0.1-0.1,0.2-0.2c0.1-0.1,0.1-0.2,0.1-0.2l0-0.1l0.2-0.2l0.1-0.4v-0.2l0.2-0.2l0.2-0.4
			c0.1-0.1,0.2-0.3,0.2-0.4v-0.1l0.1-0.5l0.1-0.3c0-0.1,0.1-0.3,0.1-0.5c0.3-0.2,0.4-0.3,0.4-0.4l0.2,0.1c0,0,0.1,0,0.2,0
			C247.9,443,248,443.1,248,443.3z"/>
		<path class="st0" d="M247.8,443c-0.1,0-0.1,0-0.2,0l-0.2-0.1c0,0.1-0.2,0.2-0.5,0.4c0,0.3,0,0.4-0.1,0.5l-0.1,0.3l-0.1,0.5v0.1
			c0,0.1-0.1,0.2-0.2,0.4l-0.2,0.4l-0.2,0.2v0.2l-0.1,0.4l-0.2,0.2l0,0.1c0,0.1,0,0.1-0.1,0.2c-0.1,0.1-0.1,0.2-0.2,0.2
			c0,0,0,0,0,0.1c0,0.1,0,0.1-0.1,0.2c-0.1,0.1-0.1,0.2-0.2,0.4c-0.1,0.2-0.1,0.3-0.2,0.4c0,0.1-0.1,0.1-0.2,0.2
			c-0.2,0.2-0.4,0.5-0.7,0.7l-0.3,0.5l-0.3,0.3l-0.2,0.5l-0.2,0.3c-0.1,0.1-0.1,0.2-0.2,0.4c-0.1,0.2-0.2,0.4-0.2,0.4
			c0,0.1-0.1,0.1-0.1,0.1c0,0-0.1,0-0.1,0c-0.1,0.2-0.1,0.3-0.2,0.3c-0.1,0-0.1,0.1-0.2,0.3c-0.1,0.2-0.2,0.3-0.3,0.4
			c-0.1,0.1-0.2,0.2-0.3,0.3l-0.4,0.5l-0.3,0.2c-0.2,0.2-0.4,0.4-0.5,0.5c-0.1,0.1-0.2,0.2-0.3,0.2c-0.4-0.3-0.7-0.8-0.9-1.3l-0.3-1
			l-0.2-0.3l0.1-0.3l-0.4-0.7l-0.2-0.6l-0.2-0.4c-0.2-0.2-0.3-0.4-0.3-0.7c0-0.3-0.2-0.5-0.4-0.7l-0.3-0.6l0-0.2l-0.5-0.8l0-0.3
			l-0.2-0.2l-0.1-0.4c-0.2-0.2-0.4-0.4-0.5-0.5c-0.1-0.1-0.2-0.4-0.5-0.8l-0.3-0.3l-0.3-0.6c-0.1,0-0.2-0.1-0.3-0.2
			c-0.1-0.1-0.3-0.1-0.6-0.1l-0.2,0.1c-0.1,0.2-0.2,0.4-0.2,0.6l0,0.3c0.3,0.4,0.6,0.7,0.9,0.8h0c0.1,0,0.2,0.1,0.3,0.3
			c0.1,0.2,0.2,0.3,0.3,0.5l0.4,0.7l0.2,0.2l0.3,0.7l0.4,0.2l0.3,0.9l0.7,1.1l0.6,1.2l0.4,1l0,0.5l0.3,0.5l0.3,0.8
			c0.1,0.2,0.3,0.5,0.6,1l0.3,0.7c0,0.1,0.1,0.2,0.2,0.4c0.1,0.2,0.2,0.4,0.3,0.6c0.1,0.2,0.2,0.3,0.3,0.3c0.1,0,0.2,0,0.3-0.1
			c0.1-0.1,0.1-0.2,0.2-0.4l-0.1-0.9c0.2-0.3,0.3-0.6,0.3-0.7l0.6-0.4l0.4-0.7l0.9-1.2l0.3-0.4l0.2-0.2l0.3-0.6l0.5-0.6l0.4-0.9
			l0.6-0.7c0,0,0-0.1,0.1-0.1c0.1-0.1,0.1-0.2,0.2-0.3c0.1-0.1,0.2-0.2,0.3-0.3c0.1-0.1,0.2-0.2,0.2-0.4c0-0.1,0.1-0.3,0.3-0.4
			c0.2-0.1,0.3-0.3,0.3-0.6c0-0.3,0.1-0.6,0.3-0.7l0.3-0.5l0.3-0.3l0.2-0.6l0.3-0.3l0.1-0.4c0,0,0-0.1,0-0.3c0-0.2-0.1-0.2-0.2-0.3
			C248,443.1,247.9,443,247.8,443z"/>
		<path class="st0" d="M256.6,452.2l-0.5,0l-0.1,0.3l-0.6,0.3l-0.1,0.1h-0.1l0.1,0.3l-0.3,0l-0.2,0.2c-0.2,0-0.3,0.1-0.4,0.2
			c-0.2,0.1-0.5,0.2-0.7,0.3l-0.3,0.1l-0.2,0.2l-0.1-0.1l-0.2,0.2c-0.2,0.1-0.4,0.1-0.4,0.2l-0.4,0.2l-0.3-0.1l-0.3,0.1l-0.2-0.2
			l0-0.1c-0.1-0.3-0.2-0.7-0.2-1.2l0-0.6l0-0.4l0.2-0.4v-0.6l0.1-0.9l0-0.1l0.3-1.1l-0.1-0.3l0.1-0.3c0.2-0.1,0.2-0.3,0.2-0.5
			l-0.2-0.4l0.3-1.7l0.2-0.3l-0.3-0.1c0-0.3-0.1-0.5-0.1-0.5c0,0-0.1-0.1-0.2-0.1c-0.1,0-0.2,0.1-0.2,0.2c-0.1,0-0.1,0.1-0.1,0.1
			c-0.1,0-0.1,0-0.2-0.1c-0.1,0-0.1-0.1-0.2-0.1c-0.1,0-0.2,0.1-0.2,0.2c0,0.1,0.1,0.3,0.2,0.5c0,0,0,0-0.1,0
			c-0.1,0-0.1,0.1-0.1,0.2c0,0,0,0.1,0.1,0.3c0,0.2,0.1,0.3,0.1,0.4l-0.1,0.2v0.5l-0.1,0.3c0.1,0.2,0.2,0.5,0.2,0.7l-0.1,0.1
			c0,0.3-0.1,0.4-0.1,0.6c0,0.1-0.1,0.3-0.1,0.5l0.1,1.3l-0.2,0.1l-0.3,2.2l0.1,0.3l0.1,1.4l0.4,0.8l0.7,0.5l0.2-0.2h0.4l0.1-0.2
			c0.1,0,0.2,0,0.4-0.1c0.2,0,0.4-0.1,0.5-0.2c0,0,0.1-0.2,0.3-0.4c0.3,0,0.5-0.1,0.6-0.3h0.2c0.2-0.3,0.4-0.4,0.4-0.5l0.3-0.3
			l0.3-0.1c0.1-0.1,0.3-0.3,0.4-0.7l0.4-0.1l0.1-0.3l0.2-0.2l0.1-0.3C256.7,452.3,256.7,452.3,256.6,452.2z M253.4,438.4
			c0,0.2-0.1,0.4-0.3,0.5l0,0.3h-0.2c0,0.1-0.1,0.2-0.2,0.2l-0.2,0.3l-0.2,0.1l-0.1,0.2l-0.2,0.1v0.4h-0.4l0.1,0.2h-0.1l-0.1,0.2
			l0,0l-0.1,0.1v0.1c0,0-0.1,0.1-0.2,0.1c-0.1,0.1-0.2,0.3-0.3,0.7l-0.6,0.3l0,0.3l0.2,0.1c0.3-0.3,0.5-0.5,0.6-0.5l0.3-0.1l0.3-0.5
			l0.6-0.2l0.2-0.3l0.7-0.8c0.1,0,0.1,0.1,0.1,0.1c0.1,0,0.1-0.1,0.2-0.2l0.2-0.3v-0.2c0.2-0.1,0.4-0.3,0.5-0.4
			C254,438.8,253.8,438.6,253.4,438.4z"/>
		<path class="st0" d="M267,453.4l0.1-0.2l-0.2-0.1l-0.1-0.2l0-0.1c-0.2-0.1-0.3-0.3-0.3-0.5l-0.4-0.3h-0.5l-0.2-0.1l0-0.1
			c-0.2,0-0.3-0.1-0.5-0.2c-0.2-0.1-0.4-0.2-0.6-0.2c-0.1,0-0.2,0-0.2-0.2l-1.1-0.3l-0.2-0.2l-0.6-0.1l-0.3-0.3h-0.5l-0.4-0.4h-0.2
			l-0.7-0.4v-0.1c-0.3-0.2-0.4-0.5-0.4-0.7v-0.1l-0.1-0.1l0.3-1.1c0-0.1,0.1-0.2,0.4-0.3l0.2-0.4l0.4-0.3l0.1-0.1l0.1-0.1
			c0.3-0.1,0.5-0.1,0.5-0.2l0.2-0.2h0.3c0.1-0.2,0.4-0.3,0.7-0.3c0.2-0.2,0.4-0.2,0.7-0.2l0.2-0.2c0-0.1,0-0.1,0.1-0.1
			c0,0,0.2,0.1,0.5,0.3l0.2-0.1l0.7,0.1c0.2,0.4,0.3,0.6,0.4,0.6c0.2,0,0.2-0.1,0.2-0.2c0-0.1,0-0.3,0.1-0.7l-0.3-0.2v-0.2
			c-0.1-0.1-0.2-0.1-0.3-0.1h-0.1l-0.1-0.2l-1.2-0.1l-0.8,0.2l-0.8,0.1l-1.5,0.7l-0.3,0.3c-0.3,0.2-0.4,0.4-0.5,0.6l-0.2,0
			c0,0.2-0.2,0.4-0.5,0.5c-0.2,0.3-0.3,0.6-0.3,0.9l-0.1,0.1l0.1,1.2l0.3,0.4l0.3,0.8l0.7,0.5l0,0.1l0.9,0.2l0.3,0.3l0.8,0.3
			l0.3,0.2h0.2l0.1,0.1l0.2-0.1l0.3,0.2h0.3c0.2,0.2,0.5,0.3,0.8,0.3l0.2,0c0.1,0,0.2,0.1,0.3,0.2h0.3l0.1,0.2h0.1l0.3,0.2l0.1-0.1
			c0,0.1,0.1,0.1,0.3,0.2l0.1,0.2l0.3,0.2l-0.1,0.2l0.1,0.2l0,0.1l-0.2,0.2l-0.1,0.2l-0.1-0.1c-0.3,0.2-0.7,0.3-1.1,0.4l-0.1,0.1
			l-0.3,0.1l-0.1,0.1l-1.2,0.2l-3.4,0.2l-0.1,0.1l-0.3-0.2l-0.7-0.1v-0.4l-0.2,0c0.1-0.1,0.1-0.2,0.1-0.2c0-0.1-0.1-0.2-0.2-0.2
			l-0.2,0.1v-0.1h-0.2l-0.1-0.2l-0.1,0.2l0,0.2l-0.6,0.1c0,0.7,0.3,1.1,0.8,1.2l0.1,0.2c0.1,0,0.1,0,0.2,0.1l0.2-0.2l0.1,0.1
			c0.1,0,0.2-0.1,0.4-0.1l0.6,0.1c0.2,0,0.3,0.1,0.5,0.1c0.1-0.1,0.2-0.1,0.2-0.1c0.1,0,0.3,0.1,0.6,0.2l0.2-0.1l0.1,0.1l0.2-0.1
			l0.3,0.1c0.1,0,0.3-0.1,0.4-0.1h0.2l0.2-0.1l0.1,0.1l0-0.1l0.3,0.1l0.4-0.1l0.5,0.1v-0.2c0.1-0.1,0.2-0.1,0.3-0.1
			c0.1,0,0.2,0,0.3,0.1c0.1-0.1,0.2-0.2,0.3-0.2l0.3-0.2h0.4l0.3-0.4h0.3l0-0.2l0.4-0.3c0.2-0.5,0.3-0.7,0.3-0.8l0.2-0.2
			C267.2,453.7,267.1,453.6,267,453.4z"/>
		<path class="st0" d="M277.9,446.9l-0.2,0.2c0,0.2-0.1,0.3-0.2,0.5l0,0.2l-0.2,0.1l-0.1,0.3c-0.1,0.1-0.2,0.2-0.4,0.5
			c0.1,0.1,0.1,0.1,0.1,0.2c0,0,0,0.1-0.1,0.1l0,0.3h-0.2c0,0-0.1,0-0.2,0.1c-0.1,0.1-0.2,0.2-0.2,0.3c-0.2,0.1-0.3,0.3-0.3,0.5
			l-0.1-0.1c-0.1,0.1-0.2,0.3-0.3,0.4c-0.1,0.2-0.2,0.3-0.2,0.3c0,0,0,0.1,0.1,0.1l-0.2,0.1l0.1,0.2l-0.3,0.3h-0.2
			c0,0.2-0.2,0.4-0.6,0.6l-0.2,0.5c-0.2,0.1-0.3,0.2-0.4,0.2l-0.3,0.3h0.1l-0.5,0.6c0,0.1,0,0.1-0.1,0.1h0c-0.1,0.1-0.2,0.2-0.2,0.3
			c0,0.1,0,0.1-0.1,0.1c0,0-0.2,0-0.4,0.1l0,0.2c-0.3,0-0.5,0.2-0.6,0.4l-0.6,0.1c-0.1-0.1-0.2-0.2-0.4-0.3l-0.1-0.2l-0.1-0.1
			l0.1-0.3l0-0.6l0.2-0.3l-0.2-0.5l0.2-0.2l-0.1-0.2c0.1-0.2,0.3-0.3,0.4-0.3l-0.1-0.3c0.1-0.3,0.1-0.5,0.1-0.7l0.1-0.1v-0.5
			l0.1-0.1c0-0.2,0.1-0.3,0.2-0.5v-0.4l0.2-0.3v-0.1c0-0.3,0.1-0.6,0.2-0.8l-0.1-0.2l0.3-0.3l-0.2-0.1c0.2-0.4,0.3-0.8,0.5-1.3
			c0.2-0.5,0.4-0.7,0.6-0.8v-0.2l0.3,0l0.1-0.1l0.2-0.1l-0.1-0.1c0.4-0.2,0.7-0.3,0.9-0.3l0.4,0.1l0.2-0.1l0.1,0.1l0.3-0.1l0.1,0.2
			h0.4l0.1,0.1c0.1,0,0.2,0,0.2,0c0.1,0,0.2,0,0.3,0.1l0.7,0.7l0.4,0.1l0.2,0.5L277.9,446.9z M279,455.4
			C279,455.4,279.1,455.4,279,455.4L279,455.4c-0.1-0.1-0.2-0.2-0.2-0.3c0,0,0-0.1,0.1-0.1l-0.2-0.3l-0.5-0.1l-0.1-0.4H278
			c0.1-0.2,0.2-0.4,0.2-0.5c0-0.1,0-0.2,0-0.2l0-0.1l-0.2-0.1c0.1-0.5,0.2-0.8,0.3-1c-0.1-0.1-0.2-0.2-0.2-0.3l0.2-0.3l-0.1-0.3
			c0-0.2,0-0.3,0.1-0.4l0.1-0.2l-0.1-0.2c0.1-0.1,0.1-0.2,0.1-0.2c0-0.1,0-0.1,0-0.1l0.1-0.1l-0.1-0.1l0.1-0.1l-0.1-0.6l0.2-0.2
			l-0.1-0.2l0.1-0.3l0-0.2l0.1-0.2c0-0.1,0-0.1-0.1-0.1c0-0.3,0-0.5,0.1-0.6c0.1-0.1,0.1-0.2,0.1-0.2l-0.2-0.3
			c0.1-0.2,0.2-0.4,0.2-0.5l0.1-0.4l0.2-0.3l-0.2-0.7l0.1-0.1l-0.3-0.1h0.1v-0.4c-0.4,0.1-0.7,0.3-1,0.4v-0.2l-0.6-0.1l-0.2-0.2
			l-0.1,0c-0.2,0-0.3-0.1-0.3-0.2l-0.1,0.1c0-0.1-0.1-0.2-0.2-0.2h-0.1l-1.1-0.2v-0.1l-1.4-0.1l-0.5,0.2c0,0.1-0.2,0.2-0.6,0.2
			c0.1,0,0.1,0.1,0.1,0.1c0,0.1-0.1,0.1-0.3,0.1h-0.1c-0.1,0.1-0.2,0.3-0.4,0.5c-0.2,0.2-0.3,0.3-0.4,0.4c0,0,0,0.1,0,0.1
			c0,0.1,0,0.1-0.1,0.1v0.4c-0.1,0-0.2,0-0.2,0.1c0,0.1,0,0.2,0.1,0.3l-0.1,0.1l0,0.5c-0.2,0.3-0.4,0.6-0.4,1v0.1l-0.3,0.6l0.2,0.1
			c0,0.1-0.1,0.2-0.2,0.3c-0.1,0.2-0.2,0.3-0.2,0.5v0.1c-0.2,0-0.3,0-0.3,0.1c0,0.1,0.1,0.1,0.2,0.2c-0.1,0-0.1,0.1-0.1,0.1
			c0,0,0,0.1,0.1,0.1c0.1,0.1,0.1,0.1,0.1,0.2c0,0.1-0.1,0.3-0.2,0.5l-0.1,0c0,0.1-0.1,0.2-0.1,0.3c0,0.1,0,0.2,0.1,0.3
			c-0.1,0.1-0.1,0.2-0.1,0.3c0,0.1,0,0.1,0,0.2l-0.2,1c0,0.2-0.1,0.4-0.1,0.5c0,0.1,0,0.2-0.1,0.3l-0.1,0.1l0.1,0.1
			c0,0.4,0.1,0.7,0.2,1l-0.2,0.1c0,0.5,0.4,0.8,1,1.1c0.1,0.3,0.2,0.4,0.3,0.4h0.1c0.2-0.2,0.3-0.3,0.4-0.3l0.3-0.1l0.8-1l0.8-0.5
			l0.1-0.3l0.6-0.6l0.2-0.3l0.6-0.6l0.4-0.7l0.2-0.1c0.1-0.2,0.2-0.3,0.4-0.5v-0.2l0.2-0.1l0.1-0.4l0.3-0.1l0-0.3
			c0.1-0.1,0.2-0.2,0.3-0.4l0.4-0.2c0.1,0.1,0.2,0.2,0.2,0.2l-0.1,0.3v0.5h-0.1l0,0.3l-0.1,0.1l-0.1,0.2l0.2,0.2l-0.2,0.1l0.2,0.3
			l-0.1,0.6l0.2,1.7l-0.1,0.8l0.2,0.2v0.6l0.4,0.5l0.2-0.1l0.1,0.1c0.1-0.1,0.3-0.1,0.4-0.1l0.1-0.2l0.4-0.2
			C279.1,455.5,279,455.4,279,455.4z"/>
		<path class="st0" d="M288.6,452.8c0,0-0.1,0-0.1-0.1c-0.1,0.1-0.2,0.1-0.2,0.2c-0.1,0.1-0.3,0.2-0.4,0.3c-0.1,0.1-0.2,0.2-0.3,0.2
			l-0.3,0.1l-0.2,0.2l-0.3,0.1l0,0.1l-0.2,0l-0.1,0.1c-0.2,0-0.4,0.1-0.4,0.3c-0.2,0.1-0.3,0.1-0.3,0.1l-0.4,0.3l-0.2,0
			c-0.1,0-0.3,0.1-0.6,0.2l-0.3-0.1l-0.3-0.9l0.1-0.2l-0.1-0.3l0.1-0.4l-0.1-0.3c0.1-0.2,0.1-0.3,0.1-0.3c0-0.3-0.1-0.5-0.2-0.6
			l0.1-0.1l-0.1-0.2l0.1-0.8l0.1-0.5L284,450l0.1-0.1l0.1-1l-0.1-0.6c0.1-0.4,0.2-0.7,0.2-0.8l0-0.4l0.1-0.8l-0.1-0.3
			c0.1-0.1,0.1-0.3,0.1-0.3c0,0,0-0.1-0.1-0.3l0.2-0.5c-0.2,0-0.2-0.1-0.2-0.3c0-0.3,0.1-0.7,0.3-1l-0.2-0.2l0.2-0.7
			c-0.1-0.2-0.1-0.6-0.1-1.1l-0.1-0.1c0.1,0,0.2-0.1,0.2-0.4c-0.1-0.1-0.1-0.2-0.1-0.3v-0.1l0.2-0.3l-0.3-0.2l-0.1-0.4
			c-0.1,0-0.1-0.1-0.1-0.1c0,0-0.1,0-0.2,0.1c-0.1,0.1-0.2,0.1-0.3,0.1l-0.1,1.2l0.1,0.3l-0.1,0.8c0,0.4,0,0.7,0.1,1l-0.1,1.3l0,1.3
			l-0.1,0.2v0.9c0,0.3-0.1,0.5-0.2,0.7l0.1,0.5l-0.2,0.5l0.1,0.4l-0.1,1l-0.2,0.1c0.1,0.2,0.2,0.3,0.2,0.5c0,0.1,0,0.5-0.1,1.2
			c0.1,0.2,0.2,0.4,0.2,0.5c0,0.1,0,0.1-0.1,0.2l0,0.3l0,0.7l0,0.8l0.1,0.2l0,0.3l0.1,0.6c0.2,0.2,0.3,0.4,0.4,0.7l0.2,0.2l0.2,0.2
			h0.2l0.3-0.1c0.1,0,0.2-0.1,0.4-0.2c0.2-0.1,0.4-0.2,0.6-0.2h0.1l0.1-0.2l0.1,0.1l0.3-0.1c0.1-0.2,0.2-0.3,0.5-0.3
			c0.2-0.2,0.3-0.3,0.4-0.3c0.1-0.1,0.2-0.1,0.3-0.1c0.6-0.5,0.9-0.8,0.9-0.9c0.2,0,0.4-0.2,0.6-0.5c0.1,0,0.2-0.1,0.2-0.4
			c0-0.1-0.1-0.2-0.2-0.2C288.8,452.7,288.7,452.8,288.6,452.8z"/>
		<path class="st0" d="M297.1,452.2l-0.5,0l-0.1,0.3l-0.6,0.3l-0.1,0.1h-0.1l0.1,0.3l-0.3,0l-0.2,0.2c-0.2,0-0.3,0.1-0.4,0.2
			c-0.2,0.1-0.5,0.2-0.7,0.3l-0.3,0.1l-0.2,0.2l-0.1-0.1l-0.2,0.2c-0.2,0.1-0.4,0.1-0.4,0.2l-0.4,0.2l-0.3-0.1l-0.3,0.1l-0.2-0.2
			l0-0.1c-0.1-0.3-0.2-0.7-0.2-1.2l0-0.6l0-0.4l0.2-0.4v-0.6l0.1-0.9l0-0.1l0.3-1.1l-0.1-0.3l0.1-0.3c0.2-0.1,0.2-0.3,0.2-0.5
			l-0.2-0.4l0.3-1.7l0.2-0.3l-0.3-0.1c0-0.3-0.1-0.5-0.1-0.5c0,0-0.1-0.1-0.2-0.1c-0.1,0-0.2,0.1-0.2,0.2c-0.1,0-0.1,0.1-0.1,0.1
			c-0.1,0-0.1,0-0.2-0.1c-0.1,0-0.1-0.1-0.2-0.1c-0.1,0-0.2,0.1-0.2,0.2c0,0.1,0.1,0.3,0.2,0.5c0,0,0,0-0.1,0
			c-0.1,0-0.1,0.1-0.1,0.2c0,0,0,0.1,0.1,0.3c0,0.2,0.1,0.3,0.1,0.4l-0.1,0.2v0.5l-0.1,0.3c0.1,0.2,0.2,0.5,0.2,0.7l-0.1,0.1
			c0,0.3-0.1,0.4-0.1,0.6c0,0.1-0.1,0.3-0.1,0.5l0.1,1.3l-0.2,0.1l-0.3,2.2l0.1,0.3l0.1,1.4l0.4,0.8l0.7,0.5l0.2-0.2h0.4l0.1-0.2
			c0.1,0,0.2,0,0.4-0.1c0.2,0,0.4-0.1,0.5-0.2c0,0,0.1-0.2,0.3-0.4c0.3,0,0.5-0.1,0.6-0.3h0.2c0.2-0.3,0.4-0.4,0.4-0.5l0.3-0.3
			l0.3-0.1c0.1-0.1,0.3-0.3,0.4-0.7l0.4-0.1l0.1-0.3l0.2-0.2l0.1-0.3C297.2,452.3,297.1,452.3,297.1,452.2z M293.8,438.4
			c0,0.2-0.1,0.4-0.3,0.5l0,0.3h-0.2c0,0.1-0.1,0.2-0.2,0.2l-0.2,0.3l-0.2,0.1l-0.1,0.2l-0.2,0.1v0.4h-0.4l0.1,0.2h-0.1l-0.1,0.2
			l0,0l-0.1,0.1v0.1c0,0-0.1,0.1-0.2,0.1c-0.1,0.1-0.2,0.3-0.3,0.7l-0.6,0.3l0,0.3l0.2,0.1c0.3-0.3,0.5-0.5,0.6-0.5l0.3-0.1l0.3-0.5
			l0.6-0.2l0.2-0.3l0.7-0.8c0.1,0,0.1,0.1,0.1,0.1c0.1,0,0.1-0.1,0.2-0.2l0.2-0.3v-0.2c0.2-0.1,0.4-0.3,0.5-0.4
			C294.5,438.8,294.3,438.6,293.8,438.4z"/>
		<path class="st0" d="M306.9,446.9l-0.2,0.2c0,0.2-0.1,0.3-0.2,0.5l0.1,0.2l-0.2,0.1l-0.1,0.3c-0.1,0.1-0.2,0.2-0.4,0.5
			c0,0.1,0.1,0.1,0.1,0.2c0,0,0,0.1-0.1,0.1l0,0.3h-0.2c0,0-0.1,0-0.2,0.1c-0.1,0.1-0.2,0.2-0.2,0.3c-0.2,0.1-0.3,0.3-0.3,0.5
			l-0.1-0.1c-0.1,0.1-0.2,0.3-0.3,0.4c-0.1,0.2-0.2,0.3-0.2,0.3c0,0,0,0.1,0.1,0.1l-0.2,0.1l0.1,0.2l-0.3,0.3h-0.2
			c0,0.2-0.2,0.4-0.6,0.6l-0.2,0.5c-0.2,0.1-0.3,0.2-0.4,0.2l-0.3,0.3h0.1l-0.5,0.6c0,0.1,0,0.1-0.1,0.1h-0.1
			c-0.1,0.1-0.2,0.2-0.2,0.3c0,0.1,0,0.1-0.1,0.1c0,0-0.2,0-0.4,0.1l0.1,0.2c-0.3,0-0.5,0.2-0.6,0.4l-0.6,0.1
			c-0.1-0.1-0.2-0.2-0.4-0.3l-0.1-0.2l-0.1-0.1l0.1-0.3l0-0.6l0.2-0.3l-0.2-0.5l0.2-0.2l-0.1-0.2c0.1-0.2,0.3-0.3,0.4-0.3l-0.1-0.3
			c0.1-0.3,0.1-0.5,0.1-0.7l0.1-0.1v-0.5l0.1-0.1c0-0.2,0.1-0.3,0.2-0.5v-0.4l0.2-0.3v-0.1c0-0.3,0.1-0.6,0.2-0.8l-0.1-0.2l0.3-0.3
			l-0.2-0.1c0.2-0.4,0.3-0.8,0.5-1.3c0.2-0.5,0.4-0.7,0.6-0.8v-0.2l0.3,0l0.1-0.1l0.2-0.1l-0.1-0.1c0.4-0.2,0.7-0.3,0.9-0.3l0.4,0.1
			l0.2-0.1l0.1,0.1l0.3-0.1l0.1,0.2h0.4l0.1,0.1c0.1,0,0.2,0,0.2,0c0.1,0,0.2,0,0.3,0.1l0.7,0.7l0.4,0.1l0.2,0.5L306.9,446.9z
			 M308.1,455.4C308.1,455.4,308.1,455.4,308.1,455.4L308.1,455.4c-0.1-0.1-0.2-0.2-0.2-0.3c0,0,0-0.1,0.1-0.1l-0.2-0.3l-0.5-0.1
			l-0.1-0.4H307c0.1-0.2,0.2-0.4,0.2-0.5c0-0.1,0-0.2,0-0.2l0-0.1l-0.2-0.1c0.1-0.5,0.2-0.8,0.3-1c-0.1-0.1-0.2-0.2-0.2-0.3l0.2-0.3
			l-0.1-0.3c0-0.2,0-0.3,0.1-0.4l0.1-0.2l-0.1-0.2c0.1-0.1,0.1-0.2,0.1-0.2c0-0.1,0-0.1,0-0.1l0.1-0.1l-0.1-0.1l0.1-0.1l-0.1-0.6
			l0.2-0.2l-0.1-0.2l0.1-0.3l0-0.2l0.1-0.2c0-0.1,0-0.1-0.1-0.1c0-0.3,0-0.5,0.1-0.6c0.1-0.1,0.1-0.2,0.1-0.2l-0.2-0.3
			c0.1-0.2,0.2-0.4,0.2-0.5l0.1-0.4l0.2-0.3l-0.2-0.7l0.1-0.1l-0.3-0.1h0.1v-0.4c-0.4,0.1-0.7,0.3-1,0.4v-0.2l-0.6-0.1l-0.2-0.2
			l-0.1,0c-0.2,0-0.3-0.1-0.3-0.2l-0.1,0.1c0-0.1-0.1-0.2-0.2-0.2h-0.1l-1.1-0.2v-0.1l-1.4-0.1l-0.5,0.2c0,0.1-0.2,0.2-0.6,0.2
			c0.1,0,0.1,0.1,0.1,0.1c0,0.1-0.1,0.1-0.3,0.1h-0.1c-0.1,0.1-0.2,0.3-0.4,0.5c-0.2,0.2-0.3,0.3-0.4,0.4c0,0,0,0.1,0,0.1
			c0,0.1,0,0.1-0.1,0.1v0.4c-0.1,0-0.2,0-0.2,0.1c0,0.1,0,0.2,0.1,0.3l-0.1,0.1l0,0.5c-0.2,0.3-0.4,0.6-0.4,1v0.1l-0.3,0.6l0.2,0.1
			c0,0.1-0.1,0.2-0.2,0.3c-0.1,0.2-0.2,0.3-0.2,0.5v0.1c-0.2,0-0.3,0-0.3,0.1c0,0.1,0.1,0.1,0.2,0.2c-0.1,0-0.1,0.1-0.1,0.1
			c0,0,0,0.1,0.1,0.1c0.1,0.1,0.1,0.1,0.1,0.2c0,0.1-0.1,0.3-0.2,0.5l-0.1,0c0,0.1-0.1,0.2-0.1,0.3c0,0.1,0,0.2,0.1,0.3
			c-0.1,0.1-0.1,0.2-0.1,0.3c0,0.1,0,0.1,0,0.2l-0.2,1c0,0.2-0.1,0.4-0.1,0.5c0,0.1,0,0.2-0.1,0.3l-0.1,0.1l0.1,0.1
			c0,0.4,0.1,0.7,0.2,1l-0.2,0.1c0,0.5,0.4,0.8,1,1.1c0.1,0.3,0.2,0.4,0.3,0.4h0.1c0.2-0.2,0.3-0.3,0.4-0.3l0.3-0.1l0.8-1l0.8-0.5
			l0.1-0.3l0.6-0.6l0.2-0.3l0.6-0.6l0.4-0.7l0.2-0.1c0.1-0.2,0.2-0.3,0.4-0.5v-0.2l0.2-0.1l0.1-0.4l0.3-0.1l0-0.3
			c0.1-0.1,0.2-0.2,0.3-0.4l0.4-0.2c0.1,0.1,0.2,0.2,0.2,0.2l-0.1,0.3v0.5h-0.1l0,0.3l-0.1,0.1l-0.1,0.2l0.2,0.2l-0.2,0.1l0.2,0.3
			l-0.1,0.6l0.2,1.7l-0.1,0.8l0.2,0.2v0.6l0.4,0.5l0.2-0.1l0.1,0.1c0.1-0.1,0.3-0.1,0.4-0.1l0.1-0.2l0.4-0.2
			C308.1,455.5,308.1,455.4,308.1,455.4z"/>
		<path class="st0" d="M333.6,448.4l0.1,0.8l-0.2,0.4l0.1,0.5l-0.3,0.2l-0.2,0.4l-0.4,0.2l-0.7,0.8l-0.4,0.3l-0.1,0.3l-0.2-0.1
			c-0.1,0.2-0.3,0.3-0.5,0.3l-0.1,0.2l-0.1,0l-0.2,0.5c-0.3,0.1-0.4,0.1-0.5,0.2c-0.1,0.1-0.2,0.1-0.3,0.2c-0.1,0.1-0.5,0.1-1.1,0.1
			l-0.3,0.3c-0.3,0-0.5,0-0.6,0.1l-0.5,0.3h-0.1c-0.2,0-0.5,0.1-0.8,0.4l-0.1,0c-0.1,0-0.2,0.1-0.3,0.3l-1.1-0.1l-0.4,0.1l-0.1,0.3
			h-0.4v-0.2h-0.4l-0.2-0.2l-0.8,0.2c-0.1,0-0.4-0.1-0.9-0.2c-0.5-0.2-0.9-0.4-1.2-0.8l-0.1-0.3c0-0.1,0-0.1-0.1-0.2l-0.2-0.3
			l-0.1-0.5l-0.2-0.3c0.1-0.3,0.2-0.5,0.2-0.7c0-0.2,0.1-0.3,0.1-0.5c0-0.1,0.1-0.3,0.3-0.5c0.1-0.2,0.2-0.8,0.3-1.9l0.4-0.3
			l0.2-0.8c0-0.1,0.2-0.2,0.4-0.3v-0.3c0.2-0.2,0.3-0.4,0.5-0.7c0.2-0.2,0.3-0.3,0.3-0.3l0.5-0.2l0-0.4c0.2-0.3,0.3-0.5,0.3-0.5
			c0.1-0.1,0.2-0.2,0.4-0.2c0.1-0.1,0.2-0.1,0.3-0.2c0.1-0.1,0.2-0.1,0.2-0.2c0.1-0.1,0.1-0.1,0.2-0.1c0,0,0.1-0.1,0.1-0.1l0.2-0.1
			l0.4,0.1l0.4-0.2l0.4,0.1c0.2-0.1,0.4-0.2,0.5-0.3c0.1-0.1,0.3-0.2,0.4-0.3c0,0,0.1,0.1,0.2,0.1c0.1,0,0.1,0,0.2-0.1
			c0.1,0,0.2-0.1,0.2-0.1c0.1,0,0.2,0,0.5,0.1l0.3-0.1l0.4,0.1l0.1-0.1c0.2,0,0.4,0.1,0.4,0.1c0.1,0,0.1,0,0.1,0
			c0.1,0.1,0.4,0.2,0.6,0.2c0.3,0,0.5,0.1,0.5,0.1l1,0.6l0.2-0.1l0.7,0.6l0.7,0.8l0.1,0.3l0.2,0.1l0.2,0.5c0.3,0.2,0.5,0.3,0.5,0.5
			c0,0.1,0.1,0.2,0.1,0.3l0,0.2l0.2,0.6L333.6,448.4z M334.6,448.6c0-0.1,0-0.2-0.1-0.4l-0.3-0.9c-0.1-0.4-0.3-0.6-0.3-0.7l-0.9-1.5
			l-0.4-0.2l-0.2-0.3l-0.4-0.2c-0.1-0.2-0.2-0.3-0.3-0.4l-0.5-0.3h0.2l-0.7-0.4h-0.5l-0.4-0.1l-0.2-0.2c-0.3,0-0.5-0.1-0.6-0.2
			c-0.2,0-0.2-0.1-0.3-0.3c0,0-0.1,0-0.1,0c-0.1,0-0.2,0-0.3-0.1c-0.1,0.2-0.3,0.2-0.6,0.2c-0.1,0-0.2,0-0.4-0.1h-0.7l-0.6,0
			l-0.8-0.1l-1.2,0.2c-0.3,0-0.5,0.1-0.5,0.1h0l-0.2,0.2c-0.3,0.1-0.6,0.3-0.8,0.5l0.1,0.2h-0.3l0.1,0.2c-0.3,0.2-0.5,0.4-0.6,0.5
			c-0.1,0.1-0.2,0.2-0.3,0.3l-1,1.6l-0.6,1.3l-0.1,0.1l0.1,0.1l-0.2,0.3v0.3l-0.2,0.3v0.4l-0.4,0.4l0.2,0.4l-0.2,0.2l0.1,0.6
			l-0.4,1.1l0.1,1.1l0.1,0.2c0,0.5,0.1,0.9,0.2,1.3l0.4,0.2c0.1,0.1,0.2,0.1,0.3,0.2l0.2,0.3l0.4-0.1v0.5h0.2l0.5,0.3l1.1,0.2
			l0.1,0.1l0.4,0.1l0.4-0.1c0.1,0,0.2,0,0.2,0l1.3-0.2l0.8,0.1l0.2-0.2h0.4l0.1-0.1l0.2,0.1l0.4-0.4l0.2,0.1c0.1,0,0.1-0.1,0.2-0.2
			c0.1-0.1,0.2-0.1,0.3-0.1c0.2,0,0.3,0,0.5,0.1l1.1-0.6l0.5-0.2l1.1-0.8v0.2c0.2-0.2,0.4-0.4,0.5-0.4l0.4-0.2l1.6-1.2l0.3-0.1
			c0.1,0,0.1-0.1,0.2-0.1c0-0.1,0.1-0.1,0.1-0.2l0.3-0.8l0.2-0.2l0.1-0.8l0.2-0.6V448.6z"/>
		<path class="st0" d="M345.2,452.5l0.1,0.2l-0.2,0.2l0.1,0.3l-0.1,0.3l-0.2,0.1l0,0.3l-0.2-0.1c0,0.2-0.1,0.2-0.2,0.2h-0.1
			c-0.1,0.1-0.5,0.2-1.1,0.3l0-0.1l-0.4,0.2l-0.3-0.1h-0.4c0-0.1-0.1-0.1-0.1-0.1c-0.1,0-0.1,0.1-0.2,0.2c-0.2-0.1-0.4-0.1-0.4-0.1
			c0,0-0.1,0-0.2,0c-0.1,0-0.1,0.1-0.2,0.1c-0.2-0.2-0.3-0.3-0.3-0.3c0,0-0.1,0.1-0.2,0.2l-0.1-0.2l-1,0.1l-0.1-0.5l0-0.4l-0.1-0.5
			l0.3-0.3l-0.2-0.3l0.2-0.2l-0.2-0.1l0-0.3l0.1-0.1l-0.2-0.3l0.1-0.3l-0.1-0.2l0.2-0.9l-0.1-0.5l0.2-0.5l-0.2-0.2l-0.2-0.6l0.1-0.6
			c0-0.2,0-0.4,0-0.4c0-0.1,0-0.1,0-0.1c0-0.2,0.1-0.3,0.2-0.3l0.8,0.1l0.2-0.1l0.1,0.2l0.2-0.1l0.1,0.2l0.2-0.1l0.1,0.1h0.3
			l0.4,0.1l0.1,0.2l0.2-0.1l0.3,0.5l0.3,0l0.3,0.1v0.1l0.4,0.5l0.3,0.1l0.2,0.6l0.3,0.2l0.5,0.8l0.1,0.3l0.2,0.4l0,0.3l0.2,0.3
			l-0.1,0.3l0.1,0.5l0,0.2l0,0.2L345.2,452.5z M345.8,452.7l0.2-0.5l-0.1,0v-0.2l-0.1-0.2l0.1-0.1c0-0.2-0.1-0.4-0.1-0.6
			c-0.1-0.2-0.1-0.3-0.1-0.3l0-0.3l-0.2-0.3v-0.3c-0.2-0.1-0.3-0.4-0.3-0.7l-0.2-0.1c-0.1-0.2-0.1-0.4-0.1-0.4l-0.2-0.2v-0.2h-0.1
			l-0.2-0.5l-0.3-0.2c0-0.2-0.1-0.4-0.4-0.5V447l-0.3-0.1l-0.1-0.1l-0.4-0.3c-0.1-0.1-0.2-0.1-0.3-0.2l-0.2-0.3l-0.2-0.1l0,0.1
			l-0.3-0.2l-0.1-0.2l-0.2,0.1c-0.1-0.1-0.2-0.2-0.4-0.2c-0.2,0-0.4-0.1-0.6-0.2c-0.2-0.1-0.5-0.2-0.8-0.2l-0.1,0.1l-0.2-0.1
			l-0.1,0.2c-0.3-0.1-0.5-0.3-0.6-0.7h-0.2l-0.1,0.6l-0.1-0.1l-0.4,0.1l-0.6,0l-0.2,0.3l-0.1-0.1c-0.4,0.2-0.6,0.3-0.7,0.4l-0.2,0.2
			l-0.1-0.1c-0.3,0-0.6,0.1-0.9,0.2c0,0.1,0.1,0.2,0.1,0.3c0,0.1,0,0.1-0.1,0.2c-0.1,0.1-0.1,0.1-0.1,0.2c0,0.2,0.2,0.4,0.5,0.6
			l0.1-0.2l0.3,0.2l0.2-0.4l0.3,0.1l0.2-0.2l0.3,0l0.1-0.2h0.4l0.2-0.1v0.1l0.4-0.3l0.2,0.1h0.2c0,0.3,0.1,0.5,0.2,0.6l0,0.4l0,0.3
			l0,0.4l0.1,0.2l-0.1,0.5l0.1,0.4l-0.1,0.5l0.1,0.4l0,0.2v0.3l-0.1,0.3l0.2,0.2h-0.2v0.1h-0.1c-0.1,0-0.1,0-0.1,0.1
			c0,0.1,0.1,0.1,0.2,0.1l0.1,0.3c-0.1,0.1-0.1,0.2-0.1,0.3c0,0.1,0.1,0.1,0.2,0.2v0.1l-0.1,0l0.1,0.2l-0.3-0.1l0.1,0.1l-0.1,0.1
			l0-0.1l-0.1,0.1l0.2,0.1l0.2,0.3l0.2,0.1l-0.4,0.2l0.2,0.3l-0.2,1.3l0.1,0.9l-0.1,0.2l0.1,0.1l-0.1,0.4l0.2,0.3
			c-0.1,0.5-0.2,0.8-0.2,1c0,0.2,0.1,0.4,0.4,0.4l-0.2,0.2l0.1,0.5l-0.2,0.4l0.2,0.6l-0.2,0.3c0.1,0.3,0.2,0.5,0.2,0.6
			c0,0.1-0.1,0.2-0.2,0.3l0.2,0.9l-0.1,0.8l-0.2,0.4l0.1,1.1l0,0.5c0.2,0,0.3,0.1,0.4,0.1c0.1,0,0.2-0.2,0.2-0.4l0.1-2.1
			c0-0.1,0.1-0.3,0.2-0.5l-0.1,0c0-0.1,0-0.2,0-0.3c0-0.2,0.1-0.2,0.2-0.3v-0.3l-0.2-0.1l0.2-0.6l-0.2-0.5l0.2-0.3l-0.1-0.9l0.1-0.7
			c0-0.3,0-0.7-0.1-1l0.2-0.3l-0.1-0.3c0.1-0.2,0.1-0.4,0.1-0.5c0-0.1,0-0.2-0.1-0.3c0-0.1-0.1-0.2-0.1-0.2c0-0.1,0-0.2,0.1-0.3
			c0.1,0.1,0.3,0.1,0.4,0.1c0.1,0,0.2,0,0.4-0.1l0.3,0.2l0.6-0.1l0.2,0.2l0.5-0.1l0.8,0.1l0.1,0.1c0.2-0.1,0.2-0.2,0.3-0.2l0.6,0.3
			l0-0.2l0.2,0.1c0.4-0.1,0.6-0.1,0.7-0.2l0.2,0c0.3-0.2,0.4-0.3,0.4-0.3l0.1-0.2l0.3,0l0.1-0.3c0.1-0.1,0.2-0.2,0.3-0.4l-0.2-0.1
			l0.2-0.3L345.8,452.7z"/>
		<path class="st0" d="M353.7,447.6c-0.2,0.2-0.4,0.3-0.7,0.3l-0.1,0.3h-0.2l-0.2,0.3l-0.3,0.1c-0.1,0.1-0.2,0.2-0.2,0.2
			c0,0-0.1,0-0.2-0.1l-0.1,0.2c-0.3,0.1-0.5,0.2-0.8,0.3l-0.4-0.1l-0.1-0.2l-0.2-0.1c0.4-0.7,0.7-1.1,0.7-1.2c0-0.2,0.1-0.3,0.1-0.3
			l0.2-0.2l0.4-0.7l0.2-0.2c0.1-0.1,0.1-0.2,0.2-0.2c0,0,0-0.1,0-0.1c0,0,0-0.1,0-0.1c0,0,0-0.1,0-0.1c0,0,0,0,0.1-0.1
			c0,0,0,0,0.1,0c0,0,0,0,0.1,0c0,0,0.1,0,0.1,0l0.1-0.2c0.3-0.1,0.6-0.2,0.7-0.2c0.1-0.2,0.1-0.2,0.3-0.2l0.2,0.1
			c0,0,0.1,0,0.3-0.1l0.5,0.2c0.1,0.4,0.2,0.6,0.2,0.8c0,0.1,0,0.3-0.1,0.4c0,0.1-0.2,0.3-0.4,0.7l-0.1,0.3
			c-0.2,0.2-0.3,0.3-0.3,0.3V447.6z M355.6,453.6c-0.1,0.4-0.3,0.7-0.7,0.8l-0.1,0.2c-0.1,0-0.2,0.1-0.2,0.2c0,0,0,0.1-0.1,0.1
			c0,0-0.2,0.1-0.6,0.3l0,0.1h-0.2l-0.2,0.3c-0.1,0-0.3,0.2-0.6,0.3l-0.7,0.1l-1-0.1l-0.7-0.1v-0.2c-0.2-0.1-0.5-0.2-0.7-0.4
			c-0.2-0.2-0.3-0.3-0.2-0.4c-0.1,0-0.2-0.2-0.2-0.5c0-0.3-0.1-0.4-0.1-0.5l0-0.4l0-0.3l0.1-0.1l-0.1-0.9l0.1-0.1
			c0.1-0.1,0.1-0.4,0.1-0.7l0.2-0.2c0-0.4,0.1-0.7,0.4-1c0.3,0,0.5,0.1,0.5,0.1l0.2,0.1l0.5-0.2h0.3l0.6-0.4c0.1,0,0.2,0,0.2,0
			c0.1,0,0.1,0,0.2-0.2c0.4-0.2,0.9-0.5,1.5-1.1l0-0.4l0.5-0.7l0.3-0.8l0.1-0.1l-0.1-0.7l0.1-0.3c0-0.5-0.1-0.9-0.4-1l0.1-0.1
			c-0.1-0.1-0.1-0.1-0.2-0.3h-0.1c-0.3,0-0.4-0.1-0.5-0.4H354l-0.1-0.1l-0.2,0.1c-0.1-0.1-0.2-0.2-0.2-0.2c0,0-0.2,0.1-0.5,0.2
			c-0.1,0.2-0.2,0.3-0.2,0.3c-0.1,0-0.2,0-0.2,0c-0.3,0.3-0.5,0.5-0.7,0.6c-0.1,0.1-0.2,0.3-0.3,0.4l-0.2,0.1l-0.1,0.3h-0.1
			c0,0.2-0.1,0.4-0.2,0.5c-0.2,0.4-0.4,0.8-0.6,1.2c-0.1,0.1-0.2,0.2-0.2,0.3c0,0.1,0,0.1,0,0.2c-0.3,0.1-0.4,0.1-0.5,0.1
			c-0.1,0-0.2-0.1-0.3-0.2c-0.1,0.2-0.1,0.4-0.1,0.6l0.1,0.8c0,0.1-0.1,0.2-0.2,0.4l0.2,0.3l-0.2,0.2c0,0.3,0.1,0.5,0.1,0.7
			c-0.1,0.1-0.1,0.3-0.2,0.4c0,0.1-0.1,0.2-0.2,0.3l0.1,0.3l-0.1,0.5v0.6l-0.1,0.5l-0.1,0.9l0.3,1.2v0.2c0.2,0.1,0.2,0.2,0.3,0.3
			l0.1,0.3l0.4,0.2v0.3c0.2,0.2,0.5,0.4,1,0.4l0.2,0.1c0.1,0,0.3,0,0.3,0c0.1,0.1,0.3,0.1,0.5,0.1c0.1,0,0.3,0,0.4-0.1l0.2,0.1
			c0.1-0.2,0.3-0.3,0.5-0.3l0.2,0l0.1-0.1h0.4l0.2-0.3l0.2,0l0.1-0.3l0.7-0.5l0.3-0.1l0.3-0.6l0.2,0c0.1-0.3,0.2-0.5,0.4-0.7
			c0.2-0.2,0.2-0.4,0.2-0.4c0-0.1-0.1-0.2-0.2-0.4C355.7,453.5,355.6,453.5,355.6,453.6z"/>
		<path class="st0" d="M366.7,445.4c-0.1,0-0.2,0-0.3,0.1l-0.2-0.1c-0.1,0.1-0.2,0.1-0.4,0.1h-0.1c-0.2,0-0.5,0.2-0.9,0.5l-0.2,0.1
			l-0.1,0.2l-0.4,0.2c0,0.1-0.1,0.1-0.1,0.1c-0.3,0.2-0.4,0.4-0.5,0.5l-0.2,0.1c-0.1,0.2-0.2,0.3-0.4,0.5l-0.4,0l0,0.3l-0.4,0.2
			l0.1,0.3h-0.2l0,0.2l-0.4,0.3l-0.2,0.5h-0.1c0,0-0.1,0-0.1,0.1c0,0.1,0,0.1-0.1,0.1l-0.2,0.1v0.2c0,0.2-0.1,0.5-0.3,0.7
			c-0.2,0.2-0.3,0.4-0.3,0.5l-0.1,0.5l-0.2-0.1l-0.1-0.6l0.1-0.1l-0.2-0.4l0.1-0.3l-0.1-0.4l0.1-0.4l-0.1-0.6
			c0.1-0.1,0.2-0.2,0.2-0.3l-0.3-2l0.1-0.7c-0.2-0.2-0.3-0.4-0.3-0.6l-0.2-0.1c-0.3,0.1-0.5,0.3-0.7,0.4c0,0.1,0.1,0.2,0.2,0.2v0.4
			c0,0.3,0.1,0.6,0.3,0.9l-0.2,0.4l0.2,0.1l0.2,0.9l-0.1,0.1c0,0.2,0.1,0.4,0.1,0.5l-0.1,0.4l0.2,0.5l-0.1,0.2l0.1,0.2l-0.1,0.7
			l0.1,0.2l-0.1,0.4l0.1,0.5l-0.1,0.1c0,0.1,0,0.2,0,0.4v0.4c-0.1,0.1-0.2,0.3-0.2,0.3c0,0.1,0.1,0.1,0.2,0.2l0.1,0.6l-0.1,0.9
			l0.1,0.2l-0.1,0.4l0.1,0.2v0.3l0.6,0.1l-0.1-0.2l0.3,0.1c0.1-0.1,0.2-0.2,0.3-0.4l-0.2-0.2c-0.1-0.1-0.1-0.1-0.1-0.2l-0.1-0.5
			l0.1-0.4c0-0.1,0-0.2-0.1-0.4l0.3-0.4l-0.1-0.3c0.2-0.5,0.4-0.8,0.4-0.9l-0.1-0.2l0.3-0.1l-0.1-0.1c0-0.1,0.1-0.2,0.1-0.3v-0.6
			l0.2-0.1c0-0.1,0.1-0.3,0.3-0.6l0.2-0.4l0.2-0.1l0.1-0.2l0.1,0.1c0-0.4,0.2-0.6,0.3-0.7l0.3-0.5c0.1-0.1,0.2-0.2,0.3-0.3l0.3-0.2
			l0.1-0.4h0.3l0.3-0.4l0.4-0.2v-0.1c0.1,0,0.3-0.2,0.5-0.3l0.4-0.2l0.4-0.3l0.3-0.1l0.5-0.4l0.8-0.1l0.1-0.3
			C367.2,445.5,367,445.5,366.7,445.4z"/>
		<path class="st0" d="M376,446.9l-0.2,0.2c0,0.2-0.1,0.3-0.2,0.5l0.1,0.2l-0.2,0.1l-0.1,0.3c-0.1,0.1-0.2,0.2-0.4,0.5
			c0.1,0.1,0.1,0.1,0.1,0.2c0,0,0,0.1-0.1,0.1l0,0.3h-0.2c0,0-0.1,0-0.2,0.1c-0.1,0.1-0.2,0.2-0.2,0.3c-0.2,0.1-0.3,0.3-0.3,0.5
			l-0.1-0.1c-0.1,0.1-0.2,0.3-0.3,0.4c-0.1,0.2-0.2,0.3-0.2,0.3c0,0,0,0.1,0,0.1l-0.2,0.1l0.1,0.2l-0.3,0.3H373
			c0,0.2-0.2,0.4-0.6,0.6l-0.2,0.5c-0.2,0.1-0.3,0.2-0.4,0.2l-0.3,0.3h0.1l-0.5,0.6c0,0.1,0,0.1-0.1,0.1h-0.1
			c-0.1,0.1-0.2,0.2-0.2,0.3c0,0.1,0,0.1-0.1,0.1c0,0-0.2,0-0.4,0.1l0.1,0.2c-0.3,0-0.5,0.2-0.6,0.4l-0.6,0.1
			c-0.1-0.1-0.2-0.2-0.4-0.3l-0.1-0.2l-0.1-0.1l0.1-0.3l0-0.6l0.2-0.3l-0.2-0.5l0.2-0.2l-0.1-0.2c0.1-0.2,0.3-0.3,0.4-0.3l-0.1-0.3
			c0.1-0.3,0.1-0.5,0.1-0.7l0.1-0.1v-0.5l0.1-0.1c0-0.2,0.1-0.3,0.2-0.5v-0.4l0.2-0.3v-0.1c0-0.3,0.1-0.6,0.2-0.8l-0.1-0.2l0.3-0.3
			l-0.2-0.1c0.2-0.4,0.3-0.8,0.5-1.3c0.2-0.5,0.4-0.7,0.6-0.8v-0.2l0.3,0l0.1-0.1l0.2-0.1l-0.1-0.1c0.4-0.2,0.7-0.3,0.9-0.3l0.4,0.1
			l0.2-0.1l0.1,0.1l0.3-0.1l0.1,0.2h0.4l0.1,0.1c0.1,0,0.2,0,0.2,0c0.1,0,0.2,0,0.3,0.1l0.7,0.7l0.4,0.1l0.2,0.5L376,446.9z
			 M377.2,455.4C377.2,455.4,377.2,455.4,377.2,455.4L377.2,455.4c-0.1-0.1-0.2-0.2-0.2-0.3c0,0,0-0.1,0.1-0.1l-0.2-0.3l-0.5-0.1
			l-0.1-0.4h-0.2c0.1-0.2,0.2-0.4,0.2-0.5c0-0.1,0-0.2,0-0.2l0-0.1l-0.2-0.1c0.1-0.5,0.2-0.8,0.3-1c-0.1-0.1-0.2-0.2-0.2-0.3
			l0.2-0.3l-0.1-0.3c0-0.2,0-0.3,0.1-0.4l0.1-0.2l-0.1-0.2c0.1-0.1,0.1-0.2,0.1-0.2c0-0.1,0-0.1,0-0.1l0.1-0.1l-0.1-0.1l0.1-0.1
			l-0.1-0.6l0.2-0.2l-0.1-0.2l0.1-0.3l0-0.2l0.1-0.2c0-0.1,0-0.1-0.1-0.1c0-0.3,0-0.5,0.1-0.6c0.1-0.1,0.1-0.2,0.1-0.2l-0.2-0.3
			c0.1-0.2,0.2-0.4,0.2-0.5l0.1-0.4l0.2-0.3l-0.2-0.7l0.1-0.1l-0.3-0.1h0.1v-0.4c-0.4,0.1-0.7,0.3-1,0.4v-0.2l-0.6-0.1l-0.2-0.2
			l-0.1,0c-0.2,0-0.3-0.1-0.3-0.2l-0.1,0.1c0-0.1-0.1-0.2-0.2-0.2h-0.1l-1.1-0.2v-0.1l-1.4-0.1l-0.5,0.2c0,0.1-0.2,0.2-0.6,0.2
			c0.1,0,0.1,0.1,0.1,0.1c0,0.1-0.1,0.1-0.3,0.1h-0.1c-0.1,0.1-0.2,0.3-0.4,0.5c-0.2,0.2-0.3,0.3-0.4,0.4c0,0,0,0.1,0,0.1
			c0,0.1,0,0.1-0.1,0.1v0.4c-0.1,0-0.2,0-0.2,0.1c0,0.1,0,0.2,0.1,0.3l-0.1,0.1l0,0.5c-0.2,0.3-0.4,0.6-0.4,1v0.1l-0.3,0.6l0.2,0.1
			c0,0.1-0.1,0.2-0.2,0.3c-0.1,0.2-0.2,0.3-0.2,0.5v0.1c-0.2,0-0.3,0-0.3,0.1c0,0.1,0.1,0.1,0.2,0.2c-0.1,0-0.1,0.1-0.1,0.1
			c0,0,0,0.1,0.1,0.1c0.1,0.1,0.1,0.1,0.1,0.2c0,0.1-0.1,0.3-0.2,0.5l-0.1,0c0,0.1-0.1,0.2-0.1,0.3c0,0.1,0,0.2,0.1,0.3
			c-0.1,0.1-0.1,0.2-0.1,0.3c0,0.1,0,0.1,0,0.2l-0.2,1c0,0.2-0.1,0.4-0.1,0.5c0,0.1,0,0.2-0.1,0.3l-0.1,0.1l0.1,0.1
			c0,0.4,0.1,0.7,0.2,1l-0.2,0.1c0,0.5,0.4,0.8,1,1.1c0.1,0.3,0.2,0.4,0.3,0.4h0.1c0.2-0.2,0.3-0.3,0.4-0.3l0.3-0.1l0.8-1l0.8-0.5
			l0.1-0.3l0.6-0.6l0.2-0.3l0.6-0.6l0.4-0.7l0.2-0.1c0.1-0.2,0.2-0.3,0.4-0.5v-0.2l0.2-0.1l0.1-0.4l0.3-0.1l0-0.3
			c0.1-0.1,0.2-0.2,0.3-0.4l0.4-0.2c0.1,0.1,0.2,0.2,0.2,0.2l-0.1,0.3v0.5h-0.1l0,0.3l-0.1,0.1l-0.1,0.2l0.2,0.2l-0.2,0.1l0.2,0.3
			l-0.1,0.6l0.2,1.7l-0.1,0.8l0.2,0.2v0.6l0.4,0.5l0.2-0.1l0.1,0.1c0.1-0.1,0.3-0.1,0.4-0.1l0.1-0.2l0.4-0.2
			C377.3,455.5,377.2,455.4,377.2,455.4z"/>
		<path class="st0" d="M402.1,451.1l-0.5,0.3l-1.4,1.5l-0.4,0.2l-0.3,0.4c-0.4,0.2-0.6,0.3-0.7,0.3l-0.2,0.3
			c-0.4,0.2-0.6,0.3-0.8,0.3c-0.3,0.1-0.5,0.2-0.7,0.4c-0.3,0-0.5,0.1-0.6,0.3c-0.2,0-0.3-0.1-0.4-0.1c-0.3,0-0.4,0.1-0.5,0.2
			c-0.1,0.1-0.3,0.2-0.6,0.2H395l-0.4,0.2l-0.2-0.2l-0.4,0c0-0.1,0-0.1-0.1-0.1c-0.1,0-0.2,0.1-0.3,0.2l-0.6,0.2l-0.3-0.3l-0.6,0.2
			l-0.3-0.3l-1.1-0.1l0.1-0.3l-0.8-0.3l0-0.3l-0.5-0.5l0.1-0.3l-0.2-0.3v-0.3l-0.2-0.2c0-0.2-0.1-0.4-0.3-0.7l0.1-0.8l0-1l0.1-0.1
			v-0.4h0.2l-0.1-0.2l0.3-0.5l-0.1-0.5h0.2l0.2-0.9l0.5-0.8v-0.4l0.4-0.3l0.2-0.7l0.2-0.1l0.5-0.8l0.7-0.7l0.4-0.6
			c0.1-0.1,0.3-0.1,0.4-0.1c0.1,0,0.3,0,0.3,0l0.3-0.2l0.3,0.1l0.3-0.2l0.2,0.2c0-0.1,0.1-0.2,0.4-0.2l0.4,0.3h0.6
			c0,0.1,0.1,0.1,0.1,0.1c0.1,0,0.1,0.1,0.1,0.1v0c0,0,0.1,0.1,0.2,0.1c0.5,0.1,0.9,0.5,1.2,1l-0.1,0.5v0.6l0.1,0.5v0.4
			c0,0.1,0,0.2,0.1,0.3c0,0.1,0,0.2,0.1,0.2l0.1,0.1c0,0,0.1,0.1,0.1,0.1l0.2,0.1l0.5-0.1c0-0.1,0.1-0.2,0.3-0.3
			c0.1-0.1,0.2-0.2,0.2-0.3c0,0,0,0,0-0.1c0-0.2,0-0.4,0.1-0.6l0-0.6c0-0.1-0.1-0.4-0.2-0.8l-0.2-0.5c-0.2-0.1-0.3-0.3-0.4-0.6
			l-1.8-1.2l-0.8-0.3c-0.1-0.1-0.2-0.1-0.2-0.1l-0.5-0.1c-0.3,0-0.6,0.1-0.9,0.2l-0.3-0.1l-0.2-0.2l-0.3,0.3l-0.1-0.1
			c-0.3,0.1-0.5,0.2-0.5,0.2l-0.2,0.2c-0.2,0-0.4,0.2-0.5,0.4c-0.1,0.2-0.4,0.4-0.8,0.5l-0.1,0.4l-0.3,0.2l-0.1,0.6
			c-0.2,0.1-0.3,0.3-0.5,0.6l-0.3,0.1c0.1,0.1,0.1,0.2,0.1,0.3c0,0.1-0.1,0.3-0.3,0.5c-0.2,0.2-0.3,0.4-0.3,0.7
			c0,0.3-0.1,0.4-0.2,0.5l-0.1,0.4l-0.1,0l-0.2,0.6l-0.3,1.2l0,0.4l-0.2,0.1v0.5l-0.2,0.4c0,0.2,0.1,0.4,0.2,0.6l-0.1,0.8v0.1
			c0,0.2,0,0.3,0.1,0.5c0.1,0.2,0.1,0.3,0.3,0.5c0.1,0.1,0.1,0.3,0.2,0.4c0.1,0.2,0.1,0.3,0.2,0.4c0.1,0.1,0.1,0.2,0.2,0.2
			c0.1,0.1,0.2,0.2,0.2,0.4c0,0.2,0.1,0.3,0.1,0.3c0,0,0.3,0.1,0.7,0.2l0.1,0.3c0.3,0.1,0.5,0.2,0.6,0.2l0.2,0.2l0.5,0.2l0.2-0.1
			l0.4,0.1c0.1-0.1,0.2-0.1,0.3-0.1l0.4,0.1c0.1,0.1,0.2,0.2,0.3,0.2c0.1,0,0.2,0,0.3-0.1h0.1c0,0,0.1,0,0.3,0.1
			c0.1,0,0.3,0.1,0.4,0.1c0.1,0,0.2,0,0.5-0.1l0.3-0.1l0.4,0.1c0.5-0.4,0.9-0.6,1.3-0.6h0.2c0.1,0,0.2,0,0.2,0c0,0,0.2-0.1,0.4-0.2
			c0.2-0.1,0.4-0.2,0.5-0.2c0.1,0,0.2-0.1,0.3-0.1c0.1-0.1,0.2-0.1,0.3-0.2c0.1-0.1,0.3-0.2,0.5-0.4c0.3-0.2,0.5-0.3,0.8-0.3
			c0.2-0.2,0.3-0.4,0.5-0.6l0.9-0.6l0.2-0.6c0.4,0,0.7-0.1,0.7-0.3l-0.1-0.4l0.5-0.3L402.1,451.1z"/>
		<path class="st0" d="M411.3,450.5c0,0,0,0.1-0.1,0.2c0,0.1-0.1,0.2-0.1,0.4c0,0,0,0.1,0,0.2c0,0.1,0,0.1,0,0.2
			c0,0.1,0,0.1-0.1,0.2h0.1c-0.1,0.1-0.2,0.2-0.3,0.4l0.1,0.1l-0.4,0.2l0,0.2c-0.1,0.2-0.2,0.5-0.2,0.7l-0.4,0.2
			c-0.1,0.1-0.2,0.1-0.2,0.2l-0.2,0.2l-0.4,0.4l-0.1,0.3h-0.4c0,0.1-0.1,0.2-0.3,0.4l-0.1,0.3l-0.2,0l-0.1,0.2l-0.4-0.1
			c0,0.2-0.1,0.3-0.4,0.3l-0.3,0l-0.1,0.2l-0.3,0.1l-0.6,0l-0.3,0.1l-0.2-0.1l-0.2,0.1l-0.1-0.1c-0.3-0.1-0.4-0.2-0.5-0.3l-0.4-0.5
			l0-0.6l0.1-0.4v-0.6l-0.1-0.3l0.3-0.8l-0.1-0.4l0.1-0.2v-0.2l0.2-0.4v-0.3c0.2-0.1,0.2-0.3,0.2-0.4c0-0.3,0-0.5,0.1-0.5l0.3-0.2
			c0-0.1-0.1-0.3-0.1-0.5c0-0.2,0-0.3,0.1-0.4l0.3-0.2l0.1-0.8l0.3-0.2l0.1-0.3l0.8-0.5l0.5,0l0-0.9c0-0.3,0.2-0.4,0.7-0.4l0.3,0.1
			l0.7,0.3l0.3,0.2l0.3,0.2l-0.1,0.2l0.1,0.2l0.3,0l0.2,0.1c-0.1,0.2-0.1,0.3-0.1,0.3v0c0,0.1,0,0.1,0.1,0.1c0.1,0,0.1,0.1,0.1,0.1
			v0.1c0,0.1,0.1,0.1,0.3,0.3l0.2,0.4l-0.1,0.6l0.2,0.4l-0.1,0.1c0.1,0.1,0.2,0.2,0.2,0.3h-0.2c0,0,0,0.1,0.1,0.1
			c0.1,0.1,0.1,0.1,0.1,0.2c0,0.1-0.1,0.2-0.2,0.3C411.2,450.4,411.3,450.4,411.3,450.5z M411.8,448.7v-0.2l-0.4-1.2l-0.4-0.6
			l-0.2-0.1l-0.1-0.3c-0.2-0.1-0.4-0.3-0.6-0.7l-0.1,0c-0.1,0-0.2-0.1-0.2-0.3h-0.4c-0.3-0.2-0.5-0.3-0.7-0.3v-0.2l-0.4,0.2
			c-0.3,0-0.5,0-0.6-0.1c-0.1,0-0.2-0.1-0.2-0.1c-0.1,0-0.1,0.1-0.3,0.2h-0.2c-0.2,0.6-0.6,0.9-1.2,0.9c0.1,0.2,0.1,0.3,0.1,0.5
			c0,0.3-0.1,0.4-0.4,0.4l0.1,0.3c0,0-0.1,0-0.1,0.1c-0.1,0-0.1,0.1-0.2,0.2l-0.3,0.4c0.1,0.1,0.1,0.2,0.1,0.3
			c0,0.1-0.1,0.3-0.4,0.4c-0.1,0.1-0.1,0.2-0.1,0.3l0.1,0.4c0,0.2-0.1,0.4-0.2,0.6v0.3l-0.1,0.4l0.1,0.2c0,0.2-0.1,0.4-0.2,0.5h-0.2
			c-0.1,0.2-0.2,0.4-0.2,0.6v0.1c-0.2,0.1-0.3,0.3-0.3,0.4c0,0.1,0,0.2,0,0.4c0,0.2,0,0.3,0,0.3l-0.2,0.4l0.2,0.7l-0.2,0.3l0.4,0.9
			l-0.1,0.3c0.3,0.3,0.5,0.6,0.7,0.9l0.9,0.1l0.4,0.2l0.1-0.2l0.3,0.2l0.2-0.3c0.2,0,0.4-0.2,0.7-0.4c0.1,0,0.2,0.1,0.2,0.1
			c0.1,0,0.3-0.1,0.4-0.2c0.4,0,0.7-0.2,0.7-0.5c0.1,0,0.2-0.1,0.4-0.2c0.2-0.1,0.3-0.1,0.3-0.2c0-0.1,0.2-0.2,0.3-0.4l0.3-0.1
			l0-0.3l0.4-0.2l0.2-0.5l0.3-0.2l0.1-0.3l0.2-0.1c0.1-0.4,0.2-0.6,0.3-0.7l0.2-0.2l0.2-0.5v-0.3c0.1-0.2,0.2-0.3,0.2-0.4l0.1-0.6
			l-0.1-0.2l0.2-0.6L411.8,448.7z"/>
		<path class="st0" d="M435.3,453.2l-0.4,0l-0.2,0.3l-0.3,0.2c-0.1,0.2-0.3,0.4-0.4,0.6c-0.2,0.1-0.4,0.2-0.5,0.3
			c-0.1,0.1-0.2,0.1-0.4,0.2c-0.2,0.1-0.3,0.1-0.4,0.1c-0.1,0-0.2,0-0.3-0.1l-0.4-0.1l-0.3-0.1c-0.1-0.1-0.2-0.2-0.4-0.3l-0.1-0.6
			l-0.3-0.2c-0.1-0.5-0.1-0.8-0.2-0.9c-0.2-0.4-0.2-0.7-0.2-1.1c0.1-0.1,0.1-0.1,0.1-0.2c0-0.1,0-0.1-0.1-0.1
			c0.1-0.1,0.1-0.1,0.1-0.2c0-0.2,0-0.3-0.2-0.3c-0.1-0.1-0.1-0.2-0.1-0.2c0-0.1,0-0.1,0.1-0.1c0,0,0.1-0.1,0.1-0.1l-0.1-0.3
			l0.1-0.2l0-0.5c0-0.4,0.1-0.7,0.2-0.9c0-0.1-0.1-0.1-0.2-0.2l0.2-1.2l0.2-0.3c-0.1,0-0.1-0.1-0.1-0.2c0-0.1,0.1-0.1,0.2-0.2
			l-0.2-0.2l0.1-0.1l-0.4-0.2l-0.4,0.2c-0.1,0.3-0.2,0.5-0.4,0.6c-0.2,0.6-0.4,0.9-0.7,1c-0.1,0.2-0.1,0.4-0.2,0.6l-0.3,0.5
			c-0.1,0.1-0.2,0.3-0.5,0.6c-0.1,0.2-0.3,0.5-0.3,0.7c-0.3,0.3-0.5,0.5-0.5,0.8v0.1c-0.3,0.2-0.4,0.3-0.4,0.3
			c0,0.1-0.1,0.1-0.1,0.3c-0.2,0-0.3,0.2-0.3,0.4c0,0.3-0.1,0.4-0.2,0.4c-0.1,0.1-0.2,0.3-0.3,0.6c-0.1,0.2-0.2,0.4-0.2,0.4
			l-1.2,1.5l-0.4-0.1c0-0.2-0.1-0.4-0.2-0.6l0.1-0.1l0.1-0.2c0-0.4-0.1-0.9-0.2-1.4l0.1-0.1l-0.1-0.3l0.1-0.2l-0.1-0.7
			c0-0.2,0-0.4,0.1-0.6l-0.1-0.8l0.2-0.3l-0.1-0.4l0.1-0.4c0-0.3-0.1-0.6-0.3-1v-0.3l-0.2-0.3v-0.4c-0.2-0.4-0.4-0.6-0.4-0.7
			l-0.2-0.1c0-0.1,0.1-0.1,0.1-0.2c0,0,0-0.1-0.1-0.2c-0.4-0.1-0.6-0.2-0.6-0.2c-0.1,0-0.3,0.1-0.6,0.3c-0.1,0.3-0.2,0.5-0.3,0.5
			l-0.1,0c0,0.2-0.1,0.3-0.3,0.4c0,0.1-0.1,0.2-0.2,0.2c0,0.1-0.1,0.3-0.3,0.4c-0.2,0.2-0.3,0.4-0.5,0.7c-0.1,0.3-0.2,0.5-0.3,0.5
			l-0.5,0.5c-0.1,0.2-0.2,0.3-0.3,0.3l0,0.2l-0.3,0.5c-0.1,0.3-0.2,0.5-0.2,0.5c-0.1,0.1-0.1,0.1-0.2,0.2c-0.1,0.1-0.1,0.2-0.1,0.3
			c-0.1,0.2-0.3,0.3-0.4,0.5c-0.1,0.2-0.2,0.3-0.3,0.4c-0.1,0.1-0.1,0.1-0.2,0.1c-0.2,0.2-0.3,0.4-0.3,0.5c0,0.1-0.1,0.2-0.1,0.3
			c-0.1,0.1-0.1,0.2-0.2,0.2l-0.1,0.4l-0.5,0.7l-0.3-0.2c0.1-0.1,0.1-0.2,0.1-0.3c0,0,0-0.1-0.1-0.3c0,0,0.1-0.1,0.1-0.2
			c0-0.1,0-0.2,0-0.3c0-0.1,0-0.3,0.1-0.5l0.1-0.3l-0.1-0.7c0.1-0.1,0.2-0.2,0.2-0.3l-0.1-0.2c0-0.1,0.1-0.2,0.2-0.3l-0.1-0.2
			l0.1-0.1l-0.1-0.3l0.1-0.3l0.1-1l-0.1-1.3v-0.1c0-0.1,0.1-0.3,0.2-0.6c-0.1,0-0.2-0.1-0.2-0.2l0-0.6c0-0.2-0.1-0.4-0.3-0.4
			l-0.1-0.4l-0.1-0.1c-0.2,0-0.3,0.2-0.5,0.6l0.2,0.4l-0.1,0.5l0.2,0.7l-0.1,0.4l0.2,0.9l-0.1,0.3l0.2,0.5c0,0.2-0.1,0.3-0.2,0.5
			c-0.1,0.2-0.1,0.3-0.1,0.3c0,0,0,0.1,0,0.1c0,0.1,0,0.1-0.1,0.2l0.2,0.3c-0.1,0.1-0.2,0.2-0.2,0.4v0.4c0,0,0,0.2,0,0.3
			c0,0.2,0,0.3,0,0.4l-0.1,0.2c-0.1,0.1-0.1,0.2-0.1,0.4v0.1l0,0.4l0,0.4l0.1,0.6c-0.1,0.1-0.1,0.3-0.1,0.4v0.4
			c0.1,0.1,0.2,0.2,0.2,0.3c0,0.1,0,0.1,0,0.2c0.1,0.4,0.2,0.6,0.3,0.6c0.1,0,0.3-0.1,0.4-0.3c0.2-0.2,0.3-0.3,0.4-0.3
			c0.1-0.1,0.1-0.1,0.1-0.3v-0.1c0.1-0.1,0.2-0.2,0.3-0.4c0.1-0.2,0.3-0.4,0.5-0.5c-0.1-0.1-0.1-0.1-0.1-0.2c0,0,0.1-0.2,0.3-0.3
			v-0.1c0-0.1,0-0.2,0.1-0.4c0.1,0,0.2-0.1,0.3-0.3c0-0.2,0.1-0.4,0.3-0.4c0.1-0.3,0.1-0.4,0.2-0.5c0.1-0.1,0.2-0.2,0.3-0.4
			c0.1-0.2,0.2-0.3,0.2-0.4l0-0.5c0.1-0.1,0.2-0.2,0.3-0.2c0.1,0,0.2-0.1,0.2-0.3c0.1-0.2,0.1-0.4,0.3-0.4l0.2-0.5l0.4-0.5l0.1-0.3
			l0.7-1l0.3-0.3l0.4-0.5c0.4-0.2,0.6-0.4,0.7-0.4c0.1,0,0.1,0,0.1,0c0.1,0,0.1,0.1,0.2,0.2c0,0.1,0.1,0.4,0.3,0.8l0.1,0.4l-0.1,0.5
			l0.2,0.6l-0.1,1l-0.1,0.2l0.1,0.8l-0.2,0.4l0.1,0.2v0.2l0.1,0.2l-0.1,0.4l0.1,0.2l-0.1,0.9c0.1,0.1,0.1,0.3,0.1,0.3
			c0,0.1,0,0.1,0,0.2l0.2,0.9v0.3l0.2,0.3l0.1,0.4c0.1,0.2,0.2,0.3,0.3,0.3c0.4-0.2,0.6-0.3,0.8-0.3v-0.1c0-0.1,0.1-0.2,0.2-0.3
			c0.1,0,0.2-0.1,0.3-0.3c0.1-0.2,0.2-0.4,0.4-0.5c0.3-0.4,0.6-0.7,0.7-0.9c0.1-0.2,0.2-0.4,0.3-0.4c0.1-0.3,0.3-0.6,0.6-0.9v-0.1
			c0,0,0-0.1,0.1-0.1c0-0.1,0.1-0.2,0.2-0.3c0.1-0.1,0.2-0.3,0.3-0.4c0-0.4,0.1-0.6,0.3-0.6c0.1-0.3,0.3-0.6,0.7-0.8l0.2-0.6l0.6-1
			l0.3-0.4l0.1,1l-0.1,0.8l0,0.4l0.2,0.9l0,0.3l0.2,0.8v0.2l0.2,0.4l0.2,0.8l0.3,0.2l0,0.2c0,0.3,0.1,0.4,0.3,0.5l-0.1,0.2
			c0.2,0.1,0.4,0.2,0.4,0.4c0.1-0.1,0.2-0.1,0.2-0.1c0.1,0,0.1,0,0.2,0.1c0.4,0.1,0.7,0.1,0.9,0.1c0.2,0,0.4-0.1,0.6-0.2
			c0.2,0,0.3,0.1,0.3,0.1c0,0,0.1-0.1,0.2-0.2l0-0.3l0.2,0c0,0,0.1,0,0.2-0.1c0.1-0.1,0.2-0.2,0.3-0.3l0.1-0.1v-0.1
			c0-0.1,0.1-0.1,0.2-0.2c0.1-0.1,0.2-0.2,0.2-0.4l0.2-0.1l0.1-0.2C435.3,453.6,435.3,453.5,435.3,453.2z"/>
		<path class="st0" d="M445.4,452.5l0.1,0.2l-0.2,0.2l0.1,0.3l-0.1,0.3l-0.2,0.1l0,0.3l-0.2-0.1c0,0.2-0.1,0.2-0.2,0.2h-0.1
			c-0.1,0.1-0.5,0.2-1.1,0.3l0-0.1l-0.4,0.2l-0.3-0.1h-0.4c0-0.1-0.1-0.1-0.1-0.1c-0.1,0-0.1,0.1-0.2,0.2c-0.2-0.1-0.4-0.1-0.4-0.1
			c0,0-0.1,0-0.2,0c-0.1,0-0.1,0.1-0.2,0.1c-0.2-0.2-0.3-0.3-0.3-0.3c0,0-0.1,0.1-0.2,0.2l-0.1-0.2l-1,0.1l-0.1-0.5l0-0.4l-0.1-0.5
			l0.3-0.3l-0.2-0.3l0.2-0.2l-0.2-0.1l0-0.3l0.1-0.1l-0.2-0.3l0.1-0.3l-0.1-0.2l0.2-0.9l-0.1-0.5l0.2-0.5l-0.2-0.2l-0.2-0.6l0.1-0.6
			c0-0.2,0-0.4,0-0.4c0-0.1,0-0.1,0-0.1c0-0.2,0.1-0.3,0.2-0.3l0.8,0.1l0.2-0.1l0.1,0.2l0.2-0.1l0.1,0.2l0.2-0.1l0.1,0.1h0.3
			l0.4,0.1l0.1,0.2l0.2-0.1l0.3,0.5l0.3,0l0.3,0.1v0.1l0.4,0.5l0.3,0.1l0.2,0.6l0.3,0.2l0.5,0.8l0.1,0.3l0.2,0.4l0,0.3l0.2,0.3
			l-0.1,0.3l0.1,0.5l0,0.2l0,0.2L445.4,452.5z M446,452.7l0.2-0.5l-0.1,0v-0.2l-0.1-0.2l0.1-0.1c0-0.2-0.1-0.4-0.1-0.6
			c-0.1-0.2-0.1-0.3-0.1-0.3l0-0.3l-0.2-0.3v-0.3c-0.2-0.1-0.3-0.4-0.3-0.7l-0.2-0.1c-0.1-0.2-0.1-0.4-0.1-0.4l-0.2-0.2v-0.2h-0.1
			l-0.2-0.5l-0.3-0.2c0-0.2-0.1-0.4-0.4-0.5V447l-0.3-0.1l-0.1-0.1l-0.4-0.3c-0.1-0.1-0.2-0.1-0.3-0.2l-0.2-0.3l-0.2-0.1l0,0.1
			l-0.3-0.2l-0.1-0.2l-0.2,0.1c-0.1-0.1-0.2-0.2-0.4-0.2c-0.2,0-0.4-0.1-0.6-0.2c-0.2-0.1-0.5-0.2-0.8-0.2l-0.1,0.1l-0.2-0.1
			l-0.1,0.2c-0.3-0.1-0.5-0.3-0.6-0.7h-0.2l-0.1,0.6l-0.1-0.1l-0.4,0.1l-0.6,0l-0.2,0.3l-0.1-0.1c-0.4,0.2-0.6,0.3-0.7,0.4l-0.2,0.2
			l-0.1-0.1c-0.3,0-0.6,0.1-0.9,0.2c0.1,0.1,0.1,0.2,0.1,0.3c0,0.1,0,0.1-0.1,0.2c-0.1,0.1-0.1,0.1-0.1,0.2c0,0.2,0.2,0.4,0.5,0.6
			l0.1-0.2l0.3,0.2l0.2-0.4l0.3,0.1l0.2-0.2l0.3,0l0.1-0.2h0.4l0.2-0.1v0.1l0.4-0.3l0.2,0.1h0.2c0,0.3,0.1,0.5,0.2,0.6l0,0.4l0,0.3
			l0,0.4l0.1,0.2l-0.1,0.5l0.1,0.4l-0.1,0.5l0.1,0.4l0,0.2v0.3l-0.1,0.3l0.2,0.2h-0.2v0.1h-0.1c-0.1,0-0.1,0-0.1,0.1
			c0,0.1,0.1,0.1,0.2,0.1l0.1,0.3c-0.1,0.1-0.1,0.2-0.1,0.3c0,0.1,0.1,0.1,0.2,0.2v0.1l-0.1,0l0.1,0.2l-0.3-0.1l0.1,0.1l-0.1,0.1
			l0-0.1l-0.1,0.1l0.2,0.1l0.2,0.3l0.2,0.1l-0.4,0.2l0.2,0.3l-0.2,1.3l0.1,0.9l-0.1,0.2l0.1,0.1l-0.1,0.4l0.2,0.3
			c-0.1,0.5-0.2,0.8-0.2,1c0,0.2,0.1,0.4,0.4,0.4l-0.2,0.2l0.1,0.5l-0.2,0.4l0.2,0.6l-0.2,0.3c0.1,0.3,0.2,0.5,0.2,0.6
			c0,0.1-0.1,0.2-0.2,0.3l0.2,0.9l-0.1,0.8l-0.2,0.4l0.1,1.1l0,0.5c0.2,0,0.3,0.1,0.4,0.1c0.1,0,0.2-0.2,0.2-0.4l0.1-2.1
			c0-0.1,0.1-0.3,0.2-0.5l-0.1,0c0-0.1-0.1-0.2-0.1-0.3c0-0.2,0.1-0.2,0.2-0.3v-0.3l-0.2-0.1l0.2-0.6l-0.2-0.5l0.2-0.3l-0.1-0.9
			l0.1-0.7c0-0.3,0-0.7-0.1-1l0.2-0.3l-0.1-0.3c0.1-0.2,0.1-0.4,0.1-0.5c0-0.1,0-0.2-0.1-0.3c0-0.1-0.1-0.2-0.1-0.2
			c0-0.1,0-0.2,0.1-0.3c0.1,0.1,0.3,0.1,0.4,0.1c0.1,0,0.2,0,0.4-0.1l0.3,0.2l0.6-0.1l0.2,0.2l0.5-0.1l0.8,0.1l0.1,0.1
			c0.2-0.1,0.2-0.2,0.3-0.2l0.6,0.3l0-0.2l0.2,0.1c0.4-0.1,0.6-0.1,0.7-0.2l0.2,0c0.3-0.2,0.4-0.3,0.4-0.3l0.1-0.2l0.3,0l0.1-0.3
			c0.1-0.1,0.2-0.2,0.3-0.4l-0.2-0.1l0.2-0.3L446,452.7z"/>
		<path class="st0" d="M456.9,446.9l-0.2,0.2c0,0.2-0.1,0.3-0.2,0.5l0.1,0.2l-0.2,0.1l-0.1,0.3c-0.1,0.1-0.2,0.2-0.4,0.5
			c0.1,0.1,0.1,0.1,0.1,0.2c0,0,0,0.1-0.1,0.1l0,0.3h-0.2c0,0-0.1,0-0.2,0.1c-0.1,0.1-0.2,0.2-0.2,0.3c-0.2,0.1-0.3,0.3-0.3,0.5
			l-0.1-0.1c-0.1,0.1-0.2,0.3-0.3,0.4c-0.1,0.2-0.2,0.3-0.2,0.3c0,0,0,0.1,0,0.1l-0.2,0.1l0.1,0.2l-0.3,0.3h-0.2
			c0,0.2-0.2,0.4-0.6,0.6l-0.2,0.5c-0.2,0.1-0.3,0.2-0.4,0.2l-0.3,0.3h0.1l-0.5,0.6c0,0.1,0,0.1-0.1,0.1H452
			c-0.1,0.1-0.2,0.2-0.2,0.3c0,0.1,0,0.1-0.1,0.1c0,0-0.2,0-0.4,0.1l0.1,0.2c-0.3,0-0.5,0.2-0.6,0.4l-0.6,0.1
			c-0.1-0.1-0.2-0.2-0.4-0.3l-0.1-0.2l-0.1-0.1l0.1-0.3l0-0.6l0.2-0.3l-0.2-0.5l0.2-0.2l-0.1-0.2c0.1-0.2,0.3-0.3,0.4-0.3l-0.1-0.3
			c0.1-0.3,0.1-0.5,0.1-0.7l0.1-0.1v-0.5l0.1-0.1c0-0.2,0.1-0.3,0.2-0.5v-0.4l0.2-0.3v-0.1c0-0.3,0.1-0.6,0.2-0.8l-0.1-0.2l0.3-0.3
			l-0.2-0.1c0.2-0.4,0.3-0.8,0.5-1.3c0.2-0.5,0.4-0.7,0.6-0.8v-0.2l0.3,0l0.1-0.1l0.2-0.1l-0.1-0.1c0.4-0.2,0.7-0.3,0.9-0.3l0.4,0.1
			l0.2-0.1l0.1,0.1l0.3-0.1l0.1,0.2h0.4l0.1,0.1c0.1,0,0.2,0,0.2,0c0.1,0,0.2,0,0.3,0.1l0.7,0.7l0.4,0.1l0.2,0.5L456.9,446.9z
			 M458.1,455.4C458.1,455.4,458.1,455.4,458.1,455.4L458.1,455.4c-0.1-0.1-0.2-0.2-0.2-0.3c0,0,0-0.1,0.1-0.1l-0.2-0.3l-0.5-0.1
			l-0.1-0.4h-0.2c0.1-0.2,0.2-0.4,0.2-0.5c0-0.1,0-0.2,0-0.2l0-0.1l-0.2-0.1c0.1-0.5,0.2-0.8,0.3-1c-0.1-0.1-0.2-0.2-0.2-0.3
			l0.2-0.3l-0.1-0.3c0-0.2,0-0.3,0.1-0.4l0.1-0.2l-0.1-0.2c0.1-0.1,0.1-0.2,0.1-0.2c0-0.1,0-0.1,0-0.1l0.1-0.1l-0.1-0.1l0.1-0.1
			l-0.1-0.6l0.2-0.2l-0.1-0.2l0.1-0.3l0-0.2l0-0.2c0-0.1,0-0.1-0.1-0.1c0-0.3,0-0.5,0.1-0.6c0.1-0.1,0.1-0.2,0.1-0.2l-0.2-0.3
			c0.1-0.2,0.2-0.4,0.2-0.5l0.1-0.4l0.2-0.3l-0.2-0.7l0.1-0.1l-0.3-0.1h0.1v-0.4c-0.4,0.1-0.7,0.3-1,0.4v-0.2l-0.6-0.1l-0.2-0.2
			l-0.1,0c-0.2,0-0.3-0.1-0.3-0.2l-0.1,0.1c0-0.1-0.1-0.2-0.2-0.2h-0.1l-1.1-0.2v-0.1l-1.4-0.1l-0.5,0.2c0,0.1-0.2,0.2-0.6,0.2
			c0.1,0,0.1,0.1,0.1,0.1c0,0.1-0.1,0.1-0.3,0.1h-0.1c-0.1,0.1-0.2,0.3-0.4,0.5c-0.2,0.2-0.3,0.3-0.4,0.4c0,0,0,0.1,0,0.1
			c0,0.1,0,0.1-0.1,0.1v0.4c-0.1,0-0.2,0-0.2,0.1c0,0.1,0,0.2,0.1,0.3l-0.1,0.1l0,0.5c-0.2,0.3-0.4,0.6-0.4,1v0.1l-0.3,0.6l0.2,0.1
			c0,0.1-0.1,0.2-0.2,0.3c-0.1,0.2-0.2,0.3-0.2,0.5v0.1c-0.2,0-0.3,0-0.3,0.1c0,0.1,0.1,0.1,0.2,0.2c-0.1,0-0.1,0.1-0.1,0.1
			c0,0,0,0.1,0.1,0.1c0.1,0.1,0.1,0.1,0.1,0.2c0,0.1-0.1,0.3-0.2,0.5l-0.1,0c0,0.1-0.1,0.2-0.1,0.3c0,0.1,0,0.2,0.1,0.3
			c-0.1,0.1-0.1,0.2-0.1,0.3c0,0.1,0,0.1,0,0.2l-0.2,1c0,0.2-0.1,0.4-0.1,0.5c0,0.1,0,0.2-0.1,0.3l-0.1,0.1l0.1,0.1
			c0,0.4,0.1,0.7,0.2,1l-0.2,0.1c0,0.5,0.4,0.8,1,1.1c0.1,0.3,0.2,0.4,0.3,0.4h0.1c0.2-0.2,0.3-0.3,0.4-0.3l0.3-0.1l0.8-1l0.8-0.5
			l0.1-0.3l0.6-0.6l0.2-0.3l0.6-0.6l0.4-0.7l0.2-0.1c0.1-0.2,0.2-0.3,0.4-0.5v-0.2l0.2-0.1l0.1-0.4l0.3-0.1l0-0.3
			c0.1-0.1,0.2-0.2,0.3-0.4l0.4-0.2c0.1,0.1,0.2,0.2,0.2,0.2l-0.1,0.3v0.5h-0.1l0,0.3l-0.1,0.1l0,0.2l0.2,0.2l-0.2,0.1l0.2,0.3
			l-0.1,0.6l0.2,1.7l-0.1,0.8l0.2,0.2v0.6l0.4,0.5l0.2-0.1l0.1,0.1c0.1-0.1,0.3-0.1,0.4-0.1l0.1-0.2l0.4-0.2
			C458.2,455.5,458.1,455.4,458.1,455.4z"/>
		<path class="st0" d="M477,451.5h-0.2l-0.4,0.2c-0.2,0.3-0.4,0.6-0.5,0.7l-0.1,0.3c0,0.1-0.1,0.2-0.2,0.3c-0.1,0.1-0.2,0.2-0.3,0.2
			c0,0.1-0.1,0.1-0.1,0.1l0,0.1c-0.1,0.1-0.2,0.2-0.3,0.3c-0.3,0.1-0.5,0.2-0.5,0.3v0.1c0,0.1-0.1,0.2-0.4,0.2
			c-0.1,0.1-0.2,0.2-0.2,0.2c0,0-0.1,0-0.1-0.1c-0.1,0.1-0.3,0.1-0.4,0.1c-0.1,0-0.3-0.1-0.4-0.2v-0.1l-0.2-0.1l0.1-0.2l-0.2-0.3
			v-0.4l-0.1-0.1c0-0.2-0.1-0.4-0.2-0.6c-0.1-0.1-0.1-0.2-0.1-0.3l-0.1-0.9l-0.3-0.9l-0.1-0.9l-0.2-0.9V448l-0.2-0.8l0.1-0.4
			l-0.3-0.2L471,446l-0.1-0.1l-0.1-0.2c-0.1-0.1-0.2-0.2-0.4-0.4h-0.1l-0.1,0.2c-0.4,0.2-0.6,0.3-0.6,0.4c-0.2,0.2-0.2,0.4-0.2,0.6
			c-0.1,0-0.2-0.1-0.2-0.1c-0.3,0-0.5,0.2-0.6,0.7c-0.1-0.1-0.1-0.1-0.2-0.1c-0.1,0-0.1,0-0.1,0.1c0,0,0,0.1,0,0.1
			c0,0.1,0,0.1,0,0.1c0,0.1-0.1,0.2-0.4,0.3v0.3c0,0.2-0.2,0.5-0.5,0.7c-0.1,0-0.1,0-0.1,0.1c0,0,0,0.1,0.1,0.3l-0.3,0.7l-0.4,0.4
			c-0.1,0.1-0.2,0.3-0.2,0.5c-0.1,0-0.2,0.1-0.3,0.2c-0.1,0.1-0.2,0.2-0.2,0.2h0v0.4c-0.1,0.2-0.2,0.4-0.4,0.6
			c-0.1,0.2-0.2,0.4-0.2,0.4c-0.1,0.1-0.2,0.2-0.2,0.4c-0.2,0-0.4,0.1-0.4,0.3c0,0.1-0.2,0.2-0.4,0.3l-0.1,0.6h-0.3l-0.3,0.2
			l-0.1-0.1l0-1c0-0.2,0.1-0.6,0.2-1l-0.1-0.3c0.1-0.4,0.1-0.6,0.2-0.7l-0.2-0.6l0.2-0.4v-0.3l-0.1-0.7l0.2-0.6l-0.1-1.1l0.1-0.5
			l-0.2-0.3c0-0.3,0-0.5,0-0.6c0-0.1,0-0.2-0.1-0.2c0,0-0.2-0.1-0.5-0.2l-0.2,0.3l0.1,0.7l-0.1,0.5l0.1,0.3l-0.1,0.8l0.1,0.2l0,0.4
			l0.1,0.2l-0.2,1l0.1,0.4c0,0.1-0.1,0.2-0.2,0.3c0.1,0.2,0.2,0.3,0.2,0.3v0.1c0,0.5-0.1,0.8-0.2,1.1l0.1,0.4l-0.2,0.3l0.2,0.6
			l0,0.3l0.1,0.2l-0.1,0.1l0,0.3l-0.2,0.3l0.1,0.2c0.1,0.1,0.2,0.2,0.3,0.5c0.1,0.3,0.2,0.4,0.3,0.4c0.3-0.1,0.6-0.2,0.6-0.3
			c0.1-0.1,0.1-0.2,0.1-0.3l0-0.1c0.2-0.1,0.3-0.2,0.3-0.5c0.3-0.2,0.5-0.4,0.6-0.5c0.1-0.1,0.3-0.4,0.5-0.7l0.1-0.1
			c0.1,0,0.2-0.1,0.3-0.3c0.1-0.2,0.1-0.4,0.2-0.5c0.2,0,0.3-0.2,0.3-0.5l0.5-0.6h0.1v-0.2l0.2,0l0.2-0.5l-0.1-0.2
			c0.3-0.3,0.4-0.5,0.5-0.6c0.1-0.1,0.2-0.3,0.3-0.6l0.4-0.7l0.9-1.1l0.3-0.4l0.6-0.6l0.1,0.1c0,0.2,0.1,0.4,0.3,0.7
			c0,0,0,0.1,0,0.2c0,0.1,0,0.2,0.1,0.3v0.1c0,0.3,0.1,1.1,0.4,2.3v0.7l0.3,0.4l0,0.7l0.2,0.5l0.1,0.4l-0.1,0.1v0.2l0.2,0.3v0.2
			c0,0.2,0.1,0.4,0.4,0.7c0,0.1,0,0.2,0.1,0.3h0.1l0.3,0.4l0.2,0l0.1,0.1l0.2,0l0.2,0l0.6-0.1c0.1,0,0.1,0,0.2-0.1l0.3-0.2l0.4-0.1
			l0.2-0.3c0.2,0,0.3-0.1,0.3-0.2h0.1c0.1,0,0.1-0.1,0.1-0.2c0.3-0.1,0.5-0.3,0.5-0.6l0.3-0.1c0-0.1,0.1-0.4,0.3-0.6
			c0.2-0.3,0.3-0.5,0.3-0.5l0-0.1c0.2-0.1,0.4-0.3,0.3-0.4L477,451.5z"/>
		<path class="st0" d="M490.8,450l0.1-0.5l-0.1-0.2l0-0.5l-0.1-0.7l0.1-0.5v-0.4l0.2,0l-0.2-0.2l0.1-0.3l-0.1-0.4l0.2-0.2
			c-0.2-0.3-0.2-0.4-0.2-0.5l0-0.3l0-0.3l-0.6-0.6c-0.1,0-0.2,0-0.3,0.1l0,0.2l-0.1,0.1c0,0.1-0.1,0.2-0.2,0.3
			c-0.1,0.1-0.1,0.2-0.1,0.3l0,0.1l0.2,0.1l-0.1,0.4l0.1,0.4v0.5l-0.2,0.1l0,0.6l-0.5,1c-0.1,0.2-0.3,0.4-0.6,0.5
			c-0.1,0.2-0.3,0.5-0.7,0.9l-0.1,0.2c-0.2,0.1-0.4,0.2-0.7,0.3v0.1c0,0.2-0.1,0.3-0.3,0.4l-0.3,0.2c0,0.2-0.2,0.4-0.4,0.4v0.2
			l-0.1-0.2l-0.3,0.5c-0.4,0.1-0.8,0.3-1.2,0.7c-0.4,0.4-0.7,0.6-0.9,0.6c0,0.1,0,0.1,0,0.1c0,0.1,0,0.1-0.1,0.1l0-0.1
			c-0.2,0.1-0.4,0.2-0.6,0.3c-0.2,0.1-0.3,0.3-0.4,0.3c-0.1,0.1-0.2,0.2-0.2,0.3l0-0.1l-0.7,0.3l-0.2,0.4l-0.6-0.1l-0.2,0.1
			l-0.1-0.2l-0.2,0l-0.1-0.3l-0.3-0.3v-0.3l-0.1-0.2l0.1-0.2l-0.1-0.4l0.1-0.3l-0.1-0.4v-0.6l-0.1-0.2l0.3-0.4l0.1-1.4l0.1-0.1v-0.9
			l0.2-1l-0.2-0.2l0.3-0.4l-0.2-0.7l0.2-0.4l-0.1-0.1l-0.1-0.4l0.1-0.2l-0.2-0.4l0.1-0.3l-0.2,0l0.1-0.2c-0.2-0.1-0.3-0.3-0.3-0.5
			l-0.3,0v0.4l-0.2,0.2l0.1,0.2l-0.2,0.5l0.1,0.2l-0.1,0.2l0.2,1l-0.1,0.7l0.1,0.8l-0.3,1.2l0.1,0.2l-0.1,0.3l0,0.6l-0.2,0.4l0,0.3
			l-0.1,0.1l0.1,0.4l-0.2,0.6l0.1,0.3v0.8l0.3,1l0.1,0.4l0.5,0.9c0.1,0.2,0.3,0.2,0.7,0.2c0.3,0,0.5,0,0.6-0.1l0.1-0.2
			c0.2-0.1,0.4-0.1,0.5-0.2l0.2-0.2l0.5-0.1l0.5-0.5l0.3-0.1l0.1-0.2h0.2l0.2-0.1l0.1-0.2c0.3-0.3,0.5-0.4,0.5-0.4l0.2-0.1l0.6-0.5
			l0.2-0.2l0.3-0.1l0.6-0.7l0.9-0.8l0.1-0.3h0.2v-0.3l0.4-0.1l0.1-0.1l0.2-0.1l0.2-0.3l-0.1-0.1l0.4-0.3l0.1-0.3l0.2-0.1l0.1-0.3
			c0.1-0.1,0.3-0.1,0.3-0.2l0.2,0.3l-0.1,0.3l0.1,0.2l-0.1,0.4l0.1,0.2l-0.2,0.2l0.2,0.2l0.1,1l-0.1,0.2l0.1,0.2l-0.1,0.3l0.1,0.3
			v1.4l0.1,0.6l-0.1,0.5l0.1,0.3v1.5l-0.1,1.1v0.1c0,0.2,0,0.3,0.1,0.4c0,0.1,0.1,0.2,0.1,0.2c0,0-0.1,0.1-0.2,0.3l0.2,0.3l-0.1,0.2
			v0.6l-0.1,0.1l-0.1,0.7l0.1,0.1c-0.1,0.3-0.3,0.8-0.6,1.3h-0.1c0,0.3-0.1,0.5-0.3,0.7c-0.2,0.1-0.4,0.3-0.4,0.6l-0.1-0.1
			c-0.1,0-0.2,0.1-0.2,0.2c-0.1,0.1-0.1,0.2-0.2,0.2h0c0,0.1-0.1,0.2-0.2,0.2l-0.1,0.2h-0.1c-0.1,0-0.2,0.1-0.2,0.2c0,0-0.1,0-0.1,0
			c-0.1,0-0.1,0-0.2,0.1h0.1c0,0-0.1,0.1-0.2,0.2v-0.1l-0.8,0.3h-0.1c-0.3,0-0.5,0.1-0.7,0.3c0,0-0.1,0.1-0.1,0.1
			c-0.1,0-0.1,0-0.1-0.1v-0.1l-0.2,0.1l-1.5,0.1l-0.2-0.2l-0.4,0.1l-0.3-0.3h-0.4l-0.4-0.3c-0.1-0.1-0.2-0.2-0.3-0.2l-0.3-0.1
			l-0.8-0.8l-0.1-0.3l-0.5-0.2l-0.6-1.4l0.1-0.1c0-0.2,0.1-0.5,0.2-0.7l0-0.5c0.3-0.3,0.6-0.6,0.7-0.9h0.4l0.2-0.4
			c0.3-0.1,0.5-0.2,0.6-0.2l0.2-0.2l0.3-0.2c0,0,0-0.1,0-0.1c0-0.1-0.1-0.2-0.2-0.2c-0.1,0-0.2,0.1-0.3,0.3l-0.7-0.1l-0.6,0.6
			l-0.4,0.1c-0.4,0.4-0.6,0.6-0.6,0.7l-0.1,0.3l-0.1,0l-0.1,0.1l-0.2,0.1v0.1l-0.1,0.3c-0.1,0.2-0.1,0.4-0.1,0.5
			c0,0.1,0,0.2,0.1,0.4c0.1,0.3,0.2,0.5,0.2,0.7l0,0.2l0.2,0.3l-0.1,0.3l0.4,0.2c0.1,0.1,0.2,0.1,0.2,0.2l0.3,0.5l0.4,0.2l0.4,0.5
			l0.2,0.1l0.2,0.4l0.4,0.1l0.2,0.3l0.7,0.1l0.9,0.3l0.1,0l0.3,0.2h0.2l0.8,0.1l0.1,0l0.2,0l0.8-0.1l0.3,0l0.5-0.3l0.3,0.1l0.1-0.1
			h0.3c0-0.1,0.2-0.2,0.4-0.3l0.1-0.1c0.1,0,0.1,0,0.1-0.1c0,0,0-0.1,0-0.1c0.4,0,0.6-0.2,0.8-0.6l0.5-0.3c0.1-0.2,0.3-0.4,0.5-0.7
			l0.2-0.3l0.1,0l0.1-0.5l0.6-1l-0.1-0.2l0.1-0.3V461l0-0.2h0.1l-0.1-0.4l0.1-0.1l-0.1-0.5l0.1-0.2l-0.1-0.3l0.1-1.7l-0.1-0.3
			l0.1-0.7v-0.9l0.1-0.2l-0.1-1.2l0.1-0.4l-0.1-0.4l0.2-1l-0.2-1c0-0.1,0-0.2,0-0.3c0-0.2,0.1-0.3,0.3-0.5L490.8,450z"/>
	</g>
	<g>
		<path d="M360.8,365.9c-0.7-1.6-1.2-2.4-1.6-2.4c-0.4,0-1,1.1-1.9,3.3l-11.1,25.4l-9.6,21.4c-0.3,0.7-0.4,1.2-0.4,1.7
			c0,0.5,0.2,1,0.6,1.4c0.4,0.4,1.3,0.8,2.8,1.2c1.5,0.4,2.4,0.8,2.8,1.2c0.4,0.4,0.6,0.9,0.6,1.4c0,1.6-1,2.4-3.1,2.4
			c-0.5,0-1.7-0.1-3.6-0.4c-1.9-0.3-3.5-0.4-4.7-0.4c-1.3,0-2.6,0.1-3.9,0.4c-1.3,0.3-2.3,0.4-3,0.4c-0.9,0-1.6-0.2-2.1-0.7
			c-0.6-0.5-0.8-1-0.8-1.6c0-0.9,0.2-1.5,0.5-1.8c0.4-0.3,1-0.5,1.9-0.6c2.7-0.4,4.6-1.5,5.6-3c1-1.6,3.6-7.2,7.9-16.8l12.6-28.1
			c3.1-6.7,5.1-11.2,5.9-13.4c0.9-2.2,1.3-3.9,1.3-5.1c0-0.4-0.1-1.2-0.4-2.3c-0.3-1.1-0.4-1.9-0.4-2.4c0-1,0.5-1.5,1.6-1.5
			c1.8,0,3.2,0.7,4.3,2.2c1.1,1.5,2.5,4.3,4.3,8.4l14.4,32.5c5.2,11.9,8.6,19.2,9.9,22c1.4,2.8,2.5,4.6,3.4,5.4
			c0.9,0.8,1.9,1.4,3.2,1.8c1.2,0.4,2.1,0.7,2.5,1.1c0.4,0.4,0.7,1,0.7,1.8c0,1.2-1.1,1.8-3.3,1.8c-0.7,0-2-0.1-4-0.3
			c-1.9-0.2-3.8-0.3-5.7-0.3c-1.9,0-3.9,0.1-6,0.4c-2.1,0.2-3.5,0.4-4.2,0.4c-1.2,0-2.1-0.2-2.8-0.6c-0.7-0.4-1-0.9-1-1.6
			c0-0.6,0.2-1.1,0.6-1.5c0.4-0.4,1.5-0.7,3.4-0.8c1.8-0.2,3-0.5,3.5-1.2c0.5-0.6,0.8-1.4,0.8-2.3c0-1-1-3.6-3-8
			c-2-4.4-3.2-6.7-3.7-7c-0.5-0.3-1.4-0.4-2.8-0.4h-23.3c-0.9,0-1.7-0.3-2.4-0.9c-0.7-0.6-1.1-1.3-1.1-2c0-0.6,0.3-1.1,0.9-1.6
			c0.6-0.4,1.2-0.7,2-0.7h22.4c1.2,0,1.9-0.2,1.9-0.7c0-0.3-0.2-1-0.7-2L360.8,365.9z"/>
		<path d="M164.7,407.7c7.3,0,13.4-1.6,18.2-4.8c4.9-3.2,8.3-7.2,10.4-11.9c2.1-4.7,3.1-11,3.1-18.8c0-13.5-2.8-23.9-8.5-31
			c-5.7-7.2-13.3-10.7-22.9-10.7c-10,0-17.8,3.7-23.4,11c-5.6,7.3-8.4,16-8.4,26.1C133.3,394.3,143.8,407.7,164.7,407.7
			 M165.1,325.2c13.5,0,24.2,4.6,31.9,13.9c7.8,9.3,11.6,19.7,11.6,31.3c0,8.6-2.1,16.4-6.3,23.5c-4.2,7.1-9.7,12.1-16.4,15
			c-6.8,2.9-13.9,4.4-21.5,4.4c-12.4,0-22.7-4.3-30.9-12.9c-8.2-8.6-12.3-19.5-12.3-32.8c0-6.9,1.8-13.8,5.5-20.6
			c3.7-6.8,8.8-12.1,15.4-16C148.7,327.1,156.4,325.2,165.1,325.2z"/>
		<path d="M207.9,378.6c0-2.8-1.9-4.2-5.6-4.2c-2.4,0-3.5-0.8-3.5-2.3c0-1.5,1.2-2.2,3.5-2.2c1.3,0,2.9,0.1,4.5,0.4
			c1.7,0.3,3.1,0.4,4.2,0.4c1,0,2.7-0.2,5-0.6c2.4-0.4,5.3-0.6,8.6-0.6c8.2,0,14.4,1.9,18.8,5.6c4.4,3.8,6.6,8.2,6.6,13.4
			c0,4.1-1,7.2-3,9.4c-2,2.2-4.8,4.1-8.4,5.8c-3.6,1.7-8.3,2.6-14.1,2.6c-3.4,0-5-1-5-3c0-0.5,0.2-0.9,0.7-1.3
			c0.5-0.3,1.1-0.5,1.9-0.5c0.2,0,0.7,0,1.7,0.1c1,0.1,1.9,0.1,2.7,0.1c3.7,0,6.8-1.2,9.3-3.5c2.4-2.3,3.7-5.6,3.7-9.7
			c0-3.9-1.5-7.4-4.5-10.3c-3-3-7.1-4.5-12.2-4.5c-1.8,0-3.1,0.2-3.9,0.7c-0.8,0.5-1.3,1.2-1.5,2.2c-0.2,0.9-0.3,2.5-0.3,4.6v55.3
			c0,2.7,1.8,4.1,5.3,4.1c1.7,0,2.8,0.2,3.4,0.7c0.6,0.4,0.9,1.1,0.9,2c0,1.4-1.4,2.1-4.3,2.1c-0.9,0-2.6-0.3-5.1-1
			c-2.5-0.7-4-1-4.7-1c-1,0-2.6,0.3-4.6,1c-2,0.7-3.4,1-4.2,1c-3,0-4.5-0.9-4.5-2.6c0-0.5,0.2-0.9,0.5-1.2c0.3-0.3,1.5-0.6,3.4-0.7
			c1.9-0.2,3.2-0.8,3.9-1.9c0.7-1.1,1-2.4,1-4V378.6z"/>
		<path d="M275.3,418.4c1.8,0,3.1-0.5,4-1.4c0.9-0.9,1.4-2.1,1.4-3.6c0-1.3,0.3-2.4,0.9-3.1c0.6-0.8,1.3-1.2,2.1-1.2
			c0.8,0,1.5,0.4,2,1.1c0.5,0.7,0.8,1.7,0.8,2.9c0,1.2,0.1,2.5,0.2,3.9c0.1,1.4,0.2,2.4,0.2,2.9c0,1.4-0.2,2.3-0.6,2.8
			c-0.4,0.4-1.4,0.7-3.1,0.7H241c-2.9,0-5-0.2-6.1-0.7c-1.1-0.4-1.6-1.1-1.6-2c0-1.4,1-2.1,3-2.1c2.5,0,4.2-0.4,5-1.2
			c0.8-0.8,1.1-2.1,1.1-3.9v-47.6c0-5.1-0.1-8.5-0.3-10.2c-0.2-1.7-0.6-2.7-1.3-3.2c-0.7-0.5-2.1-0.7-4.2-0.7
			c-1.3,0-2.2-0.2-2.9-0.7c-0.7-0.5-1-1.1-1-1.8c0-0.7,0.3-1.2,0.9-1.7c0.6-0.5,1.3-0.8,2.2-0.8h40c1.6,0,2.6,0.3,3.1,1
			c0.5,0.7,0.8,1.6,1.1,2.9c0.2,1.3,0.3,3.4,0.3,6.3c0,1.4-0.6,2-1.7,2c-0.7,0-1.2-0.2-1.7-0.6c-0.5-0.4-1-1.4-1.7-3
			c-0.6-1.6-1.2-2.6-1.9-3.1c-0.6-0.4-1.4-0.7-2.2-0.7H257c-2.4,0-3.9,0.3-4.5,1c-0.6,0.7-0.9,1.7-0.9,3v11c0,2.6,0.4,4.2,1,5.1
			c0.7,0.8,2.1,1.2,4.2,1.2h13.8c1.1,0,2-0.5,2.6-1.4c0.6-0.9,0.9-1.9,0.9-3.1c0-0.6,0.2-1.1,0.7-1.5c0.5-0.4,1-0.6,1.7-0.6
			c0.7,0,1.3,0.2,1.7,0.7c0.4,0.4,0.7,1.1,0.7,1.9c0,0.7-0.1,1.8-0.3,3.1c-0.2,1.4-0.3,2.5-0.3,3.4c0,1.3,0.1,2.7,0.4,4.2
			c0.3,1.4,0.4,2.3,0.4,2.6c0,0.8-0.3,1.5-0.8,2c-0.5,0.5-1.1,0.8-1.8,0.8c-0.7,0-1.3-0.3-1.8-1c-0.5-0.6-0.7-1.5-0.7-2.6
			c0-1.3-0.4-2.3-1-2.8c-0.7-0.6-1.8-0.8-3.4-0.8h-13.7c-1.2,0-2.3,0.2-3.1,0.7c-0.8,0.5-1.2,1.2-1.2,2.2V414c0,1.7,0.4,2.9,1.3,3.5
			c0.9,0.6,2.4,0.9,4.5,0.9H275.3z"/>
		<path d="M286.9,367.3c0-2.6-1.8-4-5.4-4.3c-2.5-0.1-3.7-1-3.7-2.4c0-1.6,1.4-2.3,4.3-2.3c1.4,0,2.8,0.1,4.5,0.4
			c1.6,0.2,3,0.4,4.2,0.4c0.8,0,2.9-0.2,6.4-0.7c3.5-0.5,6.1-0.7,8-0.7c7.1,0,12.9,1.8,17.4,5.5c4.5,3.7,6.7,8.4,6.7,14.3
			c0,3.7-1.1,6.8-3.3,9.3c-2.2,2.4-6,4.7-11.4,6.8c-1,0.4-1.5,0.8-1.5,1.2c0,0.3,0.2,0.7,0.6,1.3c1.9,2.7,5.5,8.6,10.8,17.5
			c5.3,9,8.1,13.7,8.4,14.1c0.4,0.4,1.3,0.9,2.8,1.4c1.5,0.5,2.4,1,2.8,1.5c0.4,0.5,0.6,1.1,0.6,1.7c0,0.8-0.5,1.5-1.6,2.1
			c-1,0.6-1.9,0.9-2.5,0.9c-1.6,0-3.5-0.6-5.8-1.8c-2.3-1.2-3.8-2.3-4.5-3.1c-1.3-1.7-5.8-8.8-13.3-21.2c-3.5-5.8-5.5-9-6-9.8
			c-1.9-2.7-3.7-4.4-5.5-5.2c-0.5-0.2-0.7-0.4-0.9-0.6c-0.1-0.2-0.2-0.6-0.2-1.2c0-1.5,0.9-2.2,2.7-2.2c0.2,0,0.7,0.1,1.5,0.2
			c0.8,0.1,1.6,0.2,2.3,0.2c3.8,0,7-1.2,9.6-3.7c2.6-2.4,3.9-5.9,3.9-10.3c0-3.1-1.4-6.2-4.3-9.3c-2.9-3.1-6.9-4.6-12-4.6
			c-1.9,0-3.3,0.2-4.2,0.7c-0.9,0.4-1.4,1-1.7,1.6c-0.2,0.7-0.3,1.5-0.3,2.5v58.2c0,1.2,0.5,2.1,1.5,2.8c1,0.7,2.3,1.1,3.9,1.1
			c1.7,0,2.9,0.2,3.5,0.7c0.6,0.4,0.9,1.1,0.9,2c0,0.8-0.4,1.5-1.1,2.1c-0.7,0.6-1.9,0.8-3.4,0.8c-1.3,0-3-0.4-5-1.2
			c-2-0.8-3.5-1.2-4.6-1.2c-1,0-2.4,0.4-4.4,1.1c-1.9,0.7-3.5,1.1-4.6,1.1c-3.2,0-4.8-1-4.8-3c0-0.8,0.3-1.3,0.8-1.7
			c0.5-0.4,1.8-0.5,3.9-0.5c1.2,0,2.3-0.3,3.1-0.8c0.8-0.6,1.2-1.2,1.2-2V367.3z"/>
	</g>
</g>
</svg>
